<?xml version="1.0" encoding="utf-8"?>
<!-- Generator: Adobe Illustrator 27.5.0, SVG Export Plug-In . SVG Version: 6.00 Build 0)  -->
<svg version="1.1" xmlns="http://www.w3.org/2000/svg" xmlns:xlink="http://www.w3.org/1999/xlink" x="0px" y="0px"
	 viewBox="0 0 500 500" style="enable-background:new 0 0 500 500;" xml:space="preserve">
<g id="BACKGROUND">
	<rect style="fill:#FFFFFF;" width="500" height="500"/>
</g>
<g id="OBJECTS">
	<g>
		<g>
			
				<rect x="81.795" y="106.052" style="fill:none;stroke:#EEE8FF;stroke-width:3;stroke-linecap:round;stroke-miterlimit:10;" width="208.291" height="92.574"/>
			
				<line style="fill:none;stroke:#EEE8FF;stroke-width:3;stroke-miterlimit:10;" x1="138.368" y1="106.052" x2="138.368" y2="199.484"/>
			
				<line style="fill:none;stroke:#EEE8FF;stroke-width:3;stroke-miterlimit:10;" x1="215.513" y1="106.052" x2="215.513" y2="199.484"/>
			
				<line style="fill:none;stroke:#EEE8FF;stroke-width:3;stroke-linecap:round;stroke-miterlimit:10;" x1="81.795" y1="132.624" x2="290.087" y2="132.624"/>
			
				<line style="fill:none;stroke:#EEE8FF;stroke-width:3;stroke-linecap:round;stroke-miterlimit:10;" x1="90.367" y1="117.196" x2="125.511" y2="117.196"/>
			
				<line style="fill:none;stroke:#EEE8FF;stroke-width:3;stroke-linecap:round;stroke-miterlimit:10;" x1="159.702" y1="117.196" x2="194.846" y2="117.196"/>
			
				<line style="fill:none;stroke:#EEE8FF;stroke-width:3;stroke-linecap:round;stroke-miterlimit:10;" x1="90.367" y1="145.387" x2="125.511" y2="145.387"/>
			
				<line style="fill:none;stroke:#EEE8FF;stroke-width:3;stroke-linecap:round;stroke-miterlimit:10;" x1="90.367" y1="154.911" x2="125.511" y2="154.911"/>
			
				<line style="fill:none;stroke:#EEE8FF;stroke-width:3;stroke-linecap:round;stroke-miterlimit:10;" x1="90.367" y1="164.435" x2="110.368" y2="164.435"/>
			
				<line style="fill:none;stroke:#EEE8FF;stroke-width:3;stroke-linecap:round;stroke-miterlimit:10;" x1="116.082" y1="164.435" x2="125.225" y2="164.435"/>
			
				<line style="fill:none;stroke:#EEE8FF;stroke-width:3;stroke-linecap:round;stroke-miterlimit:10;" x1="90.367" y1="172.054" x2="110.368" y2="172.054"/>
			
				<line style="fill:none;stroke:#EEE8FF;stroke-width:3;stroke-linecap:round;stroke-miterlimit:10;" x1="116.082" y1="172.054" x2="125.225" y2="172.054"/>
			<g>
				
					<line style="fill:none;stroke:#EEE8FF;stroke-width:3;stroke-linecap:round;stroke-miterlimit:10;" x1="156.004" y1="145.768" x2="198.148" y2="145.768"/>
				<polyline style="fill:none;stroke:#EEE8FF;stroke-width:3;stroke-linecap:round;stroke-miterlimit:10;" points="
					205.608,141.577 202.561,145.768 205.989,149.577 				"/>
				<polyline style="fill:none;stroke:#EEE8FF;stroke-width:3;stroke-linecap:round;stroke-miterlimit:10;" points="
					148.384,141.577 151.432,145.768 148.003,149.577 				"/>
			</g>
			<path style="fill:none;stroke:#EEE8FF;stroke-width:3;stroke-linecap:round;stroke-miterlimit:10;" d="M173.24,162.149
				c8.303,0,16.605,0,24.908,0"/>
			<path style="fill:none;stroke:#EEE8FF;stroke-width:3;stroke-linecap:round;stroke-miterlimit:10;" d="M156.004,162.149
				c2.906,0,5.811,0,8.717,0"/>
			<polyline style="fill:none;stroke:#EEE8FF;stroke-width:3;stroke-linecap:round;stroke-miterlimit:10;" points="205.227,170.149 
				202.18,174.34 205.608,178.15 			"/>
			<polyline style="fill:none;stroke:#EEE8FF;stroke-width:3;stroke-linecap:round;stroke-miterlimit:10;" points="228.466,141.577 
				225.418,145.768 228.847,149.577 			"/>
			<polyline style="fill:none;stroke:#EEE8FF;stroke-width:3;stroke-linecap:round;stroke-miterlimit:10;" points="274.944,141.577 
				277.991,145.768 274.563,149.577 			"/>
			
				<line style="fill:none;stroke:#EEE8FF;stroke-width:3;stroke-linecap:round;stroke-miterlimit:10;" x1="154.178" y1="174.34" x2="168.655" y2="174.34"/>
			
				<line style="fill:none;stroke:#EEE8FF;stroke-width:3;stroke-linecap:round;stroke-miterlimit:10;" x1="172.845" y1="174.34" x2="181.989" y2="174.34"/>
			
				<line style="fill:none;stroke:#EEE8FF;stroke-width:3;stroke-linecap:round;stroke-miterlimit:10;" x1="187.703" y1="174.34" x2="196.465" y2="174.34"/>
			
				<line style="fill:none;stroke:#EEE8FF;stroke-width:3;stroke-linecap:round;stroke-miterlimit:10;" x1="234.18" y1="145.768" x2="242.562" y2="145.768"/>
			
				<line style="fill:none;stroke:#EEE8FF;stroke-width:3;stroke-linecap:round;stroke-miterlimit:10;" x1="247.514" y1="147.292" x2="255.895" y2="147.292"/>
			
				<line style="fill:none;stroke:#EEE8FF;stroke-width:3;stroke-linecap:round;stroke-miterlimit:10;" x1="242.943" y1="161.768" x2="277.991" y2="161.768"/>
			
				<line style="fill:none;stroke:#EEE8FF;stroke-width:3;stroke-linecap:round;stroke-miterlimit:10;" x1="226.561" y1="175.483" x2="246.371" y2="175.483"/>
			
				<line style="fill:none;stroke:#EEE8FF;stroke-width:3;stroke-linecap:round;stroke-miterlimit:10;" x1="252.086" y1="175.483" x2="261.991" y2="175.483"/>
			
				<line style="fill:none;stroke:#EEE8FF;stroke-width:3;stroke-linecap:round;stroke-miterlimit:10;" x1="267.324" y1="174.721" x2="281.42" y2="174.721"/>
			
				<line style="fill:none;stroke:#EEE8FF;stroke-width:3;stroke-linecap:round;stroke-miterlimit:10;" x1="260.848" y1="148.815" x2="269.229" y2="148.815"/>
			
				<line style="fill:none;stroke:#EEE8FF;stroke-width:3;stroke-linecap:round;stroke-miterlimit:10;" x1="260.848" y1="144.244" x2="269.229" y2="144.244"/>
			
				<line style="fill:none;stroke:#EEE8FF;stroke-width:3;stroke-linecap:round;stroke-miterlimit:10;" x1="231.514" y1="156.816" x2="226.561" y2="165.197"/>
			
				<line style="fill:none;stroke:#EEE8FF;stroke-width:3;stroke-linecap:round;stroke-miterlimit:10;" x1="237.99" y1="156.816" x2="233.038" y2="165.197"/>
			
				<line style="fill:none;stroke:#EEE8FF;stroke-width:3;stroke-linecap:round;stroke-miterlimit:10;" x1="235.704" y1="115.672" x2="229.609" y2="121.767"/>
			
				<line style="fill:none;stroke:#EEE8FF;stroke-width:3;stroke-linecap:round;stroke-miterlimit:10;" x1="245.99" y1="115.672" x2="239.895" y2="121.767"/>
			
				<line style="fill:none;stroke:#EEE8FF;stroke-width:3;stroke-linecap:round;stroke-miterlimit:10;" x1="256.276" y1="115.672" x2="250.181" y2="121.767"/>
			
				<line style="fill:none;stroke:#EEE8FF;stroke-width:3;stroke-linecap:round;stroke-miterlimit:10;" x1="266.562" y1="115.672" x2="260.467" y2="121.767"/>
			
				<line style="fill:none;stroke:#EEE8FF;stroke-width:3;stroke-linecap:round;stroke-miterlimit:10;" x1="276.848" y1="115.672" x2="270.753" y2="121.767"/>
		</g>
		<g>
			
				<rect x="214.399" y="204.469" style="fill:none;stroke:#EEE8FF;stroke-width:3;stroke-linecap:round;stroke-miterlimit:10;" width="208.291" height="72.996"/>
			
				<line style="fill:none;stroke:#EEE8FF;stroke-width:3;stroke-linejoin:round;stroke-miterlimit:10;" x1="270.972" y1="204.469" x2="270.972" y2="278.517"/>
			
				<line style="fill:none;stroke:#EEE8FF;stroke-width:3;stroke-linejoin:round;stroke-miterlimit:10;" x1="348.117" y1="204.469" x2="348.117" y2="278.517"/>
			
				<line style="fill:none;stroke:#EEE8FF;stroke-width:3;stroke-linecap:round;stroke-miterlimit:10;" x1="214.399" y1="231.042" x2="422.691" y2="231.042"/>
			
				<line style="fill:none;stroke:#EEE8FF;stroke-width:3;stroke-linecap:round;stroke-miterlimit:10;" x1="222.971" y1="215.613" x2="258.115" y2="215.613"/>
			
				<line style="fill:none;stroke:#EEE8FF;stroke-width:3;stroke-linecap:round;stroke-miterlimit:10;" x1="292.306" y1="215.613" x2="327.45" y2="215.613"/>
			
				<line style="fill:none;stroke:#EEE8FF;stroke-width:3;stroke-linecap:round;stroke-miterlimit:10;" x1="222.971" y1="243.804" x2="258.115" y2="243.804"/>
			
				<line style="fill:none;stroke:#EEE8FF;stroke-width:3;stroke-linecap:round;stroke-miterlimit:10;" x1="222.971" y1="253.328" x2="258.115" y2="253.328"/>
			
				<line style="fill:none;stroke:#EEE8FF;stroke-width:3;stroke-linecap:round;stroke-miterlimit:10;" x1="222.971" y1="262.852" x2="242.972" y2="262.852"/>
			
				<line style="fill:none;stroke:#EEE8FF;stroke-width:3;stroke-linecap:round;stroke-miterlimit:10;" x1="248.686" y1="262.852" x2="257.829" y2="262.852"/>
			
				<line style="fill:none;stroke:#EEE8FF;stroke-width:3;stroke-linecap:round;stroke-miterlimit:10;" x1="222.971" y1="270.471" x2="242.972" y2="270.471"/>
			
				<line style="fill:none;stroke:#EEE8FF;stroke-width:3;stroke-linecap:round;stroke-miterlimit:10;" x1="248.686" y1="270.471" x2="257.829" y2="270.471"/>
			<g>
				
					<line style="fill:none;stroke:#EEE8FF;stroke-width:3;stroke-linecap:round;stroke-miterlimit:10;" x1="288.608" y1="244.185" x2="330.752" y2="244.185"/>
				<polyline style="fill:none;stroke:#EEE8FF;stroke-width:3;stroke-linecap:round;stroke-miterlimit:10;" points="
					338.212,239.994 335.165,244.185 338.593,247.994 				"/>
				<polyline style="fill:none;stroke:#EEE8FF;stroke-width:3;stroke-linecap:round;stroke-miterlimit:10;" points="
					280.989,239.994 284.036,244.185 280.608,247.994 				"/>
			</g>
			<path style="fill:none;stroke:#EEE8FF;stroke-width:3;stroke-linecap:round;stroke-miterlimit:10;" d="M305.844,260.566
				c8.302,0,16.605,0,24.908,0"/>
			<path style="fill:none;stroke:#EEE8FF;stroke-width:3;stroke-linecap:round;stroke-miterlimit:10;" d="M288.608,260.566
				c2.906,0,5.812,0,8.717,0"/>
			<polyline style="fill:none;stroke:#EEE8FF;stroke-width:3;stroke-linecap:round;stroke-miterlimit:10;" points="361.07,239.994 
				358.022,244.185 361.451,247.994 			"/>
			<polyline style="fill:none;stroke:#EEE8FF;stroke-width:3;stroke-linecap:round;stroke-miterlimit:10;" points="407.548,239.994 
				410.595,244.185 407.167,247.994 			"/>
			
				<line style="fill:none;stroke:#EEE8FF;stroke-width:3;stroke-linecap:round;stroke-miterlimit:10;" x1="367.777" y1="243.61" x2="402.826" y2="243.61"/>
			
				<line style="fill:none;stroke:#EEE8FF;stroke-width:3;stroke-linecap:round;stroke-miterlimit:10;" x1="384.118" y1="255.233" x2="379.165" y2="263.614"/>
			
				<line style="fill:none;stroke:#EEE8FF;stroke-width:3;stroke-linecap:round;stroke-miterlimit:10;" x1="390.594" y1="255.233" x2="385.642" y2="263.614"/>
			
				<line style="fill:none;stroke:#EEE8FF;stroke-width:3;stroke-linecap:round;stroke-miterlimit:10;" x1="368.308" y1="214.089" x2="362.213" y2="220.184"/>
			
				<line style="fill:none;stroke:#EEE8FF;stroke-width:3;stroke-linecap:round;stroke-miterlimit:10;" x1="378.594" y1="214.089" x2="372.499" y2="220.184"/>
			
				<line style="fill:none;stroke:#EEE8FF;stroke-width:3;stroke-linecap:round;stroke-miterlimit:10;" x1="409.452" y1="214.089" x2="403.357" y2="220.184"/>
		</g>
		<g>
			
				<rect x="75.718" y="282.283" style="fill:none;stroke:#EEE8FF;stroke-width:3;stroke-linecap:round;stroke-miterlimit:10;" width="208.291" height="92.574"/>
			
				<line style="fill:none;stroke:#EEE8FF;stroke-width:3;stroke-miterlimit:10;" x1="132.291" y1="282.283" x2="132.291" y2="375.714"/>
			
				<line style="fill:none;stroke:#EEE8FF;stroke-width:3;stroke-linecap:round;stroke-miterlimit:10;" x1="209.436" y1="282.283" x2="209.436" y2="375.714"/>
			
				<line style="fill:none;stroke:#EEE8FF;stroke-width:3;stroke-linecap:round;stroke-miterlimit:10;" x1="75.718" y1="308.855" x2="284.009" y2="308.855"/>
			
				<line style="fill:none;stroke:#EEE8FF;stroke-width:3;stroke-linecap:round;stroke-miterlimit:10;" x1="84.29" y1="293.426" x2="119.433" y2="293.426"/>
			
				<line style="fill:none;stroke:#EEE8FF;stroke-width:3;stroke-linecap:round;stroke-miterlimit:10;" x1="153.625" y1="293.426" x2="188.769" y2="293.426"/>
			
				<line style="fill:none;stroke:#EEE8FF;stroke-width:3;stroke-linecap:round;stroke-miterlimit:10;" x1="84.29" y1="321.617" x2="119.433" y2="321.617"/>
			
				<line style="fill:none;stroke:#EEE8FF;stroke-width:3;stroke-linecap:round;stroke-miterlimit:10;" x1="84.29" y1="331.141" x2="119.433" y2="331.141"/>
			
				<line style="fill:none;stroke:#EEE8FF;stroke-width:3;stroke-linecap:round;stroke-miterlimit:10;" x1="84.29" y1="340.665" x2="104.29" y2="340.665"/>
			
				<line style="fill:none;stroke:#EEE8FF;stroke-width:3;stroke-linecap:round;stroke-miterlimit:10;" x1="110.004" y1="340.665" x2="119.148" y2="340.665"/>
			
				<line style="fill:none;stroke:#EEE8FF;stroke-width:3;stroke-linecap:round;stroke-miterlimit:10;" x1="84.29" y1="348.284" x2="104.29" y2="348.284"/>
			
				<line style="fill:none;stroke:#EEE8FF;stroke-width:3;stroke-linecap:round;stroke-miterlimit:10;" x1="110.004" y1="348.284" x2="119.148" y2="348.284"/>
			<g>
				
					<line style="fill:none;stroke:#EEE8FF;stroke-width:3;stroke-linecap:round;stroke-miterlimit:10;" x1="153.926" y1="321.998" x2="192.07" y2="321.998"/>
				<polyline style="fill:none;stroke:#EEE8FF;stroke-width:3;stroke-linecap:round;stroke-miterlimit:10;" points="
					142.307,317.807 145.355,321.998 141.926,325.808 				"/>
			</g>
			<path style="fill:none;stroke:#EEE8FF;stroke-width:3;stroke-linecap:round;stroke-miterlimit:10;" d="M167.163,338.379
				c8.302,0,16.605,0,24.908,0"/>
			<path style="fill:none;stroke:#EEE8FF;stroke-width:3;stroke-linecap:round;stroke-miterlimit:10;" d="M149.926,338.379
				c2.906,0,5.811,0,8.717,0"/>
			<polyline style="fill:none;stroke:#EEE8FF;stroke-width:3;stroke-linecap:round;stroke-miterlimit:10;" points="199.15,346.38 
				196.102,350.57 199.531,354.38 			"/>
			<polyline style="fill:none;stroke:#EEE8FF;stroke-width:3;stroke-linecap:round;stroke-miterlimit:10;" points="222.389,317.807 
				219.341,321.998 222.77,325.808 			"/>
			<polyline style="fill:none;stroke:#EEE8FF;stroke-width:3;stroke-linecap:round;stroke-miterlimit:10;" points="268.866,317.807 
				271.914,321.998 268.485,325.808 			"/>
			
				<line style="fill:none;stroke:#EEE8FF;stroke-width:3;stroke-linecap:round;stroke-miterlimit:10;" x1="148.101" y1="350.57" x2="162.577" y2="350.57"/>
			
				<line style="fill:none;stroke:#EEE8FF;stroke-width:3;stroke-linecap:round;stroke-miterlimit:10;" x1="166.768" y1="350.57" x2="175.911" y2="350.57"/>
			
				<line style="fill:none;stroke:#EEE8FF;stroke-width:3;stroke-linecap:round;stroke-miterlimit:10;" x1="181.626" y1="350.57" x2="190.388" y2="350.57"/>
			
				<line style="fill:none;stroke:#EEE8FF;stroke-width:3;stroke-linecap:round;stroke-miterlimit:10;" x1="228.103" y1="321.998" x2="236.484" y2="321.998"/>
			
				<line style="fill:none;stroke:#EEE8FF;stroke-width:3;stroke-linecap:round;stroke-miterlimit:10;" x1="241.437" y1="323.522" x2="249.818" y2="323.522"/>
			
				<line style="fill:none;stroke:#EEE8FF;stroke-width:3;stroke-linecap:round;stroke-miterlimit:10;" x1="236.865" y1="337.999" x2="271.914" y2="337.999"/>
			
				<line style="fill:none;stroke:#EEE8FF;stroke-width:3;stroke-linecap:round;stroke-miterlimit:10;" x1="220.484" y1="351.713" x2="240.294" y2="351.713"/>
			
				<line style="fill:none;stroke:#EEE8FF;stroke-width:3;stroke-linecap:round;stroke-miterlimit:10;" x1="246.008" y1="351.713" x2="255.913" y2="351.713"/>
			
				<line style="fill:none;stroke:#EEE8FF;stroke-width:3;stroke-linecap:round;stroke-miterlimit:10;" x1="261.247" y1="350.951" x2="275.342" y2="350.951"/>
			
				<line style="fill:none;stroke:#EEE8FF;stroke-width:3;stroke-linecap:round;stroke-miterlimit:10;" x1="254.77" y1="325.046" x2="263.152" y2="325.046"/>
			
				<line style="fill:none;stroke:#EEE8FF;stroke-width:3;stroke-linecap:round;stroke-miterlimit:10;" x1="254.77" y1="320.474" x2="263.152" y2="320.474"/>
			
				<line style="fill:none;stroke:#EEE8FF;stroke-width:3;stroke-linecap:round;stroke-miterlimit:10;" x1="225.436" y1="333.046" x2="220.484" y2="341.427"/>
			
				<line style="fill:none;stroke:#EEE8FF;stroke-width:3;stroke-linecap:round;stroke-miterlimit:10;" x1="231.913" y1="333.046" x2="226.96" y2="341.427"/>
			
				<line style="fill:none;stroke:#EEE8FF;stroke-width:3;stroke-linecap:round;stroke-miterlimit:10;" x1="229.627" y1="291.902" x2="223.531" y2="297.997"/>
			
				<line style="fill:none;stroke:#EEE8FF;stroke-width:3;stroke-linecap:round;stroke-miterlimit:10;" x1="239.913" y1="291.902" x2="233.817" y2="297.997"/>
			
				<line style="fill:none;stroke:#EEE8FF;stroke-width:3;stroke-linecap:round;stroke-miterlimit:10;" x1="250.199" y1="291.902" x2="244.103" y2="297.997"/>
			
				<line style="fill:none;stroke:#EEE8FF;stroke-width:3;stroke-linecap:round;stroke-miterlimit:10;" x1="260.485" y1="291.902" x2="254.389" y2="297.997"/>
			
				<line style="fill:none;stroke:#EEE8FF;stroke-width:3;stroke-linecap:round;stroke-miterlimit:10;" x1="270.771" y1="291.902" x2="264.675" y2="297.997"/>
		</g>
	</g>
	<g>
		<g>
			<g>
				<path style="fill:#DACAFC;" d="M236.024,335.513c4.035,4.495,8.816,8.668,13.943,11.889c2.999,1.884,6.212,3.389,9.334,5.045
					c0.071,0.088,0.149,0.169,0.218,0.259c1.002,1.291,1.992,2.836,1.674,4.435c-0.378,1.905-2.438,2.983-4.346,3.393
					c-5.059,1.086-12.582,0.484-17.585-0.753c-10.444-2.584-20.684-7.098-27.948-15.24c-7.379-8.271-10.65-19.124-11.732-29.916
					c-1.135-11.323-1.855-21.595,2.601-32.481c1.305-3.188,2.983-6.319,5.573-8.601c2.59-2.282,6.237-3.598,9.584-2.724
					c3.041,0.794,5.428,3.281,6.729,6.127c1.301,2.846,1.646,6.03,1.722,9.156c0.201,8.266-0.054,13.786,0.628,22.09
					C227.197,317.646,229.759,328.535,236.024,335.513z"/>
				<path style="fill:#DACAFC;" d="M232.941,251.265c-1.87-2.38-4.664-8.466-1.605-11.058c0.465-0.394,1.055-0.603,1.639-0.778
					c1.875-0.562,3.823-0.857,5.696-1.428c2.87-0.875,6.422-2.189,7.11-5.371c0.585-2.708,0.179-5.516,0.553-8.245
					c-9.785-0.234-13.103-9.689-14.349-17.905c-0.666-4.39-0.536-8.384-0.127-12.717c0.47-4.978-0.226-9.825,0.738-14.844
					c0.126-0.657,0.292-1.358,0.791-1.803c0.504-0.449,1.227-0.531,1.899-0.587c6.176-0.519,12.425-0.717,18.544,0.267
					c5.21,0.837,14.265,2.661,16.488,8.175c2.693,6.678,3.026,14.02,2.616,21.116c-0.327,5.65-1.376,11.231-1.693,16.882
					c-0.213,3.799,0.113,8.227,2.184,11.545c0.941,1.508,2.11,2.794,3.717,3.617c2.048,1.048,3.483-0.032,5.074,1.811
					c1.417,1.643,2.374,4.396,1.906,6.538c-0.484,2.213-2.324,3.844-4.136,5.203c-4.978,3.736-10.545,6.686-16.432,8.706
					c-2.573,0.883-5.249,1.595-7.968,1.547c-3.611-0.064-7.049-1.457-10.38-2.853c-3.65-1.53-7.357-3.132-10.318-5.757
					C234.184,252.704,233.528,252.012,232.941,251.265z"/>
				<path style="fill:#FF9C40;" d="M323.844,280.383c-1.135-13.943-7.412-28.212-20.179-35.184
					c-7.803-4.262-16.273-5.51-24.798-7.506c-0.25-0.059-0.516-0.117-0.759-0.032c-0.333,0.116-0.519,0.459-0.681,0.771
					c-4.072,7.829-12.879,12.973-21.737,12.696c-9.207-0.288-16.241-5.883-21.08-13.209c-6.276,2.082-12.522,4.473-18.01,8.148
					c-17.907,11.995-19.05,37.278-21.363,56.655c2.419,0.075,28.656,4.417,28.499,3.645c0.786,3.869,0.089,3.267,0.246,7.127
					c0.29,7.124,0.82,14.236,1.459,21.337c0.728,8.081,1.976,16.02,3.788,23.88c18.416,6.099,39.43,4.613,59.178,2.842
					c5.631-0.505,11.473-1.075,16.342-3.932c13.701-8.038,14.284-31.791,16.24-45.616
					C322.501,301.311,324.733,291.304,323.844,280.383z"/>
				<path d="M185.952,418.396c-0.39-3.181,1.433-6.837,4.156-8.856c3.77-2.795,8.625-3.521,13.095-4.95
					c5.026-1.607,9.686-4.165,14.512-6.299c4.826-2.135,9.981-3.875,15.254-3.686c5.274,0.189,10.71,2.62,13.348,7.191
					c2.213,3.834,1.734,8.597-0.844,12.091c-2.633,3.567-5.73,2.789-9.839,3.24c-7.393,0.812-14.527,3.015-21.524,5.451
					c-7.499,2.611-12.899,3.663-20.873,1.909c-2.118-0.466-4.315-1.152-5.777-2.752C186.579,420.773,186.102,419.62,185.952,418.396
					z"/>
				<path style="fill:none;stroke:#FF9C40;stroke-linecap:round;stroke-linejoin:round;stroke-miterlimit:10;" d="M211.472,416.207
					c0.733,1.784,1.737,3.456,2.967,4.942c0.27,0.326,0.591,0.666,1.012,0.711c0.876,0.095,1.301-1.028,1.427-1.9
					c0.295-2.048,0.59-4.095,0.885-6.143c1.191,1.257,2.169,2.716,2.879,4.296c0.426,0.948,0.959,2.1,1.995,2.189
					c1.262,0.108,1.944-1.417,2.244-2.647c0.542-2.223,1.084-4.447,1.627-6.67"/>
				<path style="fill:#7A5CE0;" d="M139.328,337.514c4.031-4.439,9.77-7.312,15.658-8.409c8.26-1.538,16.792-0.047,24.895,2.172
					c17.167,4.701,33.265,12.626,50.522,17.036c7.652,1.955,12.641,1.23,20.12,0.63c9.482-0.761,19.217,0.168,28.758-0.393
					c8.918-0.525,18.569-1.211,26.903,1.232c1.101-0.719,2.198-1.44,3.292-2.154c9.325-6.084,18.613-12.143,30.307-9.927
					c9.194,1.742,18.059,6.378,23.754,13.905c6.05,7.996,4.234,18.436-1.187,26.408c-4.488,6.6-11.121,11.457-17.991,15.556
					c-23.699,14.138-49.584,22.803-77.551,20.872c-3.743-0.259-8.156-0.3-10.852,2.689c-1.014,1.124-1.602,7.285-3.852,7.019
					c-2.769-0.327-8.103-1.098-10.72-2.038c-14.131-5.077-28.263-10.154-42.394-15.23c-12.416-4.461-24.923-8.964-36.234-15.732
					c-9.783-5.853-18.644-13.771-23.839-24.028c-3.745-7.395-6.82-17.139-2.909-24.821
					C136.902,340.547,138.026,338.949,139.328,337.514z"/>
				<path style="fill:none;stroke:#000000;stroke-linecap:round;stroke-linejoin:round;stroke-miterlimit:10;" d="M314.725,358.769
					c-14.065,6.992-28.916,11.543-43.208,17.953c-5.368,2.407-10.736,4.814-16.104,7.222c-3.034,1.361-6.069,2.722-9.055,4.187"/>
				<path d="M300.424,427.98c-4.202-6.622-10.731-11.889-14.36-18.73c-0.77-1.451-1.458-2.985-2.609-4.16
					c-2.059-2.105-6.018-1.823-8.769-2.147c-3.757-0.444-7.514-0.887-11.271-1.331c-0.249-0.029-0.512-0.056-0.74,0.048
					c-0.006,0.003-0.009,0.01-0.015,0.013c-0.793,2.921-2.54,5.592-3.892,8.259c-0.796,1.57-3.124,7.446-3.44,8.378
					c1.54,1.155,4.885,2.226,7.001,3.015c4.509,1.682,9.131,3.43,12.727,6.629c2.653,2.36,4.604,5.387,6.616,8.313
					c2.012,2.926,4.176,5.846,7.106,7.851c2.93,2.005,6.795,2.968,10.095,1.658C306.023,442.939,303.528,432.871,300.424,427.98z"/>
				<path style="fill:#DACAFC;" d="M241.611,362.483c-1.024-0.515-1.803-1.429-2.412-3.163c-1.019-2.901-0.421-6.34,1.22-8.897
					c2.307-3.596,6.347-5.78,10.482-6.915c4.135-1.135,8.457-1.364,12.707-1.937c7.202-0.97,14.266-2.947,20.92-5.854
					c3.181-1.39,6.386-3.088,8.432-5.881c2.256-3.08,2.79-7.045,3.255-10.827c0.692-5.633,1.384-11.266,2.076-16.9
					c0.601-4.893,1.246-9.924,3.639-14.241c2.393-4.317,6.984-7.807,11.925-7.414c4.215,0.335,7.811,3.416,9.885,7.081
					c3.377,5.967,5.029,15.017,6.062,21.767c1.162,7.59,0.403,15.349-0.988,22.855c-1.808,9.758-7.259,18.071-16.058,22.953
					c-19.705,10.935-44.856,10.221-66.626,8.204C244.239,363.139,242.768,363.065,241.611,362.483z"/>
				<path d="M249.179,172.003c-2.372,0.187-4.764,0.21-7.141,0.159c-4.169-0.09-8.783-0.264-11.98,2.414
					c-2.082,1.744-3.186,4.587-2.826,7.279c0.36,2.692,2.171,5.145,4.638,6.281c6.586,3.033,19.643-6.514,23.134,1.976
					c1.373,3.34,0.86,6.169,3.531,9.012c2.154,2.292,5.002,3.185,6.143,6.437c0.889,2.536,1.293,5.315,2.876,7.571
					c0.405,0.577,0.868,1.11,1.331,1.643c0.823,0.947,1.611,1.901,2.5,2.78c3.237-2.315,7.309-1.64,9.541-5.947
					c0.464-0.895,0.794-1.886,1.487-2.618c1.556-1.644,4.613-1.66,5.499-3.743c0.855-2.011-1.083-4.164-1.013-6.348
					c0.082-2.56,2.865-4.452,2.869-7.014c0.006-3.46-4.729-4.944-5.955-8.18c-1.647-4.348,0.233-6.169-3.506-9.506
					c-6.693-5.972-15.396-5.788-23.495-3.5C254.321,171.403,251.762,171.8,249.179,172.003z"/>
				<path style="fill:none;stroke:#FF9C40;stroke-width:2;stroke-linecap:round;stroke-linejoin:round;stroke-miterlimit:10;" d="
					M253.533,199.127l8.154-2.208c1.067-0.289,2.208-0.035,3.052,0.68l3.377,2.863"/>
				<path style="fill:none;stroke:#000000;stroke-linecap:round;stroke-linejoin:round;stroke-miterlimit:10;" d="M177.826,345.077
					c15.909,7.155,28.712,19.585,43.197,29.281c13.527,9.055,28.504,15.707,43.396,22.313c-0.778,1.698-1.094,3.372-1.872,5.07"/>
				<path style="fill:none;stroke:#1C1C1B;stroke-linecap:round;stroke-linejoin:round;stroke-miterlimit:10;" d="M245.792,210.021
					c-0.951,3.086-4.743,4.96-7.79,3.85"/>
				<g>
					<path style="fill:#DACAFC;" d="M261.844,209.124c5.864,1.459,9.515-4.687,7.733-8.695c-2.481-5.578-10.347-4.652-11.786,1.211"
						/>
					<path style="fill:none;stroke:#1C1C1B;stroke-linecap:round;stroke-linejoin:round;stroke-miterlimit:10;" d="M264.846,199.957
						c-1.103-0.302-2.376-0.121-3.299,0.47c-0.923,0.591-1.471,1.574-1.419,2.549"/>
				</g>
				<path style="fill:#FF9C40;" d="M291.547,314.688c4.268-1.301,8.7-2.018,13.113-2.636c4.681-0.655,9.349-1.298,14.005-2.124
					c4.339-0.769,8.676-1.55,13.011-2.34c-0.387-3.617-0.808-7.231-1.313-10.834c-2.373-16.931-6.811-33.332-18.904-45.481
					l-21.907,20.002C291.826,280.289,291.556,306.204,291.547,314.688z"/>
				<g>
					<path d="M291.422,371.177h-90.193c-1.321,0-2.392-1.065-2.392-2.378l0,0c0-1.314,1.071-2.378,2.392-2.378h90.193
						c1.321,0,2.391,1.065,2.391,2.378l0,0C293.814,370.112,292.743,371.177,291.422,371.177z"/>
					<path d="M278.043,367.951h-78.937l-16.396-40.268c-0.534-1.311,0.436-2.743,1.859-2.743h74.61c0.817,0,1.552,0.493,1.859,1.246
						L278.043,367.951z"/>
					<path style="fill:#FFFFFF;" d="M222.067,346.472c0.839,2.181,3.67,3.95,6.323,3.95c2.653,0,4.123-1.768,3.284-3.95"/>
				</g>
				<path style="fill:#EE7273;stroke:#000000;stroke-linecap:round;stroke-linejoin:round;stroke-miterlimit:10;" d="
					M223.734,306.366c-0.667-9.426-0.626-23.163-0.053-32.595"/>
				<path d="M246.16,223.813l-0.206,0.497c0.205,1.393,0.106,2.782-0.116,4.169c0.345-0.087,0.691-0.17,1.031-0.274
					c3.102-0.955,5.671-3.473,6.97-6.432C251.497,223.061,248.835,223.768,246.16,223.813z"/>
			</g>
		</g>
		<path style="fill:#EE7273;stroke:#000000;stroke-linecap:round;stroke-linejoin:round;stroke-miterlimit:10;" d="M295.845,313.121
			c0.6-12.59-1.08-21.972-3.659-34.309"/>
		<path style="fill:none;stroke:#FF9C40;stroke-width:2;stroke-linecap:round;stroke-linejoin:round;stroke-miterlimit:10;" d="
			M238.129,198.922c0,3.29-2.667,5.956-5.956,5.956c-3.29,0-5.957-2.667-5.957-5.956c0-3.29,2.667-5.956,5.957-5.956
			C235.462,192.965,238.129,195.632,238.129,198.922z"/>
		<path style="fill:none;stroke:#FF9C40;stroke-width:2;stroke-linecap:round;stroke-linejoin:round;stroke-miterlimit:10;" d="
			M253.533,199.127c0,3.29-2.667,5.956-5.956,5.956c-3.29,0-5.956-2.667-5.956-5.956c0-3.29,2.667-5.956,5.956-5.956
			C250.866,193.171,253.533,195.837,253.533,199.127z"/>
		
			<line style="fill:none;stroke:#FF9C40;stroke-width:2;stroke-linecap:round;stroke-linejoin:round;stroke-miterlimit:10;" x1="238.129" y1="198.922" x2="241.62" y2="199.127"/>
		<path style="fill:none;stroke:#FF9C40;stroke-linecap:round;stroke-linejoin:round;stroke-miterlimit:10;" d="M267.736,416.499
			c-1.427,2.829-2.407,5.884-2.894,9.015c-0.045,0.291-0.081,0.61,0.075,0.86c0.283,0.453,0.965,0.373,1.46,0.172
			c2.92-1.19,4.84-4.598,7.986-4.825c-0.624,3.181-3.216,5.955-2.893,9.18c0.03,0.299,0.096,0.616,0.312,0.825
			c0.323,0.313,0.846,0.264,1.276,0.135c2.366-0.711,3.876-3.09,6.148-4.058c0.58-0.247,1.388-0.329,1.718,0.208
			c0.261,0.425,0.05,0.971-0.164,1.422c-1.012,2.134-2.024,4.267-3.036,6.401"/>
	</g>
	<g>
		<path style="fill:#7A5CE0;" d="M346.078,311.87c1.243,3.466,2.486,7.067,3.501,10.055c1.407,4.137,5.27,6.932,9.639,6.974
			l44.549,0.421c4.875,0.046,9.112-3.337,10.146-8.102l2.954-13.614c1.443-6.65-3.854-12.842-10.647-12.446l-51.062,2.975
			C348.304,298.532,343.761,305.406,346.078,311.87z"/>
		<path style="fill:#7A5CE0;" d="M396.545,274.252c-0.029,0.435-0.065,0.87-0.114,1.304c-0.378,3.366-1.59,6.498-3.548,9.26
			c-2.067,2.916-4.823,5.338-7.638,7.511c-5.182,4-11.139,7.445-17.423,9.474c-1.161,1.192-1.573,2.53,0.737,3.527
			c1.889,0.815,3.885,1.382,5.92,1.681c1.638,0.24,3.352,0.3,4.908-0.266c1.483-0.539,2.707-1.602,3.894-2.643
			c4.85-4.252,10.273-8.914,12.976-14.946c0.187-0.418,0.362-0.842,0.522-1.274C398.223,283.995,398.276,278.505,396.545,274.252z"
			/>
		<line style="fill:none;stroke:#1D1D1B;stroke-miterlimit:10;" x1="355.182" y1="309.35" x2="403.179" y2="307.935"/>
		<polyline style="fill:none;stroke:#1D1D1B;stroke-miterlimit:10;" points="357.435,319.367 364.063,314.013 370.058,318.805 
			378.488,313.371 384.155,318.9 393.274,312.712 398.973,318.963 404.454,312.214 		"/>
	</g>
	<g>
		<path style="fill:#7A5CE0;" d="M127.8,207.855h48.708c8.374,0,15.162,6.662,15.162,14.88v13.952
			c0,8.127-6.645,14.751-14.925,14.878l-45.409,0.696c-7.201,0.11-13.487-4.766-15.041-11.667l-3.299-14.648
			C110.904,216.658,118.108,207.855,127.8,207.855z"/>
		<path style="fill:#7A5CE0;" d="M163.589,230.199c-1.874,12.658,0.092,25.84,5.583,37.44
			c-14.119-4.527-23.301-20.488-19.958-34.691"/>
		<polyline style="fill:none;stroke:#1D1D1B;stroke-miterlimit:10;" points="125.781,229.41 132.976,224.207 139.035,229.41 
			148.123,224.207 153.803,230.153 163.648,224.207 169.328,230.896 175.387,224.207 		"/>
		<line style="fill:none;stroke:#1D1D1B;stroke-miterlimit:10;" x1="126.539" y1="237.958" x2="176.144" y2="236.471"/>
	</g>
	<g>
		<path style="fill:#7A5CE0;" d="M339.249,120.823l0.431,18.982c0.175,7.719,6.639,13.799,14.354,13.502l54.718-2.105
			c6.906-0.266,12.555-5.589,13.229-12.467l2.326-23.72c0.862-8.789-6.625-16.123-15.395-15.078l-57.475,6.842
			C344.363,107.621,339.087,113.701,339.249,120.823z"/>
		<path style="fill:#7A5CE0;" d="M358.176,162.535c-4.95,6.935-13.843,9.586-22.073,11.793c10.317,0.489,20.743-1.47,30.179-5.671
			c1.68-0.748,3.372-1.597,4.612-2.955c1.454-1.592,2.143-3.722,2.729-5.799c2.791-9.898,4.878-21.27,3.903-31.596
			c-0.737-7.803-7.194-16.813-15.107-6.738C355.051,130.949,366.99,150.188,358.176,162.535z"/>
		<polyline style="fill:none;stroke:#1D1D1B;stroke-miterlimit:10;" points="357.265,129.674 363.826,124.84 369.352,129.674 
			377.639,124.84 382.819,130.365 391.798,124.84 396.977,131.056 402.503,124.84 		"/>
		<line style="fill:none;stroke:#1D1D1B;stroke-miterlimit:10;" x1="356.575" y1="117.588" x2="405.611" y2="116.207"/>
		<line style="fill:none;stroke:#1D1D1B;stroke-miterlimit:10;" x1="356.92" y1="137.271" x2="405.265" y2="137.271"/>
	</g>
	<g>
		<polygon style="fill:#DACAFC;" points="162.663,89.453 152.303,68.734 115.75,89.453 		"/>
		<circle style="fill:#DACAFC;" cx="446.777" cy="211.18" r="9.324"/>
		<ellipse style="fill:#DACAFC;" cx="94.612" cy="377.603" rx="7.575" ry="7.619"/>
		<circle style="fill:#DACAFC;" cx="344.993" cy="72.878" r="7.252"/>
		<rect x="352.876" y="397.035" style="fill:#DACAFC;" width="39.771" height="16.418"/>
	</g>
	<g>
		<g>
			<rect x="41.135" y="263.848" style="fill:#B49EFF;" width="22.564" height="10.429"/>
			<rect x="68.617" y="263.848" style="fill:#B49EFF;" width="22.564" height="10.429"/>
			<rect x="51.058" y="246.237" style="fill:#B49EFF;" width="22.564" height="10.429"/>
			<rect x="56.641" y="280.559" style="fill:#B49EFF;" width="22.564" height="10.429"/>
			<rect x="65.707" y="230.624" style="fill:#B49EFF;" width="22.564" height="10.429"/>
		</g>
		<rect x="37.828" y="222.575" style="fill:none;stroke:#1D1D1B;stroke-miterlimit:10;" width="62.518" height="74.913"/>
	</g>
	<g>
		<g>
			<rect x="230.426" y="77.302" style="fill:#B49EFF;" width="23.394" height="9.733"/>
			<rect x="258.919" y="77.302" style="fill:#B49EFF;" width="23.394" height="9.733"/>
			<rect x="243.922" y="91.154" style="fill:#B49EFF;" width="23.394" height="9.733"/>
			<rect x="273.015" y="90.78" style="fill:#B49EFF;" width="23.394" height="9.733"/>
			<rect x="287.412" y="77.302" style="fill:#B49EFF;" width="23.394" height="9.733"/>
		</g>
		<rect x="226.959" y="69.312" style="fill:none;stroke:#1D1D1B;stroke-miterlimit:10;" width="91.811" height="41.678"/>
	</g>
	<g>
		<g>
			<rect x="431.321" y="363.528" style="fill:#B49EFF;" width="20.455" height="10.932"/>
			<rect x="406.478" y="363.863" style="fill:#B49EFF;" width="20.455" height="10.932"/>
			<rect x="380.039" y="364.537" style="fill:#B49EFF;" width="20.455" height="10.932"/>
			<rect x="418.768" y="347.893" style="fill:#B49EFF;" width="20.455" height="10.932"/>
			<rect x="393.319" y="348.171" style="fill:#B49EFF;" width="20.455" height="10.932"/>
		</g>
		<rect x="373.555" y="341.083" style="fill:none;stroke:#1D1D1B;stroke-miterlimit:10;" width="86.617" height="41.678"/>
	</g>
	<g>
		
			<polygon style="fill:none;stroke:#FF9C40;stroke-width:2;stroke-linecap:round;stroke-linejoin:round;stroke-miterlimit:10;" points="
			439.784,190.978 442.892,164.043 406.339,184.762 		"/>
		
			<polygon style="fill:none;stroke:#FF9C40;stroke-width:2;stroke-linecap:round;stroke-linejoin:round;stroke-miterlimit:10;" points="
			83.331,390.281 116.23,409.731 133.057,390.281 		"/>
		<path style="fill:none;stroke:#FF9C40;stroke-width:2;stroke-linecap:round;stroke-linejoin:round;stroke-miterlimit:10;" d="
			M173.022,77.337c0-5.628,4.87-10.19,10.878-10.19s10.878,4.562,10.878,10.19"/>
		
			<rect x="47.905" y="194.665" style="fill:none;stroke:#FF9C40;stroke-width:2;stroke-linecap:round;stroke-linejoin:round;stroke-miterlimit:10;" width="28.331" height="17.033"/>
		<path style="fill:none;stroke:#FF9C40;stroke-width:2;stroke-linecap:round;stroke-linejoin:round;stroke-miterlimit:10;" d="
			M434.138,315.742c3.54,0,6.409,2.869,6.409,6.409c0,3.54-2.869,6.409-6.409,6.409"/>
		<path style="fill:none;stroke:#FF9C40;stroke-width:2;stroke-linecap:round;stroke-linejoin:round;stroke-miterlimit:10;" d="
			M307.884,159.027c3.814,0,6.906,3.092,6.906,6.906c0,3.814-3.092,6.906-6.906,6.906"/>
	</g>
</g>
</svg>
