<?xml version="1.0" encoding="utf-8"?>
<!-- Generator: Adobe Illustrator 27.5.0, SVG Export Plug-In . SVG Version: 6.00 Build 0)  -->
<svg version="1.1" xmlns="http://www.w3.org/2000/svg" xmlns:xlink="http://www.w3.org/1999/xlink" x="0px" y="0px"
	 viewBox="0 0 500 500" style="enable-background:new 0 0 500 500;" xml:space="preserve">
<g id="BACKGROUND">
	<rect style="fill:#F0F0D3;" width="500" height="500"/>
</g>
<g id="OBJECTS">
	<g>
		<g>
			<g>
				<rect x="24.686" y="29.261" style="fill:#FBFFF7;" width="160.619" height="211.569"/>
				<path style="fill:#FF5549;" d="M156.981,65.1l-3.72,6.93l-36.41,67.86c-0.23,0.42-0.63,0.71-1.1,0.78
					c-0.47,0.07-0.94-0.09-1.28-0.42l-17.16-17.05l-42.5,83.58c-0.27,0.52-0.8,0.82-1.34,0.82c-0.23,0-0.46-0.06-0.68-0.17
					c-0.74-0.37-1.03-1.28-0.66-2.02l43.44-85.4c0.22-0.43,0.63-0.73,1.1-0.8c0.48-0.08,0.96,0.08,1.3,0.42l17.19,17.07l35.36-65.9
					l3.56-6.64l2.6-1.67L156.981,65.1z"/>
				<polygon style="fill:#FF5549;" points="158.021,74.16 153.261,72.03 150.521,70.8 146.531,69.02 154.081,64.16 156.681,62.49 
					156.981,65.1 				"/>
				<path style="fill:#007BB3;" d="M129.331,48.648l-2.397,7.491l-23.458,73.351c-0.15,0.455-0.49,0.813-0.94,0.967
					c-0.449,0.154-0.941,0.083-1.335-0.18l-19.975-13.644L54.639,206.55c-0.171,0.561-0.638,0.952-1.169,1.05
					c-0.226,0.042-0.463,0.025-0.699-0.044c-0.795-0.229-1.246-1.071-1.017-1.866l27.18-91.877c0.138-0.463,0.487-0.832,0.936-0.987
					c0.457-0.166,0.959-0.096,1.355,0.176l20.008,13.658l22.782-71.233l2.293-7.177l2.253-2.115L129.331,48.648z"/>
				<polygon style="fill:#007BB3;" points="132.002,57.368 126.934,56.139 124.016,55.429 119.769,54.404 126.309,48.252 
					128.562,46.137 129.331,48.648 				"/>
				<path style="fill:#CACAB1;" d="M37.698,37.191c0,2.426-1.967,4.393-4.393,4.393s-4.393-1.967-4.393-4.393
					c0-2.426,1.967-4.393,4.393-4.393S37.698,34.765,37.698,37.191z"/>
				<path style="fill:#CACAB1;" d="M172.293,37.191c0,2.426,1.967,4.393,4.393,4.393c2.426,0,4.393-1.967,4.393-4.393
					c0-2.426-1.967-4.393-4.393-4.393C174.26,32.799,172.293,34.765,172.293,37.191z"/>
				<circle style="fill:#CACAB1;" cx="33.305" cy="232.9" r="4.393"/>
				<circle style="fill:#CACAB1;" cx="176.686" cy="232.9" r="4.393"/>
			</g>
			<g>
				<g>
					<circle style="fill:#FF5549;" cx="419.587" cy="83.45" r="59.199"/>
					<circle style="fill:#FBFFF7;" cx="419.587" cy="83.45" r="44.648"/>
					<path style="fill:#51513A;" d="M422.241,84.165h-5.308c-0.289,0-0.523-0.234-0.523-0.523V54.948
						c0-1.755,1.422-3.177,3.177-3.177h0c1.755,0,3.177,1.423,3.177,3.177v28.694C422.765,83.931,422.53,84.165,422.241,84.165z"/>
					<path style="fill:#000235;" d="M422.112,82.36l-4.154,3.302c-0.226,0.18-0.555,0.142-0.735-0.084l-11.675-14.692
						c-1.091-1.373-0.863-3.371,0.51-4.463l0,0c1.374-1.092,3.372-0.863,4.464,0.51l11.675,14.692
						C422.376,81.851,422.339,82.18,422.112,82.36z"/>
					<circle style="fill:#FF5549;" cx="419.587" cy="83.45" r="4.379"/>
				</g>
				<path style="fill:#FF5549;" d="M368.968,33.805c-0.303,0-0.602-0.137-0.798-0.396l-12.867-16.987
					c-0.334-0.44-0.247-1.068,0.193-1.401c0.44-0.335,1.067-0.246,1.4,0.193l12.867,16.987c0.334,0.44,0.247,1.068-0.193,1.401
					C369.39,33.739,369.178,33.805,368.968,33.805z"/>
				<path style="fill:#FF5549;" d="M358.768,39.982c-0.189,0-0.38-0.053-0.55-0.165l-17.789-11.734
					c-0.461-0.304-0.588-0.924-0.284-1.386c0.305-0.461,0.924-0.588,1.386-0.284l17.789,11.734c0.461,0.304,0.588,0.924,0.284,1.386
					C359.411,39.825,359.093,39.982,358.768,39.982z"/>
				<path style="fill:#FF5549;" d="M352.72,49.734c-0.059,0-0.117-0.005-0.177-0.016l-20.978-3.754
					c-0.544-0.097-0.906-0.617-0.809-1.161c0.098-0.544,0.613-0.907,1.16-0.808l20.977,3.754c0.544,0.097,0.906,0.617,0.809,1.161
					C353.616,49.395,353.195,49.734,352.72,49.734z"/>
				<path style="fill:#FF5549;" d="M486.944,146.065c-0.216,0-0.433-0.069-0.616-0.213l-16.774-13.143
					c-0.435-0.34-0.511-0.969-0.17-1.404c0.341-0.436,0.969-0.512,1.404-0.17l16.774,13.143c0.435,0.34,0.511,0.969,0.17,1.404
					C487.535,145.934,487.241,146.065,486.944,146.065z"/>
				<path style="fill:#FF5549;" d="M475.27,160.996c-0.331,0-0.654-0.164-0.845-0.463l-11.441-17.979
					c-0.297-0.466-0.159-1.085,0.307-1.381c0.468-0.298,1.085-0.159,1.381,0.307l11.441,17.979c0.297,0.466,0.159,1.085-0.307,1.381
					C475.64,160.946,475.454,160.996,475.27,160.996z"/>
				<path style="fill:#FF5549;" d="M457.388,169.943c-0.482,0-0.906-0.349-0.986-0.84l-3.41-21.036
					c-0.088-0.545,0.282-1.059,0.827-1.148c0.555-0.089,1.059,0.283,1.147,0.827l3.41,21.036c0.088,0.545-0.282,1.059-0.827,1.147
					C457.494,169.939,457.44,169.943,457.388,169.943z"/>
			</g>
		</g>
		<polygon style="fill:#51513A;" points="500,262.82 500,500 0,500 0,395.93 316.796,311.592 		"/>
		<g>
			<g>
				<path style="fill:#007BB3;" d="M371.68,296.98l-32.11,8.55l-33.32-36.7l-3.06,46.38l-59.12,15.74l-28.88,7.69l-6.25,1.66
					l-101.41,27l-46.2-22.46c0,0,0.31-114.31,16.91-149.07c16.59-34.76,68.19-60.99,142.09-66.07
					c73.9-5.07,110.55,28.69,119.57,55.67C347.19,207.21,365.12,272.79,371.68,296.98z"/>
				<polygon style="fill:#000235;" points="247.94,310.06 244.07,330.95 208.94,340.3 207.94,337.97 198.82,316.85 200.23,305.54 
					201.08,298.74 206.32,256.69 207.17,249.83 212.42,207.7 213.29,200.71 216.83,172.3 227.7,172.03 229.8,186.35 230.69,192.4 
					235.46,224.97 236.38,231.24 241.04,262.99 242,269.56 246.5,300.21 247.52,307.22 				"/>
				<path style="fill:#002367;" d="M230.69,192.4c-5.82,5.41-11.97,10.45-18.27,15.3l0.87-6.99c2.86-2.27,5.68-4.59,8.44-6.98
					c2.75-2.39,5.46-4.84,8.07-7.38L230.69,192.4z"/>
				<path style="fill:#002367;" d="M236.38,231.24c-9.21,9.38-19.54,17.59-30.06,25.45l0.85-6.86c4.96-3.78,9.84-7.65,14.56-11.73
					c4.79-4.15,9.41-8.5,13.73-13.13L236.38,231.24z"/>
				<path style="fill:#002367;" d="M242,269.56c-0.89,1.02-1.8,2.03-2.73,3.03c-10.15,10.9-21.85,20.2-33.77,29.07
					c-1.75,1.3-3.51,2.59-5.27,3.88l0.85-6.8c7.06-5.21,14.02-10.54,20.65-16.28c6.92-5.99,13.49-12.42,19.31-19.47L242,269.56z"/>
				<path style="fill:#002367;" d="M247.52,307.22c-2.58,3.37-5.35,6.61-8.25,9.73c-7.38,7.93-15.57,15.01-24.08,21.69l-6.25,1.66
					l-1-2.33c4.7-3.59,9.32-7.27,13.79-11.15c9.18-7.95,17.76-16.68,24.77-26.61L247.52,307.22z"/>
				<path d="M208.473,152.329c0.111-0.983,28.934-0.281,28.934-0.281s-4.598,16.982-9.705,19.986l-10.874,0.262
					C216.828,172.296,206.491,169.889,208.473,152.329z"/>
				<path style="fill:#00A2E0;" d="M189.19,135.098c-0.474,0.326,7.088,47.799,7.088,47.799l22.355-31.26
					C218.633,151.637,197.914,129.1,189.19,135.098z"/>
				<path style="fill:#00A2E0;" d="M254.089,135.423c0.47,0.33-7.567,47.726-7.567,47.726l-22.04-31.483
					C224.482,151.666,245.426,129.338,254.089,135.423z"/>
				<path style="fill:#00A2E0;" d="M254.595,228.947c-0.244,0-0.459-0.18-0.494-0.43c-0.039-0.273,0.151-0.526,0.425-0.565
					l40.431-5.754c0.266-0.042,0.526,0.151,0.565,0.425c0.039,0.273-0.151,0.526-0.425,0.566l-40.431,5.754
					C254.643,228.946,254.618,228.947,254.595,228.947z"/>
				<path style="fill:#00A2E0;" d="M280.065,236.375c0,2.668-1.708,4.831-3.815,4.831s-3.815-2.163-3.815-4.831
					c0-2.668,1.708-4.831,3.815-4.831S280.065,233.706,280.065,236.375z"/>
			</g>
			<g>
				<path d="M194.134,109.27c0,0-2.741-37.828,3.7-46.416c6.441-8.588,33.586-13.342,45.548-12.422s26.071,11.042,29.138,19.937
					c3.067,8.895-7.245,28.13-7.245,28.13L194.134,109.27z"/>
				<path style="fill:#FF823B;" d="M191.735,134.193c0,0,8.81,16.484,15.063,20.179c6.253,3.695,30.836,4.263,38.225-2.132
					c7.389-6.395,17.068-29.104,18.23-36.92c1.162-7.816,5.543-29.497-0.904-33.79c-4.384-2.92-12.116-1.648-21.721-3.35
					c-10.082-1.787-18.534-9.706-26.673-6.589c-6.81,2.607-4.169,9.894-9.142,18.846c-3.714,6.685-17.646,19.369-19.508,32.254
					C184.673,127.061,190.475,129.226,191.735,134.193z"/>
				<path d="M223.642,101.284c2.249,0.696,4.704,1.027,6.944,0.304c2.24-0.723,4.186-2.701,4.309-5.052
					c0.018-0.339-0.019-0.718-0.272-0.945c-0.36-0.322-0.919-0.157-1.378-0.006c-3.679,1.212-7.724,0.291-11.323-1.14
					c-1.394-0.554-2.768-1.187-4.231-1.522c-1.03-0.235-2.117-0.238-2.777,0.71c-0.66,0.948-0.208,1.724,0.472,2.508
					c1.362,1.569,3.082,2.827,4.92,3.78C221.375,100.475,222.494,100.928,223.642,101.284z"/>
				<path d="M227.444,109.177c-2.929-3.728-7.518-4.046-11.996-2.841c-1.241,0.334-1.29,2.033,0,2
					c3.823-0.097,7.606,0.775,10.986,2.568C227.571,111.507,228.24,110.191,227.444,109.177z"/>
				<path d="M251.072,104.64c-2.346-0.202-4.745-0.82-6.548-2.334c-1.803-1.514-2.86-4.08-2.089-6.304
					c0.111-0.321,0.288-0.659,0.607-0.773c0.455-0.163,0.911,0.201,1.279,0.514c2.952,2.508,7.046,3.18,10.92,3.21
					c1.501,0.012,3.012-0.057,4.493,0.184c1.043,0.17,2.051,0.577,2.306,1.703c0.254,1.127-0.457,1.676-1.382,2.146
					c-1.853,0.94-3.92,1.458-5.982,1.648C253.477,104.745,252.27,104.743,251.072,104.64z"/>
				<path d="M243.785,110.629c3.703-2.96,8.243-2.221,12.328-0.024c1.132,0.609,0.791,2.274-0.457,1.947
					c-3.699-0.968-7.582-0.984-11.283-0.011C243.129,112.868,242.778,111.434,243.785,110.629z"/>
				<path style="fill:#91320A;" d="M239.389,122.283c-0.085-0.521-0.185-1.039-0.268-1.56c-0.696-4.409-0.868-8.892-0.563-13.343
					c0.044-0.642-0.956-0.64-1,0c-0.264,3.849-0.167,7.718,0.309,11.547c0.111,0.89,0.239,1.779,0.388,2.663
					c0.04,0.234,0.105,0.484,0.126,0.72c0.03,0.347,0.05,0.461-0.267,0.624c-0.392,0.202-0.964,0.249-1.396,0.296
					c-1.839,0.201-3.675-0.193-5.449-0.637c-0.624-0.156-0.891,0.808-0.266,0.964c1.931,0.483,3.939,0.898,5.936,0.646
					c0.725-0.091,1.874-0.204,2.327-0.878C239.482,123.005,239.449,122.646,239.389,122.283z"/>
				<path style="fill:#91320A;" d="M236.598,131.488c-3.655-2.285-8.459-1.705-11.48,1.359c-0.905,0.917,0.509,2.333,1.414,1.414
					c2.412-2.446,6.148-2.865,9.057-1.047C236.683,133.899,237.688,132.169,236.598,131.488z"/>
			</g>
			<g>
				<path style="fill:#FF823B;" d="M99.109,190.936c0,0,17.161-64.291,22.284-73c5.123-8.709,27.44-32.177,39.73-39.439
					c9.048-5.347,19.027-10.465,24.931-9.992c2.115,0.17,4.444,3.386,4.898,4.358c1.517,3.243,0,6.89,0,6.89
					s10.69-3.823,16.211,5.225c5.521,9.048,5.828,10.122,3.374,14.109c-2.454,3.987-27.145,25.611-27.145,25.611
					s25.938-9.662,28.612-8.128c2.674,1.534,2.842,5.236,1.836,7.23c-1.007,1.994-33.821,19.915-33.821,19.915
					s-2.76,23.771-21.01,31.899l-2.729,15.322H99.109z"/>
				<path style="fill:#91320A;" d="M180.019,144.214c-0.177,0-0.349-0.094-0.439-0.26c-0.132-0.243-0.043-0.546,0.199-0.679
					c12.525-6.84,32.728-18.239,33.618-19.707c0.918-1.818,0.74-5.2-1.641-6.565c-1.796-1.025-18.246,4.459-28.189,8.163
					c-0.257,0.094-0.546-0.035-0.643-0.294c-0.096-0.259,0.036-0.546,0.295-0.643c4.368-1.627,26.296-9.662,29.035-8.093
					c3.004,1.723,3.109,5.758,2.033,7.889c-1.024,2.029-28.525,17.123-34.028,20.128C180.182,144.195,180.1,144.214,180.019,144.214
					z"/>
				<path style="fill:#91320A;" d="M183.393,125.198c-0.139,0-0.277-0.058-0.376-0.171c-0.182-0.208-0.161-0.524,0.046-0.705
					c0.247-0.216,24.663-21.62,27.049-25.498c2.307-3.748,2.086-4.637-3.375-13.586c-5.249-8.601-15.513-5.051-15.616-5.015
					c-0.26,0.094-0.546-0.043-0.639-0.302c-0.093-0.26,0.042-0.546,0.302-0.639c0.111-0.04,11.139-3.853,16.807,5.436
					c5.466,8.957,6.007,10.351,3.373,14.631c-2.465,4.005-26.231,24.84-27.241,25.725
					C183.627,125.157,183.51,125.198,183.393,125.198z"/>
				<path style="fill:#00A2E0;" d="M168.16,188.15c0,0-1.81,18.61-4.74,43.95c-0.08,0.66-0.15,1.32-0.23,1.99
					c-5.72,49.14-15.43,121.81-24.2,134.86c-13.46,20.05-72.97,27.56-77.66-24.11c0,0,5.081-29.346,11.537-63.124
					c3.357-17.564,7.085-36.327,10.663-52.786c0.15-0.66,0.3-1.32,0.44-1.97c4.21-19.16,8.18-34.93,11.06-41.59
					C95.03,185.37,155.61,185.83,168.16,188.15z"/>
				<path style="fill:#007BB3;" d="M163.42,232.1c-0.08,0.66-0.15,1.32-0.23,1.99l-79.66-5.16c0.15-0.66,0.3-1.32,0.44-1.97
					L163.42,232.1z"/>
				<path style="fill:#007BB3;" d="M159.657,212.546c-0.388,3.558-2.812,6.212-5.414,5.928c-2.602-0.284-4.397-3.398-4.009-6.956
					c0.388-3.558,2.812-6.212,5.414-5.928C158.251,205.874,160.045,208.988,159.657,212.546z"/>
				<path style="fill:#007BB3;" d="M155.376,251.795c-0.388,3.558-2.812,6.212-5.414,5.928c-2.602-0.284-4.397-3.398-4.009-6.956
					c0.388-3.558,2.812-6.212,5.414-5.928C153.97,245.123,155.764,248.237,155.376,251.795z"/>
				<path style="fill:#91320A;" d="M149.67,104.6c-0.126,0-0.252-0.047-0.35-0.143c-0.197-0.193-0.2-0.51-0.007-0.707
					c11.637-11.881,40.085-23.892,41.401-24.443c0.138-0.078,0.308-0.091,0.46-0.017c0.248,0.121,0.356,0.411,0.235,0.659
					c-0.053,0.109-0.155,0.216-0.268,0.263c-0.292,0.122-29.403,12.281-41.114,24.238C149.929,104.55,149.8,104.6,149.67,104.6z"/>
				<path style="fill:#91320A;" d="M162.831,115.74c-0.153,0-0.305-0.07-0.402-0.203c-0.165-0.222-0.118-0.535,0.104-0.699
					c0.288-0.213,28.922-21.339,45.025-29.296c0.248-0.123,0.548-0.021,0.67,0.227c0.123,0.247,0.021,0.548-0.227,0.67
					c-16.024,7.918-44.587,28.992-44.874,29.204C163.038,115.709,162.934,115.74,162.831,115.74z"/>
				<path style="fill:#91320A;" d="M177.508,128.851c-0.167,0-0.331-0.084-0.425-0.236c-0.146-0.234-0.074-0.543,0.161-0.688
					l5.885-3.653c0.234-0.146,0.542-0.073,0.688,0.161c0.146,0.234,0.074,0.543-0.161,0.688l-5.885,3.653
					C177.689,128.827,177.598,128.851,177.508,128.851z"/>
			</g>
			<g>
				<path style="fill:#FF823B;" d="M288.982,136.411c0,0,2.491,25.106,25.818,34.747l42.512-17.374c0,0-8.735-34.456-10.871-39.503
					c-2.135-5.047-20.939-32.933-31.615-35.263c-10.676-2.329-34.538-4.495-38.808,4.434c0,0-6.463,0.593-8.253,3.475
					c-2.781,4.477-0.795,8.397-0.795,8.397s-4.111,0.582-6.111,5.291c-2,4.709,3.965,8.66,3.965,8.66s-4.946,0.844-6.187,5.965
					c-0.243,1.002,0.451,2.265,1.773,3.672C266.967,125.886,288.982,136.411,288.982,136.411z"/>
				<path style="fill:#91320A;" d="M260.41,119.412c-0.133,0-0.266-0.053-0.364-0.158c-1.549-1.648-2.169-2.999-1.895-4.132
					c0.947-3.909,3.97-5.48,5.57-6.05c-1.644-1.342-5.001-4.699-3.322-8.652c2.086-4.913,6.322-5.565,6.501-5.591
					c0.276-0.04,0.524,0.151,0.564,0.424c0.039,0.272-0.15,0.526-0.423,0.566c-0.156,0.023-3.864,0.617-5.723,4.992
					c-1.811,4.268,3.726,8.01,3.781,8.048c0.171,0.113,0.254,0.319,0.212,0.519c-0.042,0.2-0.202,0.355-0.403,0.39
					c-0.189,0.033-4.64,0.863-5.785,5.59c-0.184,0.757,0.387,1.867,1.65,3.211c0.19,0.201,0.18,0.518-0.022,0.707
					C260.656,119.367,260.533,119.412,260.41,119.412z"/>
				<path style="fill:#91320A;" d="M317.47,99.64c-0.147,0-0.293-0.065-0.392-0.189c-8.859-11.161-40.802-15.463-41.124-15.505
					c-0.273-0.036-0.466-0.287-0.431-0.561c0.036-0.275,0.29-0.469,0.562-0.431c1.329,0.174,32.665,4.398,41.776,15.875
					c0.172,0.216,0.136,0.531-0.081,0.703C317.688,99.604,317.579,99.64,317.47,99.64z"/>
				<path style="fill:#91320A;" d="M311.19,112.44c-0.125,0-0.251-0.047-0.348-0.141c-11.003-10.669-43.63-16.429-43.958-16.486
					c-0.273-0.047-0.455-0.306-0.407-0.578c0.047-0.272,0.311-0.455,0.577-0.407c1.353,0.235,33.262,5.872,44.483,16.754
					c0.198,0.192,0.203,0.509,0.012,0.707C311.451,112.389,311.321,112.44,311.19,112.44z"/>
				<path style="fill:#91320A;" d="M293.67,121.87c-0.099,0-0.198-0.029-0.285-0.089c-9.031-6.276-27.17-11.588-28.61-12.004
					c-0.26,0.03-0.478-0.145-0.528-0.401c-0.053-0.271,0.137-0.534,0.407-0.587c0.032-0.006,0.135-0.019,0.167-0.019
					c0.046,0,0.092,0.006,0.137,0.019c0.193,0.055,19.499,5.569,28.998,12.17c0.227,0.158,0.283,0.469,0.125,0.696
					C293.983,121.795,293.828,121.87,293.67,121.87z"/>
				<path style="fill:#00A2E0;" d="M416.18,313.24c-14.349,19.905-37.398,26.43-60.135-3.388c-7.1-9.311-14.17-22.165-20.935-39.262
					c-9.19-23.24-16.46-41.5-22.07-55.56c-0.25-0.63-0.5-1.24-0.74-1.85c-11.2-28.03-15.56-38.65-15.56-38.65
					s55.28-23.82,72.95-30.35c0,0,7.06,15.45,15.87,37.11c0.24,0.61,0.5,1.23,0.75,1.86C404.24,227.47,428.64,295.94,416.18,313.24z
					"/>
				<path style="fill:#007BB3;" d="M386.31,183.15l-73.27,31.88c-0.25-0.63-0.5-1.24-0.74-1.85l73.26-31.89
					C385.8,181.9,386.06,182.52,386.31,183.15z"/>
				<path style="fill:#007BB3;" d="M313.877,195.299c1.282,3.341,4.303,5.29,6.746,4.352c2.444-0.938,3.385-4.407,2.103-7.748
					c-1.282-3.342-4.303-5.29-6.746-4.353C313.536,188.489,312.595,191.958,313.877,195.299z"/>
				<path style="fill:#007BB3;" d="M324.663,228.658c1.282,3.341,4.302,5.29,6.746,4.352c2.444-0.938,3.386-4.407,2.103-7.748
					c-1.282-3.342-4.303-5.29-6.746-4.352C324.323,221.847,323.381,225.316,324.663,228.658z"/>
			</g>
		</g>
		<g>
			<g>
				<g>
					<polygon style="fill:#F0F0D3;" points="490.66,468.55 467.62,500 280.89,500 320.49,462.84 338.93,445.53 					"/>
					<path style="fill:#FF5549;" d="M421.59,475.9c-4.26-6.53-15.4-6.85-24.84-0.7c-9.44,6.14-13.67,16.45-9.42,22.99
						c0.44,0.67,0.95,1.28,1.53,1.81h3.39c-1.33-0.7-2.43-1.67-3.24-2.9c-3.65-5.61,0.31-14.68,8.83-20.23
						c4.23-2.75,8.8-4.12,12.77-4.12c4.04,0,7.46,1.41,9.3,4.24c3.65,5.61-0.32,14.68-8.83,20.22c-1.82,1.19-3.71,2.12-5.59,2.79
						h4.81c0.63-0.34,1.25-0.71,1.87-1.11C421.61,492.74,425.84,482.43,421.59,475.9z"/>
					<path style="fill:#51513A;" d="M393.949,493.935c-0.231,0-0.464-0.08-0.653-0.243c-0.418-0.36-0.465-0.992-0.103-1.41
						l14.983-17.369c0.359-0.419,0.991-0.464,1.41-0.104c0.418,0.36,0.465,0.992,0.104,1.41l-14.983,17.369
						C394.509,493.817,394.229,493.935,393.949,493.935z"/>
					<path style="fill:#51513A;" d="M401.44,496.727c-0.231,0-0.464-0.08-0.653-0.243c-0.418-0.36-0.465-0.992-0.103-1.41
						l14.983-17.369c0.359-0.419,0.991-0.465,1.41-0.104c0.418,0.36,0.465,0.992,0.104,1.41l-14.983,17.369
						C402,496.609,401.721,496.727,401.44,496.727z"/>
					<path style="fill:#51513A;" d="M434.611,495.717c-0.083,0-0.166-0.01-0.249-0.031c-0.535-0.138-0.857-0.683-0.721-1.217
						c0.58-2.26,1.75-4.332,3.385-5.994c0.389-0.396,0.877-0.819,1.543-0.96c1.432-0.297,2.318,0.757,2.972,1.528
						c0.361,0.426,0.734,0.866,1.087,0.998c0.473,0.173,1.107-0.204,1.466-0.65c0.365-0.451,0.619-1.031,0.888-1.646
						c0.114-0.259,0.228-0.518,0.351-0.772c1.19-2.464,3.19-4.261,5.486-4.928c1.442-0.419,2.773-0.224,3.648,0.536
						c0.651,0.565,0.957,1.335,1.227,2.015c0.272,0.688,0.46,1.112,0.757,1.219c0.304,0.104,0.814-0.127,1.446-0.656
						c1.276-1.069,2.404-2.302,3.35-3.664c0.315-0.453,0.937-0.566,1.392-0.251c0.453,0.314,0.566,0.938,0.251,1.392
						c-1.047,1.509-2.295,2.874-3.709,4.057c-0.46,0.386-1.855,1.551-3.401,1.007c-1.172-0.418-1.6-1.498-1.944-2.365
						c-0.203-0.512-0.396-0.995-0.679-1.242c-0.348-0.303-1.013-0.348-1.778-0.126c-1.728,0.502-3.314,1.952-4.244,3.878
						c-0.112,0.232-0.216,0.469-0.319,0.705c-0.31,0.708-0.631,1.44-1.165,2.1c-0.82,1.014-2.289,1.798-3.719,1.267
						c-0.843-0.315-1.412-0.986-1.914-1.579c-0.472-0.555-0.8-0.911-1.032-0.864c-0.167,0.035-0.432,0.304-0.531,0.405
						c-1.388,1.411-2.381,3.171-2.873,5.088C435.463,495.417,435.057,495.717,434.611,495.717z"/>
					<path style="fill:#51513A;" d="M440.79,481.692c-0.092,0-0.185-0.013-0.276-0.039c-0.531-0.151-0.838-0.705-0.686-1.236
						c0.52-1.816,1.938-3.369,3.7-4.053c1.764-0.683,3.856-0.49,5.465,0.504c0.47,0.29,0.615,0.905,0.325,1.376
						c-0.29,0.468-0.905,0.616-1.376,0.325c-1.086-0.67-2.502-0.799-3.691-0.34c-1.191,0.461-2.149,1.511-2.501,2.738
						C441.625,481.406,441.225,481.692,440.79,481.692z"/>
					<path style="fill:#FF5549;" d="M352.43,473.42c-0.097,0-0.195-0.014-0.293-0.044l-16.067-4.931
						c-0.528-0.162-0.825-0.722-0.663-1.249c0.162-0.527,0.72-0.825,1.249-0.663l16.067,4.931c0.528,0.162,0.825,0.722,0.663,1.249
						C353.254,473.144,352.857,473.42,352.43,473.42z"/>
					<path style="fill:#FF5549;" d="M358.831,475.415h-0.07c-0.553,0-1-0.447-1-1c0-0.553,0.447-1,1-1c0.553,0,1.035,0.447,1.035,1
						C359.796,474.968,359.384,475.415,358.831,475.415z"/>
					<path style="fill:#FF5549;" d="M361.307,466.914h-0.07c-0.553,0-1-0.447-1-1c0-0.553,0.447-1,1-1s1.035,0.447,1.035,1
						C362.272,466.467,361.86,466.914,361.307,466.914z"/>
					<path style="fill:#FF5549;" d="M356.877,464.914c-0.161,0-0.324-0.039-0.476-0.121l-14.778-8.004
						c-0.485-0.263-0.666-0.869-0.402-1.355c0.263-0.485,0.87-0.666,1.355-0.402l14.778,8.004c0.485,0.263,0.666,0.869,0.402,1.355
						C357.576,464.725,357.232,464.914,356.877,464.914z"/>
				</g>
				<g>
					<path style="fill:#F0F0D3;" d="M285.14,443.04c-0.19,0.18-2.39,5.15-5.53,12.4c-4.06,9.35-9.68,22.49-14.61,34.05
						c-0.35,0.83-0.7,1.64-1.04,2.45c-1.22,2.84-2.37,5.55-3.44,8.06H145.37c10.11-12.78,47.23-60.77,47.23-60.77
						S285.89,442.35,285.14,443.04z"/>
					<path style="fill:#51513A;" d="M230.446,454.97H196.92c-0.552,0-1-0.447-1-1c0-0.553,0.448-1,1-1h33.526c0.552,0,1,0.447,1,1
						C231.446,454.522,230.998,454.97,230.446,454.97z"/>
					<path style="fill:#51513A;" d="M223.03,466.866h-33.526c-0.552,0-1-0.447-1-1s0.448-1,1-1h33.526c0.552,0,1,0.447,1,1
						S223.582,466.866,223.03,466.866z"/>
					<path style="fill:#51513A;" d="M215.614,478.763h-33.526c-0.552,0-1-0.447-1-1s0.448-1,1-1h33.526c0.552,0,1,0.447,1,1
						S216.166,478.763,215.614,478.763z"/>
				</g>
				<g>
					<polygon style="fill:#FBFFF7;" points="348.14,500 217.95,500 215.49,494.88 210.68,484.88 207.74,478.76 206.78,476.76 
						203.69,470.32 221.29,466.87 223.9,466.36 279.61,455.44 310.48,449.39 320.49,462.84 					"/>
					<path style="fill:#51513A;" d="M245.13,500h-2.23l-8.77-18.26c-0.24-0.5-0.03-1.1,0.47-1.34c0.5-0.24,1.1-0.03,1.34,0.47
						L245.13,500z"/>
					<path style="fill:#51513A;" d="M257.58,500h-2.22l-9.67-20.14c-0.24-0.5-0.03-1.1,0.47-1.34c0.5-0.24,1.09-0.03,1.33,0.47
						L257.58,500z"/>
					<path style="fill:#51513A;" d="M269.42,500h-1.56c-0.05-0.05-0.09-0.11-0.12-0.18l-10.49-21.84c-0.24-0.5-0.03-1.1,0.46-1.34
						c0.5-0.24,1.1-0.03,1.34,0.47l10.49,21.84C269.71,499.3,269.65,499.71,269.42,500z"/>
					<path style="fill:#FF5549;" d="M306.857,467.974c0.52,2.437-5.88,5.867-14.294,7.661c-8.414,1.795-15.656,1.274-16.176-1.163
						c-0.52-2.437,5.88-5.867,14.294-7.661C299.095,465.017,306.337,465.537,306.857,467.974z"/>
				</g>
				<g>
					<polygon style="fill:#F0F0D3;" points="500,322.33 500,383.49 468.22,356.4 455.49,345.55 470.5,337.72 					"/>
					<path style="fill:#51513A;" d="M500,339.49v2.26l-18.5,9.77c-0.15,0.08-0.31,0.12-0.46,0.12c-0.36,0-0.71-0.19-0.89-0.53
						c-0.26-0.49-0.07-1.1,0.42-1.35L500,339.49z"/>
					<path style="fill:#51513A;" d="M500,352.25v2.25l-10.32,5.45c-0.14,0.08-0.3,0.12-0.46,0.12c-0.36,0-0.71-0.19-0.89-0.53
						c-0.25-0.49-0.07-1.1,0.42-1.35L500,352.25z"/>
					<path style="fill:#51513A;" d="M500,365v2.26l-2.13,1.12c-0.15,0.08-0.31,0.12-0.47,0.12c-0.36,0-0.7-0.19-0.88-0.53
						c-0.26-0.49-0.07-1.09,0.41-1.35L500,365z"/>
				</g>
			</g>
			<g>
				<g>
					<path style="fill:#FBFFF7;" d="M383.319,172.184v26.241c0,0,3.412-11.185,15.056-11.185h23.084
						c9.107,1.229,16.353-4.718,15.056-15.055c-0.518-4.126-1.68-7.927-4.413-10.659c-2.716-2.733-6.484-4.413-10.642-4.413h-23.084
						C390.058,157.112,383.319,163.867,383.319,172.184z"/>
					<g>
						<path style="fill:#00A2E0;" d="M401.934,172.44c0,1.252-1.015,2.268-2.268,2.268c-1.252,0-2.268-1.015-2.268-2.268
							c0-1.252,1.015-2.268,2.268-2.268C400.919,170.173,401.934,171.188,401.934,172.44z"/>
						<path style="fill:#00A2E0;" d="M412.185,172.44c0,1.252-1.015,2.268-2.268,2.268c-1.252,0-2.268-1.015-2.268-2.268
							c0-1.252,1.015-2.268,2.268-2.268C411.169,170.173,412.185,171.188,412.185,172.44z"/>
						<path style="fill:#00A2E0;" d="M422.435,172.44c0,1.252-1.015,2.268-2.268,2.268s-2.268-1.015-2.268-2.268
							c0-1.252,1.015-2.268,2.268-2.268S422.435,171.188,422.435,172.44z"/>
					</g>
				</g>
				<g>
					<g>
						<path style="fill:#FBFFF7;" d="M353.567,221.545v32.715c0,0,4.253-13.945,18.77-13.945h28.779
							c11.353,1.533,20.388-5.883,18.77-18.77c-0.646-5.144-2.095-9.882-5.502-13.289c-3.386-3.407-8.083-5.502-13.268-5.502
							h-28.779C361.968,202.754,353.567,211.176,353.567,221.545z"/>
					</g>
					<g>
						<g>
							<circle style="fill:#FF5549;" cx="373.947" cy="232.582" r="2.827"/>
						</g>
						<path style="fill:#FF5549;" d="M373.947,227.08L373.947,227.08c-1.495,0-2.706-1.212-2.706-2.706v-14.492
							c0-1.495,1.212-2.706,2.706-2.706l0,0c1.495,0,2.707,1.212,2.707,2.706v14.492C376.654,225.868,375.442,227.08,373.947,227.08
							z"/>
					</g>
					<g>
						<g>
							<circle style="fill:#FF5549;" cx="385.927" cy="232.582" r="2.827"/>
						</g>
						<path style="fill:#FF5549;" d="M385.927,227.08L385.927,227.08c-1.495,0-2.706-1.212-2.706-2.706v-14.492
							c0-1.495,1.212-2.706,2.706-2.706l0,0c1.495,0,2.707,1.212,2.707,2.706v14.492C388.633,225.868,387.421,227.08,385.927,227.08
							z"/>
					</g>
					<g>
						<g>
							<circle style="fill:#FF5549;" cx="397.906" cy="232.582" r="2.827"/>
						</g>
						<path style="fill:#FF5549;" d="M397.906,227.08L397.906,227.08c-1.495,0-2.707-1.212-2.707-2.706v-14.492
							c0-1.495,1.212-2.706,2.707-2.706l0,0c1.495,0,2.706,1.212,2.706,2.706v14.492C400.613,225.868,399.401,227.08,397.906,227.08
							z"/>
					</g>
				</g>
				<g>
					<path style="fill:#FBFFF7;" d="M290.602,309.63v26.241c0,0-3.412-11.185-15.055-11.185l-23.084,0
						c-8.317,0-15.055-6.739-15.055-15.055c0-4.159,1.68-7.927,4.413-10.659c2.716-2.733,6.484-4.413,10.642-4.413h23.084
						C283.864,294.557,290.602,301.313,290.602,309.63z"/>
					<g>
						<path style="fill:#00A2E0;" d="M271.988,309.886c0,1.252,1.015,2.268,2.268,2.268c1.253,0,2.268-1.015,2.268-2.268
							c0-1.253-1.015-2.268-2.268-2.268C273.003,307.618,271.988,308.633,271.988,309.886z"/>
						<path style="fill:#00A2E0;" d="M261.737,309.886c0,1.252,1.015,2.268,2.268,2.268c1.252,0,2.268-1.015,2.268-2.268
							c0-1.253-1.015-2.268-2.268-2.268C262.753,307.618,261.737,308.633,261.737,309.886z"/>
						<path style="fill:#00A2E0;" d="M251.487,309.886c0,1.252,1.015,2.268,2.268,2.268c1.252,0,2.268-1.015,2.268-2.268
							c0-1.253-1.015-2.268-2.268-2.268C252.502,307.618,251.487,308.633,251.487,309.886z"/>
					</g>
				</g>
			</g>
			<g>
				<path style="fill:#002367;" d="M297.61,430.63l-129.689-51.998c-1.12-0.449-1.022-2.065,0.144-2.376l57.116-15.204l64.81-17.252
					c1.192-0.317,2.444-0.328,3.641-0.033L427.99,376.93L297.61,430.63z"/>
				<polygon style="fill:#FBFFF7;" points="391.57,379.13 300.85,416.49 271.18,404.59 271.17,404.59 269.62,403.97 248.1,395.35 
					246.55,394.72 225.02,386.09 223.48,385.48 208.17,379.34 250.46,368.08 296.81,355.74 316.72,360.65 318.72,361.15 
					346.71,368.06 348.74,368.56 376.71,375.46 376.72,375.46 378.74,375.96 				"/>
				<polygon style="fill:#002367;" points="318.72,361.15 225.02,386.09 223.48,385.48 316.72,360.65 				"/>
				<polygon style="fill:#002367;" points="348.74,368.56 248.1,395.35 246.55,394.72 346.71,368.06 				"/>
				<polygon style="fill:#002367;" points="378.74,375.96 271.18,404.59 271.17,404.59 269.62,403.97 376.71,375.46 376.72,375.46 
									"/>
				<path style="fill:#000235;" d="M447.603,247.152L427.99,376.93l-130.38,53.7l22.703-150.226
					c0.217-1.436,1.265-2.606,2.668-2.979l58.453-15.56l63.673-16.949C446.501,244.545,447.819,245.725,447.603,247.152z"/>
				<path style="fill:#FF5549;" d="M390.089,353.621c-3.884,1.887-8.272,2.632-12.499,1.751c-4.344-0.906-9.177-3.545-10.024-10.685
					c-1.594-13.439,4.328-20.955,4.328-20.955s3.916,5.309,4.28,8.953c0,0,5.633-1.283,4.026-8.271
					c-1.057-4.594,1.489-13.666,6.044-18.221c0,0-0.796,5.018,3.253,9.455c4.725,5.177,3.502,14.206,3.502,14.206
					s4.524-3.091,4.405-11.817c0,0,4.72,6.413,5.321,14.38C403.288,339.862,400.387,348.62,390.089,353.621z"/>
				<path style="fill:#002367;" d="M363.383,299.736c-0.093,0-0.185-0.025-0.27-0.079c-0.232-0.148-0.301-0.457-0.151-0.69
					l11.037-17.275c0.148-0.234,0.458-0.3,0.69-0.151c0.232,0.148,0.301,0.457,0.151,0.69l-11.037,17.275
					C363.709,299.655,363.547,299.736,363.383,299.736z"/>
				<path style="fill:#002367;" d="M412.15,323.968c-0.093,0-0.186-0.025-0.27-0.079c-0.233-0.148-0.301-0.457-0.151-0.69
					l11.036-17.274c0.148-0.233,0.458-0.3,0.69-0.151c0.232,0.148,0.301,0.457,0.151,0.69l-11.036,17.274
					C412.477,323.887,412.314,323.968,412.15,323.968z"/>
				<path style="fill:#002367;" d="M333.454,364.878c-0.093,0-0.185-0.025-0.27-0.079c-0.232-0.148-0.301-0.457-0.151-0.69
					l11.037-17.275c0.148-0.234,0.459-0.3,0.69-0.151c0.233,0.148,0.301,0.457,0.151,0.69l-11.037,17.275
					C333.78,364.797,333.618,364.878,333.454,364.878z"/>
				<path style="fill:#002367;" d="M390.422,298.923c-0.093,0-0.186-0.025-0.27-0.079c-0.232-0.148-0.301-0.457-0.151-0.691
					l19.07-29.85c0.148-0.234,0.457-0.3,0.69-0.151c0.232,0.148,0.301,0.457,0.151,0.69l-19.07,29.85
					C390.748,298.842,390.586,298.923,390.422,298.923z"/>
				<path style="fill:#002367;" d="M337.111,392.652c-0.093,0-0.185-0.025-0.269-0.079c-0.232-0.148-0.301-0.457-0.151-0.69
					l19.07-29.85c0.148-0.233,0.458-0.301,0.69-0.151c0.232,0.148,0.301,0.457,0.151,0.69l-19.07,29.85
					C337.437,392.571,337.275,392.652,337.111,392.652z"/>
			</g>
			<g>
				<g>
					<path style="fill:#00A2E0;" d="M29.205,433.375v4.267c0,2.447,1.383,4.683,3.573,5.775l84.619,42.214
						c2.157,1.076,4.735,0.86,6.683-0.56l44.571-32.493c1.666-1.215,2.652-3.153,2.652-5.215v-3.919L29.205,433.375z"/>
					<path style="fill:#000235;" d="M95.798,412.043l-12.512-4.919c-0.704-0.277-1.491-0.251-2.175,0.072l-22.326,10.536
						l-28.008,13.217c-2.077,0.98-2.102,3.926-0.043,4.942l8.666,4.275l30.076-14.998L95.798,412.043z"/>
					<g>
						<polygon style="fill:#E3F6FF;" points="159.817,437.209 95.798,412.043 69.476,425.168 39.4,440.166 105.624,472.836 
							132.631,455.081 						"/>
						<path style="fill:#000235;" d="M169.562,441.039l-9.745-3.831l-27.186,17.872l-27.007,17.755l13.857,6.836
							c0.9,0.444,1.97,0.361,2.791-0.215l22.584-15.863l25.28-17.756C171.924,444.581,171.597,441.839,169.562,441.039z"/>
					</g>
					<ellipse style="fill:#FF5549;" cx="100.398" cy="439.869" rx="22.635" ry="15.122"/>
					<path style="fill:#FBFFF7;" d="M104.568,439.663c-0.155-1.328,0.58-2.717,1.766-3.335c0.785-0.409,1.709-0.489,2.588-0.381
						c0.726,0.09,1.456,0.312,2.023,0.774c0.976,0.795,1.306,2.22,0.975,3.434c-0.331,1.214-1.238,2.215-2.313,2.87
						c-1.075,0.654-2.312,0.995-3.549,1.225c-4.757,0.886-9.792,0.214-14.15-1.888c-1.764-0.851-3.506-2.028-4.308-3.815
						c-1.312-2.924,0.516-7.057,4.065-6.561c0.855,0.12,1.728,0.483,2.211,1.199c0.556,0.825,0.467,1.97-0.03,2.832
						c-0.497,0.862-1.339,1.475-2.227,1.923C91.617,437.941,98.552,442.061,104.568,439.663z"/>
				</g>
				<g>
					<path style="fill:#FBFFF7;" d="M24.288,448.594c-2.626-2.12-4.389-5.102-5.17-8.373c-0.83-3.479-0.447-7.13,0.78-10.467
						c0.72-1.958,1.743-3.793,2.964-5.482c0.378-0.522-0.49-1.022-0.864-0.505c-4.377,6.051-5.913,14.247-2.193,21.003
						c0.955,1.735,2.233,3.286,3.775,4.531C24.077,449.702,24.789,448.998,24.288,448.594z"/>
					<path style="fill:#FBFFF7;" d="M13.447,445.53c-2.235-2.529-3.477-5.763-3.701-9.119c-0.238-3.569,0.748-7.105,2.515-10.191
						c1.037-1.811,2.351-3.449,3.837-4.911c0.459-0.452-0.312-1.089-0.767-0.642c-5.325,5.237-8.206,13.062-5.665,20.345
						c0.652,1.871,1.654,3.612,2.966,5.097C13.054,446.588,13.873,446.013,13.447,445.53z"/>
					<path style="fill:#FBFFF7;" d="M71.016,405.085c2.129-2.618,5.117-4.371,8.391-5.141c3.482-0.818,7.131-0.422,10.465,0.817
						c1.956,0.727,3.787,1.756,5.471,2.983c0.521,0.38,1.024-0.486,0.508-0.862c-6.036-4.398-14.226-5.963-20.995-2.267
						c-1.739,0.949-3.293,2.222-4.544,3.759C69.909,404.871,70.61,405.585,71.016,405.085z"/>
					<path style="fill:#FBFFF7;" d="M69.232,397.458c1.986-2.729,4.876-4.639,8.104-5.582c3.433-1.003,7.098-0.803,10.493,0.256
						c1.992,0.621,3.875,1.551,5.623,2.686c0.54,0.351,0.996-0.54,0.461-0.888c-6.263-4.069-14.525-5.193-21.086-1.14
						c-1.685,1.041-3.17,2.395-4.336,3.997C68.115,397.302,68.853,397.978,69.232,397.458z"/>
					<path style="fill:#FBFFF7;" d="M78.53,478.592c-2.606,0.93-5.444-0.003-7.08-2.204c-0.725-0.975-1.349-2.061-2.362-2.773
						c-0.966-0.678-2.152-0.816-3.302-0.73c-2.27,0.169-5.225,1.315-6.585-1.228c-0.546-1.022-0.771-2.182-1.303-3.212
						c-0.561-1.085-1.464-1.832-2.62-2.22c-1.586-0.532-3.266-0.307-4.901-0.463c-1.531-0.146-3.525-0.927-3.511-2.762
						c0.005-0.644-0.995-0.644-1,0c-0.01,1.351,0.871,2.48,2.028,3.105c1.425,0.769,3.101,0.689,4.669,0.731
						c1.42,0.038,3.066,0.218,4.024,1.403c0.804,0.994,1.031,2.342,1.541,3.487c0.475,1.067,1.224,1.946,2.35,2.343
						c1.189,0.419,2.497,0.204,3.71,0.023c1.213-0.182,2.58-0.456,3.759,0.028c1.332,0.548,2.023,1.984,2.86,3.063
						c1.856,2.393,5.118,3.4,7.99,2.375C79.398,479.341,79.139,478.375,78.53,478.592z"/>
					<path style="fill:#FBFFF7;" d="M150.243,421.585c-1.054-2.559-3.646-4.042-6.378-3.784c-1.21,0.115-2.434,0.378-3.642,0.102
						c-1.15-0.263-2.047-1.052-2.753-1.963c-1.394-1.8-2.521-4.762-5.32-4.069c-1.125,0.278-2.137,0.889-3.259,1.182
						c-1.181,0.309-2.341,0.139-3.403-0.46c-1.457-0.822-2.415-2.22-3.625-3.331c-1.134-1.04-3.049-1.998-4.403-0.759
						c-0.475,0.435-1.145-0.308-0.67-0.743c0.997-0.913,2.425-1.014,3.664-0.572c1.526,0.544,2.588,1.842,3.668,2.979
						c0.979,1.03,2.215,2.132,3.736,2.051c1.276-0.069,2.43-0.802,3.622-1.19c1.11-0.361,2.265-0.393,3.313,0.177
						c1.107,0.603,1.824,1.718,2.501,2.741c0.677,1.023,1.389,2.222,2.538,2.774c1.299,0.623,2.828,0.174,4.19,0.074
						c3.02-0.223,5.952,1.526,7.113,4.345C151.38,421.727,150.489,422.182,150.243,421.585z"/>
				</g>
			</g>
			<g>
				<ellipse style="fill:#00A2E0;" cx="443.231" cy="429.441" rx="31.081" ry="10.468"/>
				<path style="fill:#E3F6FF;" d="M470.5,423.55c-0.09,2.44-0.28,4.32-0.38,5.25c-0.37,0.22-0.77,0.43-1.2,0.64
					c-1.6,0.79-3.51,1.5-5.67,2.11c-0.01,0-0.03,0.01-0.05,0.02c-1.14,0.32-2.35,0.62-3.62,0.88c-4.75,1-10.35,1.57-16.35,1.57
					s-11.6-0.57-16.35-1.58c-1.3-0.27-2.53-0.57-3.69-0.9c-2.15-0.61-4.06-1.31-5.65-2.1c-0.42-0.21-0.82-0.42-1.2-0.64
					c-0.1-0.92-0.29-2.81-0.38-5.25c-0.27-7.57,0.38-20.5,7.23-26.8c10.03-9.22,11.84-12.44,11.84-16.19
					c0-3.5-1.81-6.96-11.84-16.18c-10.03-9.23-6.77-32.69-6.77-32.69h53.62c0,0,3.27,23.46-6.76,32.69
					c-10.04,9.22-11.85,12.68-11.85,16.18c0,3.75,1.81,6.97,11.85,16.19C470.13,403.05,470.78,415.98,470.5,423.55z"/>
				<path style="fill:#00A2E0;" d="M474.31,328.68c0,5.79-13.91,10.47-31.08,10.47c-17.16,0-31.08-4.68-31.08-10.47
					c0-0.81,0.28-1.6,0.8-2.36c0,0,0,0,0-0.01c3.2-4.64,15.54-8.09,30.28-8.09c14.74,0,27.09,3.45,30.28,8.09c0,0.01,0,0.01,0,0.01
					C474.03,327.08,474.31,327.87,474.31,328.68z"/>
				<path style="fill:#007BB3;" d="M473.51,326.31c0,0.01,0,0.01,0,0.01c-3.19,4.64-15.53,8.1-30.28,8.1
					c-14.74,0-27.08-3.46-30.28-8.1c0,0,0,0,0-0.01c3.2-4.64,15.54-8.09,30.28-8.09C457.97,318.22,470.32,321.67,473.51,326.31z"/>
				<path style="fill:#FF823B;" d="M463.27,431.54c0,0-0.01,0-0.02,0.01c-0.01,0-0.03,0.01-0.05,0.02
					c-1.14,0.32-2.35,0.62-3.62,0.88c-4.75,1-10.35,1.57-16.35,1.57s-11.6-0.57-16.35-1.58c-1.3-0.27-2.53-0.57-3.69-0.9
					c0,0,1.01-28.9,20.04-28.9S463.27,431.54,463.27,431.54z"/>
				<path style="fill:#FF823B;" d="M461.4,353.82c-0.02,0.06-0.03,0.13-0.05,0.19c-2.3,8.06-7.29,17.42-18.12,17.42
					c-10.83,0-15.82-9.36-18.12-17.42c-0.02-0.06-0.03-0.13-0.05-0.19c0.19-1.02,8.26-1.84,18.17-1.84S461.21,352.8,461.4,353.82z"
					/>
				<path style="fill:#91320A;" d="M461.41,353.86c0,0.05-0.02,0.1-0.06,0.15c-0.74,0.97-8.57,1.73-18.12,1.73
					c-9.55,0-17.38-0.76-18.12-1.73c-0.04-0.05-0.06-0.1-0.06-0.15c0-0.01,0-0.03,0.01-0.04c0.19-1.02,8.26-1.84,18.17-1.84
					s17.98,0.82,18.17,1.84C461.41,353.83,461.41,353.85,461.41,353.86z"/>
				<path style="fill:#FF823B;" d="M444.909,380.053c0,2.536-0.752,4.592-1.679,4.592c-0.928,0-1.68-2.056-1.68-4.592
					c0-2.536,0.752-4.593,1.68-4.593C444.158,375.46,444.909,377.516,444.909,380.053z"/>
				<path style="fill:#FF823B;" d="M444.909,394.618c0,2.536-0.752,4.592-1.679,4.592c-0.928,0-1.68-2.056-1.68-4.592
					c0-2.537,0.752-4.593,1.68-4.593C444.158,390.025,444.909,392.081,444.909,394.618z"/>
			</g>
		</g>
	</g>
</g>
</svg>
