<?xml version="1.0" encoding="utf-8"?>
<!-- Generator: Adobe Illustrator 27.5.0, SVG Export Plug-In . SVG Version: 6.00 Build 0)  -->
<svg version="1.1" xmlns="http://www.w3.org/2000/svg" xmlns:xlink="http://www.w3.org/1999/xlink" x="0px" y="0px"
	 viewBox="0 0 500 500" style="enable-background:new 0 0 500 500;" xml:space="preserve">
<g id="BACKGROUND">
	<rect style="fill:#E3DEFF;" width="500" height="500"/>
	<path style="fill:#D6CEFF;" d="M326.513,111.024C222.159,145.656,124.99,202.085,42.161,276.433
		c-27.323,24.526-24.843,68.053,4.966,89.49c48.767,35.071,102.11,63.974,158.621,85.903
		c61.231,23.761,130.714-0.487,164.081-57.059c13.607-23.07,25.293-47.343,35.288-72.163
		c14.094-34.992,24.966-71.131,34.069-107.763c10.679-42.971-12.625-87.118-54.057-102.731
		C366.298,105.014,345.612,104.685,326.513,111.024z"/>
</g>
<g id="OBJECTS">
	<path style="fill:none;stroke:#17014E;stroke-linecap:round;stroke-linejoin:round;stroke-miterlimit:10;" d="M457.331,213.336
		c0-1.054-0.855-1.909-1.909-1.909c-1.054,0-1.909,0.855-1.909,1.909c0,1.054,0.855,1.909,1.909,1.909
		C456.476,215.245,457.331,214.391,457.331,213.336z"/>
	<g>
		<path style="fill:none;stroke:#17014E;stroke-linecap:round;stroke-linejoin:round;stroke-miterlimit:10;" d="M62.598,198.671
			c0-1.054-0.854-1.909-1.909-1.909s-1.909,0.855-1.909,1.909c0,1.054,0.855,1.909,1.909,1.909S62.598,199.725,62.598,198.671z"/>
		<circle style="fill:#D6CEFF;" cx="50.269" cy="220.861" r="2.58"/>
	</g>
	<circle style="fill:#D6CEFF;" cx="433.634" cy="59.138" r="2.58"/>
	<g>
		<path style="fill:none;stroke:#17014E;stroke-linecap:round;stroke-linejoin:round;stroke-miterlimit:10;" d="M439.208,464.149
			c0-1.054-0.855-1.909-1.909-1.909c-1.054,0-1.909,0.855-1.909,1.909c0,1.054,0.855,1.909,1.909,1.909
			C438.354,466.057,439.208,465.203,439.208,464.149z"/>
		<path style="fill:#D6CEFF;" d="M423.956,449.609c0-1.425-1.155-2.58-2.58-2.58c-1.425,0-2.58,1.155-2.58,2.58
			c0,1.425,1.155,2.58,2.58,2.58C422.8,452.189,423.956,451.034,423.956,449.609z"/>
		<circle style="fill:#D6CEFF;" cx="432.397" cy="438.876" r="2.58"/>
	</g>
	<path style="fill:#E3DEFF;" d="M162.219,422.599c0-1.425-1.155-2.58-2.58-2.58c-1.425,0-2.58,1.155-2.58,2.58
		c0,1.425,1.155,2.58,2.58,2.58C161.064,425.179,162.219,424.024,162.219,422.599z"/>
	<circle style="fill:#E3DEFF;" cx="261.489" cy="157.249" r="2.58"/>
	<circle style="fill:#E3DEFF;" cx="389.192" cy="140.128" r="2.58"/>
	<g>
		
			<line style="fill:none;stroke:#FFFFFF;stroke-linecap:round;stroke-linejoin:round;stroke-miterlimit:10;" x1="47.161" y1="292.199" x2="47.161" y2="296.511"/>
		
			<line style="fill:none;stroke:#FFFFFF;stroke-linecap:round;stroke-linejoin:round;stroke-miterlimit:10;" x1="45.005" y1="294.355" x2="49.317" y2="294.355"/>
	</g>
	<g>
		<path style="fill:none;stroke:#17014E;stroke-linecap:round;stroke-linejoin:round;stroke-miterlimit:10;" d="M190.172,58.963
			c-0.287-1.014-1.342-1.604-2.356-1.318c-1.014,0.287-1.604,1.341-1.318,2.356c0.287,1.014,1.341,1.604,2.356,1.317
			C189.869,61.032,190.458,59.977,190.172,58.963z"/>
		<path style="fill:#D6CEFF;" d="M178.505,48.305c-0.387-1.371-1.813-2.169-3.185-1.781c-1.371,0.388-2.169,1.813-1.781,3.185
			c0.388,1.371,1.813,2.169,3.185,1.781C178.095,51.102,178.893,49.676,178.505,48.305z"/>
		<g>
			
				<line style="fill:none;stroke:#FFFFFF;stroke-linecap:round;stroke-linejoin:round;stroke-miterlimit:10;" x1="154.203" y1="27.23" x2="155.376" y2="31.379"/>
			
				<line style="fill:none;stroke:#FFFFFF;stroke-linecap:round;stroke-linejoin:round;stroke-miterlimit:10;" x1="152.715" y1="29.891" x2="156.864" y2="28.718"/>
		</g>
	</g>
	<g>
		
			<line style="fill:none;stroke:#FFFFFF;stroke-linecap:round;stroke-linejoin:round;stroke-miterlimit:10;" x1="459.487" y1="360.792" x2="459.487" y2="365.104"/>
		
			<line style="fill:none;stroke:#FFFFFF;stroke-linecap:round;stroke-linejoin:round;stroke-miterlimit:10;" x1="457.331" y1="362.948" x2="461.643" y2="362.948"/>
	</g>
	<g>
		<path style="fill:none;stroke:#17014E;stroke-linecap:round;stroke-linejoin:round;stroke-miterlimit:10;" d="M63.76,449.425
			c0-1.054-0.854-1.909-1.909-1.909c-1.054,0-1.909,0.855-1.909,1.909s0.855,1.909,1.909,1.909
			C62.906,451.333,63.76,450.479,63.76,449.425z"/>
		<circle style="fill:#D6CEFF;" cx="89.724" cy="456.185" r="16.182"/>
		<g>
			
				<line style="fill:none;stroke:#FFFFFF;stroke-linecap:round;stroke-linejoin:round;stroke-miterlimit:10;" x1="143.004" y1="475.345" x2="143.004" y2="479.657"/>
			
				<line style="fill:none;stroke:#FFFFFF;stroke-linecap:round;stroke-linejoin:round;stroke-miterlimit:10;" x1="140.848" y1="477.501" x2="145.16" y2="477.501"/>
		</g>
	</g>
	<path style="fill:#D6CEFF;" d="M440.388,103.769l-14.977-4.373c-1.036-0.303-1.823-1.147-2.055-2.201
		c-0.004-0.018-0.008-0.035-0.012-0.053c-0.232-1.044,0.115-2.13,0.912-2.843l11.633-10.41c0.973-0.871,1.263-2.278,0.71-3.461
		c-0.869-1.863-1.828-3.675-2.871-5.435c-0.665-1.121-1.986-1.674-3.252-1.365l-15.168,3.706c-1.046,0.256-2.146-0.08-2.876-0.872
		c-0.01-0.011-0.021-0.022-0.031-0.033c-0.727-0.788-0.972-1.906-0.637-2.924l4.873-14.839c0.407-1.239-0.044-2.602-1.112-3.35
		c-1.672-1.172-3.402-2.267-5.189-3.282c-1.137-0.646-2.566-0.467-3.511,0.437l-11.278,10.789c-0.774,0.741-1.887,1.002-2.911,0.687
		c-0.018-0.006-0.037-0.011-0.055-0.017c-1.031-0.315-1.809-1.164-2.03-2.219l-3.196-15.268c-0.266-1.269-1.325-2.224-2.616-2.342
		c-1.023-0.094-2.053-0.164-3.092-0.206c-1.04-0.043-2.071-0.053-3.099-0.039c-1.296,0.018-2.426,0.888-2.789,2.132l-4.373,14.978
		c-0.303,1.037-1.149,1.824-2.204,2.056c-0.017,0.004-0.035,0.008-0.052,0.012c-1.043,0.231-2.128-0.117-2.84-0.913l-10.412-11.638
		c-0.872-0.974-2.281-1.264-3.465-0.709c-1.861,0.872-3.672,1.833-5.431,2.875c-1.121,0.664-1.674,1.985-1.365,3.251l3.701,15.174
		c0.254,1.042-0.078,2.137-0.864,2.866c-0.01,0.009-0.02,0.019-0.03,0.028c-0.789,0.733-1.911,0.981-2.933,0.645l-14.836-4.874
		c-1.239-0.407-2.601,0.043-3.35,1.111c-1.173,1.672-2.269,3.403-3.281,5.188c-0.644,1.137-0.465,2.563,0.438,3.507l10.791,11.289
		c0.739,0.773,1,1.883,0.688,2.905c-0.006,0.019-0.012,0.038-0.017,0.057c-0.314,1.033-1.164,1.814-2.221,2.035l-15.268,3.192
		c-1.268,0.265-2.223,1.324-2.342,2.614c-0.095,1.023-0.167,2.053-0.209,3.091c-0.04,1.042-0.048,2.075-0.033,3.103
		c0.018,1.295,0.888,2.425,2.131,2.788l14.977,4.373c1.037,0.303,1.823,1.148,2.056,2.202c0.004,0.017,0.007,0.033,0.011,0.05
		c0.231,1.044-0.116,2.129-0.912,2.842l-11.635,10.413c-0.974,0.871-1.263,2.28-0.709,3.463c0.871,1.862,1.831,3.673,2.871,5.431
		c0.664,1.122,1.987,1.676,3.253,1.366l15.167-3.709c1.045-0.255,2.143,0.078,2.873,0.869c0.01,0.011,0.021,0.022,0.031,0.034
		c0.729,0.788,0.976,1.907,0.641,2.928l-4.872,14.843c-0.406,1.238,0.043,2.599,1.109,3.348c1.672,1.174,3.404,2.27,5.191,3.282
		c1.137,0.643,2.563,0.464,3.507-0.439l11.283-10.791c0.773-0.74,1.885-1.001,2.908-0.688c0.017,0.005,0.034,0.01,0.051,0.016
		c1.032,0.315,1.811,1.164,2.032,2.22l3.194,15.268c0.266,1.269,1.326,2.224,2.617,2.342c1.024,0.094,2.054,0.167,3.091,0.209
		c1.042,0.041,2.077,0.049,3.107,0.034c1.294-0.02,2.422-0.889,2.785-2.131l4.375-14.978c0.303-1.037,1.149-1.824,2.204-2.056
		c0.016-0.004,0.033-0.007,0.049-0.011c1.043-0.23,2.128,0.117,2.84,0.913l10.414,11.638c0.871,0.974,2.28,1.263,3.464,0.709
		c1.86-0.871,3.672-1.828,5.43-2.868c1.122-0.664,1.677-1.986,1.368-3.253l-3.705-15.18c-0.255-1.044,0.078-2.142,0.868-2.871
		c0.009-0.008,0.017-0.016,0.026-0.024c0.788-0.73,1.908-0.976,2.929-0.641l14.844,4.871c1.238,0.406,2.598-0.043,3.347-1.109
		c1.175-1.672,2.272-3.402,3.285-5.19c0.644-1.137,0.465-2.564-0.438-3.508l-10.793-11.285c-0.739-0.772-1.001-1.881-0.689-2.904
		c0.005-0.018,0.011-0.036,0.016-0.053c0.314-1.034,1.164-1.815,2.221-2.037l15.272-3.197c1.267-0.265,2.222-1.322,2.342-2.611
		c0.095-1.024,0.166-2.056,0.205-3.095c0.043-1.035,0.052-2.068,0.037-3.097C442.501,105.262,441.632,104.132,440.388,103.769z
		 M403.672,108.147c-0.528,13.516-11.917,24.056-25.441,23.532c-13.524-0.527-24.06-11.919-23.534-25.441
		c0.526-13.527,11.917-24.056,25.438-23.534C393.661,83.232,404.197,94.619,403.672,108.147z"/>
	<g>
		<g>
			<path style="fill:#34A5D1;" d="M255.987,217.512c7.541-28.762,26.188-54.46,51.193-70.55c6.282-4.042,13.488-7.606,20.9-6.687
				c9.944,1.234,17.381,10.493,19.661,20.251c2.28,9.757,0.478,19.956-1.421,31.96c5.974-10.119,15.702-17.963,26.857-21.659
				c7.074-2.343,15.673-2.746,21.187,2.266c4.009,3.644,5.47,9.449,5.078,14.852c-0.389,5.403-2.39,10.541-4.515,15.507
				c6.853-3.444,14.609-5.358,22.237-4.556c7.629,0.802,15.085,4.5,19.653,10.662c4.567,6.163,5.875,14.834,2.411,21.285
				c14.456-4.567,31.106,4.107,37.832,17.694c6.728,13.586,4.447,30.512-3.508,43.417c-7.955,12.905-20.9,22.127-34.797,28.185
				c-13.897,6.059-28.846,9.236-43.678,12.377L255.987,217.512z"/>
			<g>
				<path style="fill:#228FBA;" d="M378.831,190.85c5.404,4.154,12.668,5.7,19.151,4.504c0.734-2.419,1.277-4.885,1.459-7.411
					c0.392-5.403-1.069-11.208-5.078-14.852c-5.514-5.012-14.113-4.609-21.187-2.266c-1.198,0.397-2.376,0.852-3.539,1.342
					C369.691,179.34,373.129,186.468,378.831,190.85z"/>
				<path style="fill:#228FBA;" d="M441.117,221.003c-0.208-2.589-0.896-5.183-2.015-7.589c-12.509-0.899-25.218,6.044-33.83,15.559
					c-9.992,11.039-15.822,25.095-22.516,38.394c-6.43,12.772-14.314,25.56-26.322,33.194l30.528,25.241
					c7.912-5.161,13.918-13.037,17.782-21.692c4.235-9.486,6.061-19.884,6.816-30.243c0.865-11.873,0.438-24.192,5.049-35.168
					C420.773,228.789,430.751,220.296,441.117,221.003z"/>
				<path style="fill:#228FBA;" d="M466.938,236.486c-10.667,9.066-17.182,22.178-17.368,35.578
					c-0.168,12.102,4.842,24.103,13.25,32.775c4.128-3.806,7.776-8.091,10.732-12.887c7.955-12.906,10.236-29.832,3.508-43.417
					C474.719,243.805,471.173,239.673,466.938,236.486z"/>
				<path style="fill:#228FBA;" d="M362.27,254.271c1.738-14.665-3.827-30.016-14.558-40.162
					c-7.147-6.757-16.887-12.032-19.495-21.515c-1.761-6.399,0.266-13.14,0.852-19.751c1.002-11.296-2.496-22.902-9.434-31.856
					c-3.808,1.036-7.477,2.903-10.902,5.001c5.474,5.691,5.582,15.515,2.291,22.99c-3.652,8.293-10.375,14.77-15.656,22.133
					c-9.868,13.755-14.591,31.056-13.347,47.924l59.456,49.159C352.808,280.552,360.66,267.862,362.27,254.271z"/>
			</g>
		</g>
		<g>
			<defs>
				<path id="SVGID_1_" d="M255.987,217.512c7.541-28.762,26.188-54.46,51.193-70.55c6.282-4.042,13.488-7.606,20.9-6.687
					c9.944,1.234,17.381,10.493,19.661,20.251c2.28,9.757,0.478,19.956-1.421,31.96c5.974-10.119,15.702-17.963,26.857-21.659
					c7.074-2.343,15.673-2.746,21.187,2.266c4.009,3.644,5.47,9.449,5.078,14.852c-0.389,5.403-2.39,10.541-4.515,15.507
					c6.853-3.444,14.609-5.358,22.237-4.556c7.629,0.802,15.085,4.5,19.653,10.662c4.567,6.163,5.875,14.834,2.411,21.285
					c14.456-4.567,31.106,4.107,37.832,17.694c6.728,13.586,4.447,30.512-3.508,43.417c-7.955,12.905-20.9,22.127-34.797,28.185
					c-13.897,6.059-28.846,9.236-43.678,12.377L255.987,217.512z"/>
			</defs>
			<clipPath id="SVGID_00000168809139413391432400000003684466816668127616_">
				<use xlink:href="#SVGID_1_"  style="overflow:visible;"/>
			</clipPath>
			
				<path style="clip-path:url(#SVGID_00000168809139413391432400000003684466816668127616_);fill:none;stroke:#FFFFFF;stroke-linecap:round;stroke-linejoin:round;stroke-miterlimit:10;" d="
				M431.087,197.183c-10.543,6.95-19.314,17.276-22.225,29.564c-2.912,12.288,0.929,26.486,11.056,34.031
				c10.608,7.905,25.458,7.393,36.89,14.051c14.018,8.164,20.121,27.607,13.282,42.317"/>
			
				<path style="clip-path:url(#SVGID_00000168809139413391432400000003684466816668127616_);fill:none;stroke:#FFFFFF;stroke-linecap:round;stroke-linejoin:round;stroke-miterlimit:10;" d="
				M293.994,151.003c1.106,6.021,7.345,9.637,13.236,11.303c7.088,2.003,14.739,2.356,21.807,0.284
				c7.068-2.073,13.493-6.695,17.094-13.121"/>
			
				<path style="clip-path:url(#SVGID_00000168809139413391432400000003684466816668127616_);fill:none;stroke:#FFFFFF;stroke-linecap:round;stroke-linejoin:round;stroke-miterlimit:10;" d="
				M295.659,259.669c3.119-10.881,6.302-21.909,12.182-31.581c5.88-9.671,14.887-17.989,25.924-20.5
				c6.744-1.534,13.772-0.834,20.677-1.256s14.257-2.288,18.674-7.611c3.808-4.591,4.735-11.055,3.748-16.938
				c-0.99-5.883-3.684-11.327-6.489-16.592"/>
		</g>
	</g>
	<path style="fill:#D6CEFF;" d="M127.568,99.234c-0.93-0.657-2.207-0.566-3.073,0.173l-4.662,3.979
		c-0.683,0.583-1.625,0.757-2.471,0.457l-7.524-2.667c-0.846-0.3-1.468-1.029-1.631-1.911l-1.115-6.027
		c-0.207-1.12-1.142-1.994-2.278-2.07c-3.527-0.235-7.029-0.045-10.441,0.542c-1.122,0.193-1.956,1.158-2.046,2.293l-0.483,6.113
		c-0.071,0.895-0.614,1.684-1.424,2.071l-7.206,3.434c-0.81,0.386-1.765,0.311-2.505-0.198l-5.053-3.475
		c-0.938-0.645-2.213-0.605-3.069,0.145c-2.605,2.28-4.959,4.881-6.998,7.769c-0.657,0.93-0.566,2.207,0.173,3.073l3.979,4.662
		c0.583,0.683,0.757,1.625,0.457,2.471l-2.667,7.524c-0.3,0.846-1.029,1.468-1.911,1.631l-6.027,1.115
		c-1.12,0.207-1.994,1.142-2.07,2.278c-0.235,3.527-0.045,7.029,0.542,10.441c0.193,1.122,1.158,1.956,2.293,2.046l6.113,0.483
		c0.895,0.071,1.684,0.614,2.071,1.424l3.434,7.206c0.386,0.811,0.311,1.766-0.198,2.505l-3.475,5.053
		c-0.645,0.938-0.605,2.213,0.145,3.069c2.28,2.605,4.881,4.959,7.769,6.998c0.93,0.657,2.207,0.567,3.073-0.173l4.662-3.979
		c0.683-0.583,1.625-0.757,2.471-0.457l7.524,2.667c0.846,0.3,1.468,1.029,1.631,1.912l1.115,6.027
		c0.207,1.12,1.142,1.994,2.278,2.07c3.527,0.235,7.03,0.045,10.442-0.542c1.122-0.193,1.956-1.158,2.046-2.293l0.483-6.113
		c0.071-0.895,0.614-1.684,1.424-2.071l7.206-3.434c0.811-0.386,1.765-0.311,2.505,0.198l5.053,3.475
		c0.938,0.645,2.213,0.605,3.069-0.145c2.605-2.28,4.959-4.881,6.998-7.768c0.657-0.93,0.566-2.207-0.173-3.073l-3.979-4.662
		c-0.583-0.683-0.757-1.625-0.457-2.471l2.667-7.524c0.3-0.846,1.029-1.468,1.911-1.631l6.027-1.115
		c1.12-0.207,1.994-1.142,2.07-2.278c0.235-3.527,0.045-7.029-0.542-10.441c-0.193-1.122-1.158-1.956-2.293-2.046l-6.113-0.483
		c-0.895-0.071-1.684-0.614-2.071-1.424l-3.434-7.205c-0.386-0.811-0.311-1.766,0.198-2.505l3.475-5.053
		c0.645-0.938,0.605-2.213-0.145-3.069C133.057,103.627,130.456,101.273,127.568,99.234z M117.351,150.721
		c-8.441,8.594-22.251,8.718-30.845,0.277c-8.594-8.441-8.718-22.251-0.277-30.845s22.251-8.718,30.845-0.277
		C125.668,128.317,125.792,142.127,117.351,150.721z"/>
	<ellipse style="fill:#BBADFF;" cx="168.078" cy="351.149" rx="125.696" ry="17.708"/>
	<g>
		<g>
			<path style="fill:#34A5D1;" d="M263.051,410.107c-8.55,7.343-15.013,17.086-18.456,27.819c-1.316,4.105-2.11,8.893,0.273,12.487
				c2.487,3.752,7.794,4.812,12.099,3.5c4.306-1.311,7.773-4.497,12.162-9.094c3.613,10.132,12.422,18.253,22.815,21.03
				c6.364,1.701,13.658,1.309,18.88-2.707c6.505-5.004,8.137-13.971,9.053-21.012c9.955,8.298,20.315,16.652,32.631,20.689
				c12.316,4.036,27.173,2.889,36.466-6.146c7.051-6.857,9.855-17.233,9.318-27.051c-0.538-9.821-4.061-19.228-8.131-28.181
				L263.051,410.107z"/>
			<g>
				<path style="fill:#228FBA;" d="M347.567,447.524c-2.937-0.685-6.064,0.348-8.527,2.087c-1.523,1.075-2.84,2.399-4.381,4.012
					c5.567,3.821,11.441,7.095,17.848,9.195c1.065,0.349,2.154,0.644,3.252,0.914c0.092-2.86,0.003-5.724-0.826-8.446
					C353.846,451.712,351.204,448.374,347.567,447.524z"/>
				<path style="fill:#228FBA;" d="M398.292,429.62c-0.417-7.622-2.636-14.994-5.51-22.099c-5.02,1.848-9.52,5.437-13.795,8.823
					c-5.841,4.625-12.518,9.304-19.955,8.85c-5.32-0.327-10.379-3.522-12.96-8.185c-2.08-3.761-2.493-8.377-1.24-12.478
					l-9.467,0.646c-1.503,4.773-2.789,9.649-2.567,14.621c0.264,5.872,3.082,12,8.379,14.549c4.916,2.365,10.962,1.289,15.855,3.7
					c4.444,2.189,7.165,6.873,11.401,9.442c6.042,3.665,14.118,2.233,20.024-1.651c3.777-2.484,6.856-5.804,9.652-9.384
					C398.353,434.179,398.415,431.885,398.292,429.62z"/>
				<path style="fill:#228FBA;" d="M280.035,419.352c-4.727-1.31-9.72-1.648-14.303-3.398c-1.969-0.753-3.89-1.865-5.482-3.275
					c-2.251,2.194-4.329,4.562-6.219,7.074c7.714,4.808,18.304,5.273,25.283,11.378c4.757,4.163,7.188,10.551,7.501,16.863
					c0.248,5.026-0.741,10.021-2.308,14.823c2.342,1.309,4.84,2.337,7.436,3.03c3.892,1.04,8.131,1.292,12.033,0.416
					c3.074-8.418,2.955-18.003-0.515-26.28C299.297,430.054,290.411,422.228,280.035,419.352z"/>
			</g>
		</g>
		<g>
			<defs>
				<path id="SVGID_00000077310808810257102580000013931702704140359081_" d="M263.051,410.107
					c-8.55,7.343-15.013,17.086-18.456,27.819c-1.316,4.105-2.11,8.893,0.273,12.487c2.487,3.752,7.794,4.812,12.099,3.5
					c4.306-1.311,7.773-4.497,12.162-9.094c3.613,10.132,12.422,18.253,22.815,21.03c6.364,1.701,13.658,1.309,18.88-2.707
					c6.505-5.004,8.137-13.971,9.053-21.012c9.955,8.298,20.315,16.652,32.631,20.689c12.316,4.036,27.173,2.889,36.466-6.146
					c7.051-6.857,9.855-17.233,9.318-27.051c-0.538-9.821-4.061-19.228-8.131-28.181L263.051,410.107z"/>
			</defs>
			<clipPath id="SVGID_00000101087844140262817520000006420654410592658083_">
				<use xlink:href="#SVGID_00000077310808810257102580000013931702704140359081_"  style="overflow:visible;"/>
			</clipPath>
			
				<path style="clip-path:url(#SVGID_00000101087844140262817520000006420654410592658083_);fill:none;stroke:#FFFFFF;stroke-linecap:round;stroke-linejoin:round;stroke-miterlimit:10;" d="
				M272.167,457.601c12.564-1.379,24.261-9.126,30.434-20.153c6.174-11.029,6.661-25.049,1.269-36.481"/>
		</g>
	</g>
	<path style="fill:none;stroke:#FFFFFF;stroke-linecap:round;stroke-linejoin:round;stroke-miterlimit:10;" d="M226.099,400.744
		l-2.44-5.241c-0.274-0.59-0.214-1.281,0.16-1.813l2.548-3.635c0.474-0.675,0.451-1.602-0.087-2.227
		c-1.669-1.942-3.544-3.655-5.579-5.12c-0.669-0.482-1.591-0.423-2.223,0.107l-3.404,2.853c-0.498,0.418-1.182,0.538-1.793,0.315
		l-5.431-1.98c-0.611-0.223-1.057-0.754-1.169-1.395l-0.769-4.374c-0.143-0.812-0.811-1.45-1.632-1.513
		c-2.5-0.189-5.039-0.085-7.565,0.327c-0.814,0.133-1.428,0.827-1.5,1.649l-0.39,4.422c-0.057,0.648-0.455,1.216-1.045,1.49
		l-5.241,2.44c-0.589,0.275-1.281,0.214-1.813-0.16l-3.635-2.548c-0.675-0.473-1.602-0.451-2.227,0.087
		c-1.942,1.668-3.655,3.544-5.12,5.579c-0.482,0.669-0.423,1.591,0.107,2.223l2.853,3.404c0.418,0.498,0.538,1.182,0.315,1.793
		l-1.98,5.431c-0.223,0.611-0.755,1.057-1.395,1.169l-4.374,0.769c-0.812,0.143-1.45,0.81-1.513,1.633
		c-0.189,2.5-0.085,5.038,0.327,7.565c0.133,0.814,0.827,1.428,1.649,1.5l4.422,0.389c0.648,0.057,1.216,0.455,1.49,1.045
		l2.44,5.241c0.274,0.589,0.214,1.281-0.16,1.813l-2.549,3.635c-0.473,0.675-0.451,1.602,0.087,2.227
		c1.669,1.942,3.544,3.655,5.579,5.12c0.669,0.481,1.591,0.423,2.223-0.107l3.404-2.853c0.498-0.418,1.182-0.538,1.793-0.315
		l5.431,1.98c0.611,0.223,1.057,0.754,1.169,1.395l0.769,4.375c0.143,0.812,0.811,1.45,1.632,1.512
		c2.5,0.189,5.039,0.085,7.565-0.327c0.814-0.133,1.428-0.827,1.5-1.649l0.389-4.422c0.057-0.648,0.455-1.216,1.045-1.49l5.241-2.44
		c0.589-0.275,1.281-0.214,1.813,0.16l3.635,2.548c0.675,0.474,1.602,0.451,2.227-0.087c1.942-1.668,3.655-3.544,5.12-5.579
		c0.482-0.669,0.423-1.591-0.107-2.223l-2.853-3.404c-0.418-0.498-0.538-1.182-0.315-1.793l1.98-5.431
		c0.223-0.611,0.755-1.057,1.395-1.169l4.374-0.769c0.812-0.143,1.45-0.81,1.512-1.632c0.189-2.5,0.085-5.039-0.327-7.565
		c-0.133-0.814-0.827-1.428-1.649-1.5l-4.422-0.39C226.941,401.732,226.373,401.333,226.099,400.744z M217.668,408.732
		c0-8.724-7.072-15.797-15.797-15.797c-8.724,0-15.797,7.072-15.797,15.797c0,8.724,7.072,15.797,15.797,15.797
		C210.596,424.529,217.668,417.456,217.668,408.732z"/>
	<path style="fill:none;stroke:#FFFFFF;stroke-linecap:round;stroke-linejoin:round;stroke-miterlimit:10;" d="M190.649,93.862
		l-1.704-5.524c-0.192-0.621-0.037-1.298,0.405-1.774l3.02-3.254c0.561-0.605,0.665-1.526,0.217-2.218
		c-1.388-2.151-3.013-4.104-4.83-5.832c-0.597-0.568-1.519-0.636-2.217-0.197l-3.761,2.363c-0.551,0.346-1.244,0.372-1.819,0.068
		l-5.111-2.702c-0.575-0.304-0.944-0.891-0.968-1.541l-0.166-4.438c-0.031-0.824-0.605-1.547-1.411-1.721
		c-2.451-0.528-4.98-0.771-7.539-0.707c-0.824,0.021-1.527,0.625-1.711,1.429l-0.988,4.328c-0.145,0.634-0.617,1.142-1.238,1.334
		l-5.524,1.704c-0.621,0.192-1.298,0.037-1.774-0.405l-3.254-3.02c-0.605-0.561-1.526-0.665-2.218-0.217
		c-2.151,1.388-4.104,3.013-5.832,4.83c-0.568,0.597-0.636,1.519-0.197,2.217l2.363,3.761c0.346,0.551,0.372,1.244,0.068,1.819
		l-2.702,5.111c-0.304,0.575-0.891,0.944-1.541,0.968l-4.438,0.166c-0.824,0.031-1.547,0.605-1.721,1.411
		c-0.528,2.451-0.77,4.98-0.706,7.539c0.021,0.825,0.625,1.527,1.429,1.711l4.328,0.988c0.634,0.145,1.142,0.617,1.334,1.238
		l1.704,5.524c0.192,0.621,0.037,1.298-0.405,1.774l-3.02,3.254c-0.561,0.604-0.665,1.525-0.217,2.218
		c1.389,2.151,3.013,4.104,4.83,5.832c0.597,0.568,1.519,0.635,2.217,0.197l3.761-2.363c0.551-0.346,1.244-0.372,1.819-0.068
		l5.111,2.702c0.575,0.304,0.944,0.891,0.968,1.541l0.166,4.438c0.031,0.824,0.605,1.547,1.411,1.721
		c2.451,0.528,4.98,0.771,7.539,0.707c0.825-0.021,1.527-0.625,1.711-1.429l0.988-4.328c0.145-0.634,0.617-1.143,1.238-1.334
		l5.524-1.704c0.621-0.192,1.298-0.037,1.774,0.405l3.254,3.019c0.605,0.561,1.525,0.665,2.218,0.218
		c2.151-1.389,4.104-3.013,5.832-4.83c0.568-0.597,0.636-1.519,0.197-2.217l-2.363-3.761c-0.346-0.55-0.372-1.244-0.068-1.819
		l2.702-5.111c0.304-0.575,0.891-0.944,1.541-0.968l4.438-0.166c0.824-0.031,1.547-0.605,1.721-1.411
		c0.528-2.451,0.771-4.98,0.706-7.539c-0.021-0.825-0.625-1.527-1.429-1.711l-4.328-0.988
		C191.349,94.955,190.841,94.483,190.649,93.862z M181.21,100.628c1.188-8.643-4.856-16.613-13.499-17.801
		c-8.643-1.188-16.613,4.855-17.801,13.499c-1.188,8.643,4.856,16.613,13.499,17.801
		C172.052,115.314,180.022,109.271,181.21,100.628z"/>
	<g>
		<path style="fill:none;stroke:#17014E;stroke-linecap:round;stroke-linejoin:round;stroke-miterlimit:10;" d="M146.391,393.652
			c18.652,0.652,26.621-14.961,28.934-19.41c7.066-13.59,15.936-19.59,37.112-20.895"/>
		<g>
			<path style="opacity:0.09;fill:#17014E;" d="M143.729,422.497c-30.1,0.473-60.226-0.703-90.197-3.521
				c-5.117-0.481-9.18-4.564-9.538-9.689c-0.596-8.503-0.553-16.875-0.131-25.117c0.29-5.661,5.063-10.049,10.729-9.923
				c29.266,0.65,58.683,1.334,89.567,2.351c5.242,0.172,9.611,4.172,10.119,9.391c0.874,8.972,0.79,18.079-0.238,27.235
				C153.452,418.464,149.003,422.414,143.729,422.497z"/>
			<path style="fill:#7F7AFF;" d="M140.813,417.406c-30.051,1.785-60.199,1.923-90.264,0.415c-5.133-0.257-9.37-4.159-9.951-9.264
				c-0.966-8.469-1.289-16.835-1.226-25.088c0.043-5.668,4.62-10.26,10.286-10.382c29.267-0.627,58.685-1.226,89.584-1.557
				c5.244-0.057,9.783,3.749,10.519,8.941c1.264,8.925,1.577,18.027,0.95,27.219C150.351,412.952,146.079,417.093,140.813,417.406z"
				/>
			<path style="fill:#5247BF;" d="M44.276,415.355c1.718,1.439,3.897,2.346,6.273,2.466c30.065,1.508,60.214,1.37,90.264-0.415
				c5.213-0.309,9.447-4.373,9.878-9.56c-1.698,2.753-4.646,4.737-7.777,5.734c-3.919,1.248-8.113,1.217-12.225,1.172
				C101.808,414.443,72.928,414.153,44.276,415.355z"/>
			<path style="fill:none;stroke:#17014E;stroke-linecap:round;stroke-linejoin:round;stroke-miterlimit:10;" d="M130.689,414.751
				c-27.376-0.292-54.75-0.568-81.93,0.428"/>
			<path style="fill:none;stroke:#17014E;stroke-linecap:round;stroke-linejoin:round;stroke-miterlimit:10;" d="M148.511,410.43
				c-1.59,1.429-3.555,2.499-5.597,3.149c-1.761,0.561-3.577,0.863-5.417,1.022"/>
			<path style="fill:none;stroke:#17014E;stroke-linecap:round;stroke-linejoin:round;stroke-miterlimit:10;" d="M61.852,372.828
				c24.409-0.511,49.051-0.98,74.691-1.269"/>
			<path style="fill:none;stroke:#17014E;stroke-linecap:round;stroke-linejoin:round;stroke-miterlimit:10;" d="M39.62,396.371
				c-0.21-4.33-0.281-8.631-0.248-12.902c0.043-5.668,4.62-10.26,10.286-10.382c1.766-0.038,3.532-0.076,5.3-0.113"/>
		</g>
		<g>
			<g>
				<path style="fill:#FFFFFF;" d="M51.782,406.506c-0.477,0-0.844-0.135-1.1-0.406c-0.257-0.27-0.385-0.636-0.385-1.095v-2.443
					c0-0.479,0.124-0.857,0.372-1.134c0.248-0.277,0.619-0.415,1.113-0.415c0.49,0,0.859,0.139,1.107,0.417s0.372,0.655,0.372,1.132
					v2.443c0,0.451-0.13,0.814-0.39,1.089C52.611,406.369,52.248,406.506,51.782,406.506z M51.782,405.417
					c0.164,0,0.246-0.15,0.246-0.45v-2.363c0-0.002,0-0.019,0-0.049c0-0.031,0-0.053,0-0.067c0-0.014-0.001-0.037-0.003-0.069
					c-0.002-0.032-0.005-0.057-0.01-0.075c-0.004-0.018-0.01-0.042-0.018-0.07c-0.007-0.029-0.018-0.051-0.03-0.067
					c-0.013-0.016-0.027-0.032-0.043-0.049c-0.016-0.017-0.036-0.029-0.061-0.037c-0.024-0.007-0.052-0.011-0.081-0.011
					c-0.038,0-0.072,0.006-0.102,0.018c-0.03,0.012-0.053,0.031-0.07,0.059c-0.017,0.028-0.031,0.053-0.043,0.075
					c-0.012,0.022-0.02,0.054-0.024,0.096c-0.004,0.041-0.006,0.071-0.006,0.088c0,0.009,0,0.021,0,0.038c0,0.015,0,0.033,0,0.054
					c0,0.043,0,0.065,0,0.067v2.363C51.536,405.267,51.618,405.417,51.782,405.417z"/>
			</g>
			<g>
				<path style="fill:#FFCF4E;" d="M52.825,396.697h-2.119l-0.375,0.972H48.42l2.437-5.576h1.848l2.438,5.576H53.2L52.825,396.697z
					 M52.308,395.343l-0.542-1.402l-0.542,1.402H52.308z"/>
			</g>
		</g>
		<g>
			<g>
				<path style="fill:#FFFFFF;" d="M133.316,407.44v-4.171l-0.668,0.358v-0.897c0.019-0.011,0.081-0.047,0.185-0.11
					c0.104-0.063,0.199-0.12,0.284-0.171c0.085-0.051,0.174-0.107,0.267-0.168c0.093-0.061,0.156-0.106,0.19-0.136h0.955v5.295
					H133.316z"/>
				<path style="fill:#FFFFFF;" d="M137.372,407.549c-0.477,0-0.844-0.135-1.1-0.406c-0.257-0.27-0.385-0.635-0.385-1.095v-2.443
					c0-0.479,0.124-0.857,0.372-1.134c0.248-0.277,0.619-0.415,1.113-0.415c0.49,0,0.859,0.139,1.107,0.417
					c0.248,0.278,0.372,0.655,0.372,1.132v2.443c0,0.451-0.13,0.814-0.39,1.089C138.201,407.412,137.838,407.549,137.372,407.549z
					 M137.372,406.46c0.164,0,0.246-0.15,0.246-0.45v-2.363c0-0.002,0-0.019,0-0.049c0-0.031,0-0.053,0-0.067
					c0-0.014-0.001-0.037-0.003-0.069s-0.005-0.057-0.01-0.075c-0.004-0.018-0.01-0.042-0.018-0.07
					c-0.007-0.029-0.018-0.051-0.03-0.067c-0.013-0.016-0.027-0.033-0.043-0.049c-0.016-0.017-0.036-0.029-0.061-0.037
					c-0.024-0.008-0.052-0.011-0.081-0.011c-0.038,0-0.072,0.006-0.102,0.018c-0.03,0.012-0.053,0.031-0.07,0.059
					c-0.017,0.028-0.031,0.053-0.043,0.075c-0.012,0.022-0.02,0.054-0.024,0.096c-0.004,0.042-0.006,0.071-0.006,0.088
					c0,0.009,0,0.021,0,0.038c0,0.015,0,0.033,0,0.054c0,0.043,0,0.065,0,0.067v2.363C137.126,406.31,137.208,406.46,137.372,406.46
					z"/>
				<path style="fill:#FFFFFF;" d="M140.958,407.549c-0.477,0-0.844-0.135-1.1-0.406c-0.257-0.27-0.385-0.635-0.385-1.095v-2.443
					c0-0.479,0.124-0.857,0.372-1.134s0.619-0.415,1.113-0.415c0.49,0,0.859,0.139,1.107,0.417c0.248,0.278,0.372,0.655,0.372,1.132
					v2.443c0,0.451-0.13,0.814-0.39,1.089C141.788,407.412,141.425,407.549,140.958,407.549z M140.958,406.46
					c0.164,0,0.246-0.15,0.246-0.45v-2.363c0-0.002,0-0.019,0-0.049c0-0.031,0-0.053,0-0.067c0-0.014-0.001-0.037-0.003-0.069
					c-0.002-0.032-0.005-0.057-0.01-0.075c-0.004-0.018-0.01-0.042-0.018-0.07c-0.007-0.029-0.018-0.051-0.03-0.067
					c-0.013-0.016-0.027-0.033-0.043-0.049c-0.016-0.017-0.036-0.029-0.061-0.037c-0.024-0.008-0.052-0.011-0.081-0.011
					c-0.038,0-0.072,0.006-0.102,0.018c-0.03,0.012-0.053,0.031-0.07,0.059c-0.017,0.028-0.031,0.053-0.043,0.075
					c-0.012,0.022-0.02,0.054-0.024,0.096c-0.004,0.042-0.006,0.071-0.006,0.088c0,0.009,0,0.021,0,0.038c0,0.015,0,0.033,0,0.054
					c0,0.043,0,0.065,0,0.067v2.363C140.713,406.31,140.794,406.46,140.958,406.46z"/>
			</g>
			<g>
				<path style="fill:#FFCF4E;" d="M139.981,397.165h-4.797l-0.848,2.201h-4.329l5.519-12.626h4.185l5.519,12.626h-4.401
					L139.981,397.165z M138.809,394.1l-1.226-3.174l-1.227,3.174H138.809z"/>
			</g>
		</g>
		<g>
			<g>
				<path style="fill:#FFCF4E;" d="M118.242,397.31h-50.87c-1.441,0-2.609-1.168-2.609-2.609l0,0c0-1.441,1.168-2.609,2.609-2.609
					h50.87c1.441,0,2.609,1.168,2.609,2.609l0,0C120.851,396.142,119.683,397.31,118.242,397.31z"/>
				<path style="fill:#17014E;" d="M80.174,393.031h6.171c0.922,0,1.67,0.747,1.67,1.67l0,0c0,0.922-0.747,1.67-1.67,1.67h-6.171
					c-0.922,0-1.67-0.748-1.67-1.67l0,0C78.504,393.779,79.251,393.031,80.174,393.031z"/>
			</g>
			<g>
				<path style="fill:#FFFFFF;" d="M80.186,407.496v-0.853l1.229-1.907c0.019-0.03,0.059-0.09,0.12-0.18
					c0.061-0.09,0.105-0.159,0.134-0.206c0.029-0.047,0.068-0.113,0.117-0.2c0.049-0.086,0.086-0.16,0.11-0.222
					c0.024-0.062,0.047-0.131,0.067-0.207c0.02-0.077,0.03-0.149,0.03-0.217c0-0.143-0.036-0.245-0.109-0.307
					c-0.051-0.043-0.111-0.064-0.179-0.064c-0.03,0-0.061,0.004-0.093,0.013c-0.098,0.023-0.171,0.084-0.22,0.181
					c-0.049,0.097-0.073,0.256-0.073,0.477v0.281h-1.163v-0.307c0-0.241,0.029-0.459,0.088-0.656
					c0.059-0.197,0.147-0.373,0.267-0.527c0.119-0.154,0.279-0.274,0.481-0.359c0.201-0.085,0.435-0.128,0.701-0.128
					c0.485,0,0.855,0.124,1.11,0.371c0.254,0.247,0.382,0.595,0.382,1.044c0,0.072-0.004,0.144-0.011,0.214
					c-0.007,0.07-0.023,0.143-0.046,0.217c-0.023,0.074-0.042,0.138-0.057,0.19c-0.015,0.052-0.044,0.119-0.088,0.201
					c-0.044,0.082-0.074,0.142-0.091,0.179c-0.017,0.037-0.055,0.101-0.115,0.19c-0.06,0.089-0.096,0.146-0.11,0.169
					c-0.014,0.023-0.056,0.085-0.126,0.185c-0.07,0.1-0.11,0.156-0.118,0.169l-0.897,1.325h1.507v0.932H80.186z"/>
				<path style="fill:#FFFFFF;" d="M85.197,407.605c-0.239,0-0.443-0.028-0.615-0.083c-0.171-0.055-0.308-0.128-0.41-0.219
					c-0.102-0.09-0.183-0.211-0.243-0.361c-0.06-0.15-0.099-0.303-0.118-0.458c-0.019-0.155-0.029-0.342-0.029-0.559h1.159
					c0,0.224,0.01,0.392,0.03,0.505c0.02,0.113,0.054,0.192,0.101,0.236c0.043,0.038,0.102,0.057,0.179,0.057
					c0.011,0,0.022,0,0.035,0c0.126-0.009,0.203-0.088,0.233-0.238c0.03-0.15,0.045-0.423,0.045-0.819
					c0-0.128-0.005-0.238-0.014-0.332c-0.01-0.094-0.027-0.182-0.051-0.265c-0.024-0.083-0.061-0.146-0.11-0.19
					c-0.049-0.044-0.11-0.065-0.182-0.065c-0.104,0-0.186,0.039-0.246,0.116c-0.06,0.078-0.1,0.205-0.121,0.382h-1.048l0.121-3.111
					h2.532v0.971h-1.581l-0.067,0.987c0.034-0.049,0.11-0.096,0.227-0.141c0.117-0.045,0.245-0.076,0.383-0.093
					c0.062-0.008,0.121-0.013,0.179-0.013c0.315,0,0.568,0.128,0.76,0.383c0.226,0.302,0.339,0.754,0.339,1.354
					c0,0.177-0.005,0.334-0.014,0.471c-0.01,0.137-0.028,0.276-0.054,0.417c-0.027,0.141-0.063,0.262-0.109,0.364
					s-0.106,0.2-0.18,0.292c-0.074,0.093-0.163,0.168-0.267,0.225c-0.103,0.057-0.227,0.103-0.372,0.136
					C85.544,407.589,85.38,407.605,85.197,407.605z"/>
			</g>
		</g>
		<g>
			<path style="fill:#FF96C3;" d="M72.59,384.672H51.107c-1.297,0-2.348-1.051-2.348-2.348l0,0c0-1.297,1.051-2.348,2.348-2.348
				H72.59c1.297,0,2.348,1.051,2.348,2.348l0,0C74.938,383.621,73.887,384.672,72.59,384.672z"/>
			<path style="fill:#FF96C3;" d="M88.55,384.672h-5.454c-1.297,0-2.348-1.051-2.348-2.348l0,0c0-1.297,1.051-2.348,2.348-2.348
				h5.454c1.297,0,2.348,1.051,2.348,2.348l0,0C90.898,383.621,89.847,384.672,88.55,384.672z"/>
		</g>
	</g>
	<g>
		<path style="opacity:0.09;fill:#17014E;" d="M108.366,427.961l-5.427-9.002c1.814-1.204,3.605-2.441,5.346-3.749l-17.429-8.112
			l0.258,18.732c1.907-0.953,3.775-1.979,5.623-3.04c1.632,3.125,3.403,6.177,5.321,9.135L108.366,427.961z"/>
		<path style="fill:#FFFFFF;stroke:#FFFFFF;stroke-linecap:round;stroke-linejoin:round;stroke-miterlimit:10;" d="M111.051,424.346
			l-6.489-8.269c1.653-1.417,3.279-2.864,4.846-4.375l-18.292-5.915l2.552,18.559c1.775-1.179,3.504-2.427,5.208-3.706
			c2.003,2.902,4.134,5.714,6.401,8.415L111.051,424.346z"/>
	</g>
	<g>
		<path style="fill:none;stroke:#17014E;stroke-linecap:round;stroke-linejoin:round;stroke-miterlimit:10;" d="M280.859,67.811
			c60.367-33.89,116.961,17.948,88.609,49.877c-28.353,31.929-49.995,71.059-29.822,122.735"/>
		<g>
			<path style="opacity:0.09;fill:#17014E;" d="M314.157,88.042c1.276-13.321-1.93-27.062-8.973-38.441
				c-2.283-3.688-6.522-5.713-10.83-5.216c-13.6,1.568-26.954,4.153-39.495,7.545c-4.538,1.227-7.811,5.194-8.233,9.878
				c-0.056,0.621-0.094,1.243-0.133,1.866c-3.663,0.419-7.301,1.432-10.723,2.951c-8.219,3.648-15.142,10.142-19.311,18.109
				c-1.19,2.274-2.179,4.753-2.107,7.318c0.073,2.566,1.423,5.23,3.793,6.217c2.496,1.04,5.396,0.014,7.616-1.527
				c2.457-1.706,4.447-4.013,6.88-5.753c2.432-1.74,5.61-2.891,8.413-1.849c1.614,0.6,2.888,1.842,4.297,2.831
				c1.979,1.39,4.293,2.273,6.685,2.618c0.907,2.034,1.912,4.032,3.036,5.974c2.148,3.712,6.235,5.915,10.513,5.592
				c13.571-1.023,27.131-3.722,40.987-8.578C310.731,96.12,313.737,92.429,314.157,88.042z"/>
			<g>
				<path style="fill:#FFFFFF;" d="M312.469,78.464c0.17-13.381-4.162-26.809-12.121-37.567c-2.58-3.487-6.972-5.154-11.225-4.303
					c-13.423,2.687-26.518,6.368-38.736,10.785c-4.421,1.598-7.354,5.822-7.388,10.525c-0.095,13.364,3.851,26.748,11.622,37.924
					c2.448,3.522,6.703,5.379,10.939,4.704c13.44-2.142,26.73-5.953,40.138-11.938C309.722,86.797,312.412,82.87,312.469,78.464z"/>
				<path style="fill:#17014E;" d="M277.156,90.608c-0.735-1.407-3.081-1.512-3.938-0.175c-0.857,1.336,0.218,3.425,1.803,3.506
					C276.607,94.019,277.904,92.04,277.156,90.608z"/>
				<path style="fill:none;stroke:#17014E;stroke-linecap:round;stroke-linejoin:round;stroke-miterlimit:10;" d="M245.917,63.447
					c-3.546,8.378-7.149,17.029-7.214,26.125c-0.065,9.096,4.295,18.852,12.68,22.383c5.84,2.46,13.015,1.382,17.875-2.687
					c4.86-4.069,7.184-10.941,5.79-17.124"/>
				<path style="fill:#17014E;" d="M263.209,93.444c2.803-12.017-0.867-24.687-6.532-35.65c-1.086-2.104-2.281-4.213-4.061-5.774
					c-1.752-1.535-4.187-2.461-6.444-1.903c-1.974,2.047-3.151,4.821-3.172,7.787c-0.095,13.364,3.851,26.748,11.622,37.924
					c1.014,1.46,2.342,2.628,3.847,3.453c0.509-0.067,1.005-0.206,1.468-0.446C261.863,97.832,262.716,95.558,263.209,93.444z"/>
				<path style="fill:#8237CC;" d="M283.012,96.732c2.056-0.567,4.112-1.177,6.168-1.835c2.493-19.169-1.681-39.125-11.57-55.727
					c-2.412,0.592-4.808,1.214-7.184,1.866C281.426,57.129,286.035,77.47,283.012,96.732z"/>
				<g>
					<path style="fill:#8237CC;" d="M258.026,60.536c-8.308-2.787-17.605-1.224-25.447,3.065
						c-7.889,4.315-14.251,11.359-17.747,19.644c-0.998,2.364-1.778,4.916-1.494,7.467c0.285,2.551,1.851,5.095,4.294,5.883
						c2.573,0.83,5.379-0.432,7.463-2.151c2.308-1.904,4.099-4.367,6.38-6.302c2.28-1.935,5.352-3.345,8.232-2.539
						c1.658,0.465,3.03,1.597,4.516,2.466c4.194,2.454,9.57,2.768,14.02,0.816c2.321-1.018,4.355-2.641,5.921-4.632
						C264.044,76.14,261.556,68.006,258.026,60.536z"/>
					<path style="opacity:0.6;fill:#FFFFFF;" d="M244.095,62.19c-13.611,1.879-22.079,11.118-17.56,14.339
						c3.624,2.582,6.452-6.36,17.031-7.106C252.457,68.797,250.748,61.272,244.095,62.19z"/>
				</g>
			</g>
		</g>
		<g>
			<path style="opacity:0.09;fill:#17014E;" d="M201.945,95.802c0.785,0.634,1.593,1.298,2.035,2.205
				c0.44,0.907,0.4,2.132-0.367,2.787c-0.703,0.597-1.793,0.532-2.596,0.08c-0.804-0.45-1.383-1.208-1.918-1.96
				c-0.508-0.714-1.01-1.468-1.164-2.331c-0.154-0.862,0.132-1.863,0.891-2.299C199.587,93.848,200.464,94.607,201.945,95.802z"/>
			<path style="fill:#8237CC;" d="M201.126,95.749c0.705,0.722,1.43,1.476,1.762,2.429c0.33,0.953,0.146,2.164-0.692,2.724
				c-0.768,0.511-1.843,0.317-2.587-0.226c-0.746-0.542-1.231-1.363-1.675-2.172c-0.421-0.769-0.831-1.577-0.882-2.452
				c-0.051-0.874,0.35-1.835,1.155-2.178C199.015,93.531,199.796,94.388,201.126,95.749z"/>
			<path style="opacity:0.6;fill:#FFFFFF;" d="M198.317,94.924c1.408,0.037,1.806,2.856,0.598,2.695
				C197.451,97.425,197.196,94.895,198.317,94.924z"/>
		</g>
		<g>
			<path style="opacity:0.09;fill:#17014E;" d="M206.327,85.324c0.273,1.045,0.548,2.135,0.324,3.191
				c-0.224,1.056-1.111,2.056-2.191,2.025c-0.857-0.026-1.592-0.696-1.939-1.481c-0.349-0.785-0.379-1.669-0.375-2.527
				c0.004-0.859,0.043-1.742,0.39-2.528c0.347-0.787,1.068-1.462,1.926-1.515C205.321,82.437,205.789,83.267,206.327,85.324z"/>
			<path style="fill:#8237CC;" d="M205.668,84.568c0.142,1.07,0.281,2.186-0.071,3.207c-0.352,1.021-1.356,1.904-2.423,1.74
				c-0.848-0.132-1.495-0.887-1.742-1.708c-0.249-0.822-0.171-1.703-0.062-2.554c0.109-0.852,0.257-1.724,0.698-2.461
				c0.441-0.738,1.24-1.32,2.098-1.266C205.025,81.579,205.387,82.46,205.668,84.568z"/>
			<path style="opacity:0.6;fill:#FFFFFF;" d="M203.972,82.42c0.998,0.924-0.578,2.735-1.349,1.871
				C201.689,83.243,203.178,81.683,203.972,82.42z"/>
		</g>
		<g>
			<path style="opacity:0.09;fill:#17014E;" d="M226.689,102.511c0.215-1.058,0.448-2.158,1.114-3.008
				c0.666-0.85,1.903-1.357,2.858-0.853c0.758,0.401,1.123,1.326,1.089,2.183c-0.033,0.858-0.394,1.665-0.776,2.435
				c-0.381,0.769-0.805,1.546-1.463,2.098c-0.658,0.554-1.603,0.842-2.397,0.512C226.321,105.547,226.267,104.595,226.689,102.511z"
				/>
			<path style="fill:#8237CC;" d="M225.732,102.631c0.037-1.079,0.085-2.203,0.601-3.151c0.516-0.948,1.652-1.653,2.678-1.315
				c0.814,0.27,1.327,1.122,1.435,1.973c0.11,0.852-0.113,1.707-0.362,2.529c-0.249,0.822-0.539,1.657-1.096,2.312
				c-0.557,0.655-1.441,1.096-2.279,0.902C225.871,105.685,225.661,104.756,225.732,102.631z"/>
			<path style="opacity:0.6;fill:#FFFFFF;" d="M228.088,99.397c1.101,0.799-0.247,2.785-1.116,2.019
				C225.92,100.488,227.212,98.761,228.088,99.397z"/>
		</g>
	</g>
	<path style="fill:none;stroke:#FFFFFF;stroke-linecap:round;stroke-linejoin:round;stroke-miterlimit:10;" d="M439.364,166.212
		v-2.966c0-0.334,0.178-0.642,0.467-0.809l1.973-1.139c0.366-0.212,0.557-0.647,0.442-1.055c-0.356-1.264-0.857-2.468-1.486-3.59
		c-0.207-0.369-0.648-0.541-1.057-0.432l-2.201,0.59c-0.322,0.086-0.666-0.006-0.902-0.242l-2.097-2.097
		c-0.236-0.236-0.328-0.58-0.242-0.902l0.59-2.201c0.109-0.409-0.063-0.85-0.432-1.057c-1.122-0.63-2.325-1.131-3.59-1.486
		c-0.407-0.115-0.843,0.076-1.055,0.442l-1.139,1.972c-0.167,0.289-0.475,0.467-0.809,0.467h-2.966
		c-0.334,0-0.642-0.178-0.809-0.467l-1.139-1.972c-0.211-0.367-0.647-0.557-1.055-0.442c-1.264,0.356-2.468,0.857-3.59,1.486
		c-0.369,0.207-0.541,0.648-0.432,1.057l0.59,2.201c0.086,0.322-0.006,0.666-0.242,0.902l-2.097,2.097
		c-0.236,0.236-0.58,0.328-0.902,0.242l-2.201-0.59c-0.409-0.109-0.85,0.063-1.057,0.432c-0.629,1.122-1.131,2.325-1.486,3.59
		c-0.115,0.407,0.075,0.843,0.442,1.055l1.972,1.139c0.289,0.167,0.467,0.475,0.467,0.809v2.966c0,0.334-0.178,0.642-0.467,0.809
		l-1.973,1.139c-0.366,0.212-0.557,0.647-0.442,1.055c0.355,1.264,0.857,2.468,1.486,3.59c0.207,0.369,0.648,0.541,1.057,0.432
		l2.201-0.59c0.322-0.086,0.666,0.006,0.902,0.242l2.097,2.097c0.236,0.236,0.328,0.58,0.242,0.902l-0.59,2.201
		c-0.109,0.409,0.063,0.85,0.432,1.057c1.122,0.629,2.325,1.131,3.59,1.486c0.407,0.115,0.843-0.076,1.055-0.442l1.139-1.972
		c0.167-0.289,0.475-0.467,0.809-0.467h2.966c0.334,0,0.642,0.178,0.809,0.467l1.139,1.972c0.212,0.367,0.647,0.557,1.055,0.442
		c1.264-0.356,2.467-0.857,3.59-1.486c0.369-0.207,0.541-0.648,0.432-1.057l-0.59-2.201c-0.086-0.322,0.006-0.666,0.242-0.902
		l2.097-2.097c0.236-0.236,0.58-0.328,0.902-0.242l2.201,0.59c0.409,0.109,0.85-0.063,1.057-0.432
		c0.63-1.122,1.131-2.325,1.486-3.59c0.115-0.407-0.076-0.843-0.442-1.055l-1.972-1.139
		C439.542,166.853,439.364,166.545,439.364,166.212z"/>
	<path style="fill:none;stroke:#17014E;stroke-linecap:round;stroke-linejoin:round;stroke-miterlimit:10;" d="M133.165,79.236
		V76.27c0-0.334,0.178-0.642,0.467-0.809l1.973-1.139c0.366-0.212,0.557-0.647,0.442-1.055c-0.355-1.264-0.857-2.467-1.486-3.59
		c-0.207-0.369-0.648-0.541-1.057-0.432l-2.201,0.59c-0.322,0.086-0.666-0.006-0.902-0.242l-2.097-2.097
		c-0.236-0.236-0.328-0.58-0.242-0.902l0.59-2.201c0.109-0.409-0.063-0.85-0.432-1.057c-1.122-0.629-2.325-1.131-3.59-1.486
		c-0.407-0.115-0.843,0.076-1.055,0.442l-1.139,1.973c-0.167,0.289-0.475,0.467-0.809,0.467h-2.966
		c-0.334,0-0.642-0.178-0.809-0.467l-1.139-1.972c-0.212-0.366-0.647-0.557-1.055-0.442c-1.264,0.356-2.467,0.857-3.59,1.486
		c-0.369,0.207-0.541,0.648-0.432,1.057l0.59,2.201c0.086,0.322-0.006,0.666-0.242,0.902l-2.097,2.097
		c-0.236,0.236-0.58,0.328-0.902,0.242l-2.201-0.59c-0.409-0.109-0.85,0.063-1.057,0.432c-0.63,1.122-1.131,2.325-1.486,3.59
		c-0.115,0.407,0.076,0.843,0.442,1.055l1.972,1.139c0.289,0.167,0.467,0.475,0.467,0.809v2.966c0,0.334-0.178,0.642-0.467,0.809
		l-1.972,1.139c-0.367,0.212-0.557,0.647-0.442,1.055c0.355,1.264,0.857,2.468,1.486,3.59c0.207,0.369,0.648,0.541,1.057,0.432
		l2.201-0.59c0.322-0.086,0.666,0.006,0.902,0.242l2.097,2.097c0.236,0.236,0.328,0.58,0.242,0.902l-0.59,2.201
		c-0.11,0.409,0.063,0.85,0.432,1.057c1.122,0.63,2.325,1.131,3.59,1.486c0.407,0.115,0.843-0.076,1.055-0.442l1.139-1.972
		c0.167-0.289,0.475-0.467,0.809-0.467h2.966c0.334,0,0.642,0.178,0.809,0.467l1.139,1.972c0.212,0.366,0.647,0.557,1.055,0.442
		c1.264-0.355,2.467-0.857,3.59-1.486c0.369-0.207,0.541-0.648,0.432-1.057l-0.59-2.201c-0.086-0.322,0.006-0.666,0.242-0.902
		l2.097-2.097c0.236-0.236,0.58-0.328,0.902-0.242l2.201,0.59c0.409,0.109,0.85-0.063,1.057-0.432
		c0.629-1.122,1.131-2.325,1.486-3.59c0.115-0.407-0.076-0.843-0.442-1.055l-1.972-1.139
		C133.342,79.878,133.165,79.57,133.165,79.236z"/>
	<path style="fill:none;stroke:#17014E;stroke-linecap:round;stroke-linejoin:round;stroke-miterlimit:10;" d="M238.063,463.79
		l0.656-4.062c0.074-0.457,0.386-0.84,0.818-1.004l2.953-1.123c0.549-0.209,0.906-0.764,0.839-1.347
		c-0.207-1.81-0.627-3.569-1.241-5.245c-0.202-0.551-0.768-0.885-1.352-0.825l-3.145,0.321c-0.46,0.047-0.911-0.155-1.182-0.531
		l-2.408-3.337c-0.271-0.375-0.321-0.867-0.131-1.289l1.295-2.884c0.24-0.535,0.102-1.178-0.357-1.543
		c-1.397-1.11-2.934-2.063-4.587-2.83c-0.533-0.247-1.172-0.083-1.542,0.372l-1.996,2.449c-0.292,0.359-0.754,0.534-1.211,0.46
		l-4.062-0.656c-0.457-0.074-0.84-0.386-1.004-0.818l-1.123-2.953c-0.209-0.549-0.764-0.906-1.347-0.839
		c-1.81,0.207-3.569,0.627-5.245,1.241c-0.551,0.202-0.885,0.768-0.825,1.352l0.32,3.145c0.047,0.46-0.155,0.911-0.531,1.182
		l-3.337,2.408c-0.375,0.271-0.867,0.321-1.289,0.131l-2.884-1.295c-0.535-0.24-1.178-0.102-1.543,0.357
		c-1.11,1.397-2.063,2.934-2.83,4.587c-0.247,0.533-0.083,1.172,0.372,1.542l2.449,1.996c0.359,0.292,0.534,0.754,0.46,1.211
		l-0.656,4.062c-0.074,0.457-0.386,0.84-0.818,1.004l-2.953,1.123c-0.549,0.209-0.906,0.763-0.839,1.347
		c0.207,1.811,0.627,3.569,1.241,5.245c0.202,0.551,0.768,0.885,1.352,0.825l3.145-0.321c0.46-0.047,0.911,0.155,1.182,0.531
		l2.408,3.337c0.271,0.375,0.321,0.867,0.131,1.289l-1.295,2.884c-0.24,0.535-0.102,1.178,0.357,1.543
		c1.397,1.11,2.934,2.063,4.587,2.83c0.533,0.247,1.172,0.083,1.542-0.372l1.996-2.449c0.292-0.359,0.754-0.534,1.211-0.46
		l4.062,0.656c0.457,0.074,0.84,0.386,1.004,0.818l1.123,2.953c0.209,0.549,0.764,0.906,1.347,0.839
		c1.81-0.207,3.569-0.627,5.245-1.241c0.551-0.202,0.885-0.768,0.825-1.352l-0.32-3.145c-0.047-0.46,0.155-0.911,0.531-1.182
		l3.337-2.408c0.375-0.271,0.867-0.321,1.289-0.131l2.884,1.295c0.535,0.24,1.178,0.102,1.543-0.357
		c1.11-1.397,2.063-2.934,2.83-4.587c0.247-0.533,0.083-1.172-0.372-1.542l-2.449-1.996
		C238.164,464.709,237.989,464.247,238.063,463.79z"/>
	<g>
		<path style="opacity:0.09;fill:#17014E;" d="M317.045,342.743L265.589,220.23c0.119-1.392-0.132-3.12-0.812-5.329
			c-2.741-8.91-17.998-45.395-23.279-59.038c-4.071-10.516-9.273-24.626-15.326-31.586c1.022-2.59,3.975-4.31,4.335-7.088
			c0.322-2.492-1.835-4.85-4.305-5.312c-2.47-0.461-5.026,0.63-6.909,2.295c-1.671,1.476-2.901,3.364-4.068,5.272
			c-0.235-0.022-0.461-0.045-0.705-0.067c-1.492-4.678-4.301-8.515-7.973-11.206c-0.793-0.582-1.739-1.137-2.703-0.939
			c-1.27,0.26-1.935,1.709-2.002,3.003c-0.134,2.619,1.367,6.151,2.952,8.584c-15.453-0.585-36.537-0.405-42.422-0.691
			c-8.604-0.418-17.094-1.892-24.753,13.535c-10.195,20.536-30.69,67.434-32.117,74.022c-0.325,1.501-0.425,2.901-0.324,4.16
			l-58.62,128.987c-3.289,7.238,1.929,15.472,9.879,15.587l56.336,0.815c4.559,0.066,8.688-2.681,10.389-6.911l13.593-33.805
			l89.493,1.294l12.609,34.184c1.578,4.278,5.626,7.143,10.185,7.209l57.678,0.834C314.669,358.153,320.124,350.073,317.045,342.743
			z M159.444,257.641l16.12-39.975l0,0c4.922-5.842,10.452-9.382,13.276-1.71s3.473,16.943,7.284,19.477
			c0.269,0.179,0.528,0.309,0.783,0.413l8.304,22.457L159.444,257.641z"/>
		<g>
			<g>
				<path style="fill:#EF5E9C;" d="M221.183,312.065h-89.503l-13.102,33.998c-1.64,4.255-5.729,7.061-10.288,7.061H51.948
					c-7.95,0-13.287-8.158-10.103-15.442l93.33-213.507c1.755-4.015,5.721-6.61,10.103-6.61h63.65c4.382,0,8.348,2.595,10.103,6.61
					l93.33,213.507c3.184,7.284-2.153,15.442-10.103,15.442h-57.684c-4.56,0-8.649-2.806-10.288-7.061L221.183,312.065z
					 M199.318,254.868l-22.879-59.225l-22.893,59.225H199.318z"/>
			</g>
			<path style="opacity:0.09;fill:#17014E;" d="M219.031,124.175c-1.755-4.015-5.721-6.61-10.103-6.61h-63.649
				c-4.382,0-8.348,2.595-10.103,6.61l-36.718,83.998l0.619,0.828c0,0-0.415,7.63,5.65,8.152c6.065,0.522,9.624-3.44,15.261-2.935
				c5.637,0.505,6.261,8.217,11.413,10.956c5.152,2.739,10.239,1.044,13.109-3.065c2.87-4.109,4.63-3.196,11.87-1.304
				c4.847,1.266,7.674,1.599,10.17,0.421l9.889-25.584l15.633,40.468c1.818-0.804,4.864-2.019,8.069-2.718
				c5.087-1.109,12.522-0.391,16.304,10.174c3.783,10.565,2.413,17.217,11.674,18.717c9.261,1.5,14.283-4.435,15.783-9.913
				c1.5-5.478,0.848-20.152,4.109-23.348c2.557-2.506,10.248-4.251,13.479-7.719L219.031,124.175z"/>
		</g>
		<g>
			<path style="fill:#8237CC;" d="M129.901,129.219c-9.897,20.681-29.712,67.871-31.043,74.478
				c-1.332,6.607,1.435,11.348,8.087,9.652c6.652-1.696,15.391-6.13,19.696,1.956c4.304,8.087,6.783,10.467,11.967,8.609
				c5.185-1.859,4.402-9,12.717-7.826c8.315,1.174,12.924,4.489,17.761-1.424s10.315-9.532,13.25-1.902
				c2.935,7.63,3.717,16.891,7.565,19.37c3.848,2.478,5.935-3,13.174-2.804c7.239,0.196,15.13,11.804,16.174,22.239
				c1.044,10.435,20.348,12.913,22.565-3.13c2.217-16.044,0-22.304,7.565-25.044c7.565-2.739,11.739-3.913,8.87-12.783
				c-2.87-8.87-18.652-45.131-24.13-58.696c-5.478-13.565-12.946-33.163-21.456-35.315c-8.511-2.152-49.598-0.978-58.207-1.272
				C145.847,115.034,137.336,113.683,129.901,129.219z"/>
			<path style="fill:none;stroke:#712BB5;stroke-linecap:round;stroke-linejoin:round;stroke-miterlimit:10;" d="M99.077,210.102
				c1.07,2.853,3.71,4.307,7.867,3.247c6.652-1.696,15.391-6.13,19.696,1.956c4.304,8.087,6.783,10.467,11.967,8.609
				c5.185-1.859,4.402-9,12.717-7.826c7.111,1.004,11.511,3.573,15.661,0.599"/>
		</g>
		<path style="opacity:0.6;fill:#FFFFFF;" d="M148.064,125.469c-8.438-2.722-22.304,29.348-24.13,41.609
			c-1.826,12.261,4.435,17.348,12,9.13C143.499,167.99,164.238,130.686,148.064,125.469z"/>
		<path style="opacity:0.6;fill:#FFFFFF;" d="M122.984,185.379c9.334,3.193,2.797,16.517-4.793,13.207
			C108.995,194.574,115.549,182.835,122.984,185.379z"/>
		<path style="fill:none;stroke:#712BB5;stroke-linecap:round;stroke-linejoin:round;stroke-miterlimit:10;" d="M193.666,232.363
			c2.232-0.943,4.756-3.161,9.409-3.036c7.239,0.196,15.13,11.804,16.174,22.239c1.044,10.435,20.348,12.913,22.565-3.13
			c2.217-16.044,0-22.304,7.565-25.044c4.449-1.611,7.725-2.68,9.085-5.092"/>
		<path style="fill:none;stroke:#712BB5;stroke-linecap:round;stroke-linejoin:round;stroke-miterlimit:10;" d="M166.986,216.688
			c0.703-0.504,1.399-1.167,2.1-2.023c4.837-5.913,10.315-9.532,13.25-1.902c2.935,7.63,3.717,16.891,7.565,19.37
			c1.374,0.885,2.524,0.755,3.764,0.231"/>
		<g>
			<path style="fill:#8237CC;" d="M197.548,116.33c-1.829-2.355-3.85-6.487-3.741-9.466c0.048-1.295,0.692-2.753,1.958-3.032
				c0.96-0.211,1.915,0.33,2.716,0.9c3.921,2.788,6.916,6.856,8.404,11.88c1.271-2.169,2.568-4.373,4.427-6.064
				c1.859-1.692,4.398-2.82,6.875-2.394c2.476,0.426,4.667,2.753,4.381,5.249c-0.334,2.909-3.525,4.702-4.359,7.508"/>
			<path style="fill:none;stroke:#712BB5;stroke-linecap:round;stroke-linejoin:round;stroke-miterlimit:10;" d="M197.548,116.33
				c-1.829-2.355-3.85-6.487-3.741-9.466c0.048-1.295,0.692-2.753,1.958-3.032c0.96-0.211,1.915,0.33,2.716,0.9
				c3.921,2.788,6.916,6.856,8.404,11.88c1.271-2.169,2.568-4.373,4.427-6.064c1.859-1.692,4.398-2.82,6.875-2.394
				c2.476,0.426,4.667,2.753,4.381,5.249c-0.334,2.909-3.525,4.702-4.359,7.508"/>
		</g>
	</g>
	<g>
		<g>
			<g>
				<path style="opacity:0.09;fill:#17014E;" d="M425.307,422.076c-64.045,3.738-128.361,2.846-192.278-2.665
					c-9.159-0.791-16.377-8.09-17.181-17.247c-4.363-49.699-3.953-99.029,0.05-146.563c0.759-9.001,7.735-16.263,16.715-17.24
					c63.73-6.939,128.33-7.006,193.908,0.249c9.195,1.017,16.277,8.609,16.723,17.849c2.357,48.931,2.717,98.032-0.215,147.911
					C442.47,413.9,434.838,421.521,425.307,422.076z"/>
				<path style="fill:#7F7AFF;" d="M421.965,416.24c-63.995,4.516-128.316,4.405-192.296-0.329
					c-9.168-0.68-16.474-7.891-17.389-17.037c-4.966-49.642-5.156-98.974-1.731-146.553c0.649-9.01,7.537-16.355,16.505-17.442
					c63.641-7.713,128.236-8.564,193.896-2.107c9.207,0.906,16.381,8.411,16.939,17.645c2.951,48.898,3.908,97.992,1.582,147.903
					C439.027,407.855,431.488,415.568,421.965,416.24z"/>
				<path style="fill:#5247BF;" d="M213.405,403.683c2.538,6.762,8.779,11.673,16.264,12.228
					c63.98,4.734,128.301,4.844,192.296,0.329c9.523-0.672,17.062-8.384,17.506-17.92c0.017-0.363,0.03-0.724,0.046-1.087
					c-3.315,4.651-8.453,8.082-13.899,10.039c-7.404,2.66-15.407,3.012-23.268,3.317c-52.351,2.035-104.818,3.243-157.103-0.085
					C233.929,409.784,221.937,408.578,213.405,403.683z"/>
				<path style="fill:none;stroke:#17014E;stroke-linecap:round;stroke-linejoin:round;stroke-miterlimit:10;" d="M208.465,336.605
					c-0.673-28.497,0.098-56.685,2.085-84.284c0.649-9.01,7.537-16.355,16.505-17.442c21.354-2.588,42.814-4.403,64.387-5.429"/>
				<path style="fill:none;stroke:#17014E;stroke-linecap:round;stroke-linejoin:round;stroke-miterlimit:10;" d="M395.748,230.647
					c8.384,0.589,16.784,1.296,25.203,2.124"/>
				<path style="fill:none;stroke:#17014E;stroke-linecap:round;stroke-linejoin:round;stroke-miterlimit:10;" d="M318.77,228.574
					c23.341-0.385,46.813,0.153,70.422,1.637"/>
			</g>
			<g>
				<path style="fill:#FFCF4E;" d="M418.192,381.823c-60.669,4.17-121.684,4.318-182.303,0.442c-4.094-0.263-7.41-3.422-7.912-7.492
					c-4.934-40-4.887-79.8-1.167-118.025c0.39-4.009,3.499-7.229,7.501-7.685c60.064-6.827,121.067-7.75,183.133-2.357
					c4.157,0.362,7.443,3.706,7.74,7.868c2.796,39.428,3.585,79.01,0.911,119.346C425.815,378.154,422.424,381.532,418.192,381.823z
					"/>
				<path style="fill:#FFAA08;" d="M417.445,246.706c-62.066-5.393-123.069-4.47-183.133,2.357
					c-4.002,0.456-7.111,3.676-7.501,7.685c-3.72,38.225-3.767,78.025,1.167,118.025c0.308,2.501,1.682,4.655,3.643,6.008
					c-3.714-40.6-4.348-81.505-1.401-123.179c0.225-3.187,2.754-5.744,5.937-6.012c62.417-5.267,125.249-5.581,187.717-0.965
					C422.491,248.451,420.156,246.941,417.445,246.706z"/>
			</g>
			<g>
				<path style="fill:#E3DEFF;" d="M414.185,237.762c-0.871-0.583-2.197-0.293-2.755,0.594c-0.558,0.887-0.252,2.2,0.634,2.759
					c0.886,0.559,2.193,0.278,2.78-0.589C415.431,239.658,415.169,238.421,414.185,237.762z"/>
				<path style="fill:#9F9CFF;" d="M403.692,236.973c-0.871-0.583-2.197-0.293-2.755,0.594c-0.558,0.887-0.252,2.2,0.634,2.759
					c0.886,0.559,2.193,0.278,2.78-0.59C404.939,238.868,404.676,237.632,403.692,236.973z"/>
				<path style="fill:#FFCF4E;" d="M393.203,236.299c-0.871-0.583-2.197-0.293-2.755,0.594c-0.558,0.887-0.252,2.2,0.634,2.759
					c0.886,0.559,2.193,0.278,2.78-0.589C394.449,238.194,394.187,236.958,393.203,236.299z"/>
			</g>
			<g>
				<path style="fill:#9F9CFF;" d="M234.308,392.287c-0.113,1.567-0.243,4.105-0.157,6.777c0.028,0.878,0.714,1.593,1.59,1.661
					c1.674,0.131,4.462,0.333,6.945,0.438c0.926,0.039,1.714-0.66,1.786-1.584c0.13-1.65,0.32-4.277,0.416-6.612
					c0.038-0.92-0.646-1.708-1.563-1.794c-1.839-0.172-4.897-0.429-7.266-0.482C235.143,390.67,234.374,391.374,234.308,392.287z"/>
				<path style="fill:none;stroke:#5247BF;stroke-linecap:round;stroke-linejoin:round;stroke-miterlimit:10;" d="M234.308,392.287
					c-0.113,1.567-0.243,4.105-0.157,6.777c0.028,0.878,0.714,1.593,1.59,1.661c1.674,0.131,4.462,0.333,6.945,0.438
					c0.926,0.039,1.714-0.66,1.786-1.584c0.13-1.65,0.32-4.277,0.416-6.612c0.038-0.92-0.646-1.708-1.563-1.794
					c-1.839-0.172-4.897-0.429-7.266-0.482C235.143,390.67,234.374,391.374,234.308,392.287z"/>
			</g>
			<g>
				<path style="fill:#9F9CFF;" d="M249.475,393.211c-0.113,1.567-0.243,4.105-0.157,6.777c0.028,0.878,0.714,1.593,1.589,1.661
					c1.674,0.131,4.462,0.333,6.945,0.438c0.926,0.039,1.714-0.66,1.786-1.584c0.13-1.65,0.32-4.277,0.416-6.612
					c0.038-0.92-0.646-1.708-1.563-1.794c-1.839-0.172-4.897-0.429-7.267-0.482C250.31,391.594,249.541,392.298,249.475,393.211z"/>
				<path style="fill:none;stroke:#5247BF;stroke-linecap:round;stroke-linejoin:round;stroke-miterlimit:10;" d="M249.475,393.211
					c-0.113,1.567-0.243,4.105-0.157,6.777c0.028,0.878,0.714,1.593,1.589,1.661c1.674,0.131,4.462,0.333,6.945,0.438
					c0.926,0.039,1.714-0.66,1.786-1.584c0.13-1.65,0.32-4.277,0.416-6.612c0.038-0.92-0.646-1.708-1.563-1.794
					c-1.839-0.172-4.897-0.429-7.267-0.482C250.31,391.594,249.541,392.298,249.475,393.211z"/>
			</g>
			<g>
				<path style="fill:#9F9CFF;" d="M411.586,392.126c0.084,1.569,0.273,4.103,0.692,6.743c0.138,0.868,0.907,1.491,1.785,1.449
					c1.677-0.08,4.468-0.228,6.945-0.435c0.924-0.077,1.618-0.869,1.574-1.796c-0.078-1.653-0.218-4.284-0.415-6.612
					c-0.078-0.918-0.855-1.614-1.775-1.585c-1.846,0.059-4.912,0.187-7.27,0.431C412.212,390.416,411.537,391.211,411.586,392.126z"
					/>
				<path style="fill:none;stroke:#5247BF;stroke-linecap:round;stroke-linejoin:round;stroke-miterlimit:10;" d="M411.586,392.126
					c0.084,1.569,0.273,4.103,0.692,6.743c0.138,0.868,0.907,1.491,1.785,1.449c1.677-0.08,4.468-0.228,6.945-0.435
					c0.924-0.077,1.618-0.869,1.574-1.796c-0.078-1.653-0.218-4.284-0.415-6.612c-0.078-0.918-0.855-1.614-1.775-1.585
					c-1.846,0.059-4.912,0.187-7.27,0.431C412.212,390.416,411.537,391.211,411.586,392.126z"/>
			</g>
		</g>
		<g>
			<g>
				
					<rect x="282.437" y="263.735" transform="matrix(1 0.007 -0.007 1 2.1635 -2.2791)" style="fill:none;stroke:#17014E;stroke-linecap:round;stroke-linejoin:round;stroke-miterlimit:10;" width="87.286" height="87.286"/>
				
					<rect x="367.486" y="261.501" transform="matrix(1 0.007 -0.007 1 1.8581 -2.5847)" style="fill:none;stroke:#17014E;stroke-linecap:round;stroke-linejoin:round;stroke-miterlimit:10;" width="5.084" height="5.084"/>
				
					<rect x="323.844" y="261.195" transform="matrix(1 0.007 -0.007 1 1.8601 -2.2855)" style="fill:none;stroke:#17014E;stroke-linecap:round;stroke-linejoin:round;stroke-miterlimit:10;" width="5.084" height="5.084"/>
				
					<rect x="280.203" y="260.888" transform="matrix(1 0.007 -0.007 1 1.8569 -1.979)" style="fill:none;stroke:#17014E;stroke-linecap:round;stroke-linejoin:round;stroke-miterlimit:10;" width="5.084" height="5.084"/>
				
					<rect x="367.18" y="305.143" transform="matrix(1 0.007 -0.007 1 2.1698 -2.5888)" style="fill:none;stroke:#17014E;stroke-linecap:round;stroke-linejoin:round;stroke-miterlimit:10;" width="5.084" height="5.084"/>
				
					<rect x="279.896" y="304.53" transform="matrix(1 0.007 -0.007 1 2.1573 -1.9703)" style="fill:none;stroke:#17014E;stroke-linecap:round;stroke-linejoin:round;stroke-miterlimit:10;" width="5.084" height="5.084"/>
				
					<rect x="366.874" y="348.785" transform="matrix(1 0.007 -0.007 1 2.4693 -2.5783)" style="fill:none;stroke:#17014E;stroke-linecap:round;stroke-linejoin:round;stroke-miterlimit:10;" width="5.084" height="5.084"/>
				
					<rect x="323.232" y="348.478" transform="matrix(1 0.007 -0.007 1 2.4661 -2.2727)" style="fill:none;stroke:#17014E;stroke-linecap:round;stroke-linejoin:round;stroke-miterlimit:10;" width="5.084" height="5.084"/>
				
					<rect x="279.59" y="348.172" transform="matrix(1 0.007 -0.007 1 2.4698 -1.9726)" style="fill:none;stroke:#17014E;stroke-linecap:round;stroke-linejoin:round;stroke-miterlimit:10;" width="5.084" height="5.084"/>
			</g>
			<g>
				<g>
					<path style="fill:#8237CC;" d="M336.749,324.959h-20.867l-3.689,9.573h-18.829l24.007-54.919h18.203l24.007,54.919h-19.142
						L336.749,324.959z M331.651,311.624l-5.334-13.808l-5.337,13.808H331.651z"/>
				</g>
				<path style="fill:#712BB5;" d="M299.001,321.636l-5.637,12.896h18.829l3.689-9.573h20.867l3.689,9.573h19.142l-11.286-25.818
					C340.899,312.766,323.572,320.628,299.001,321.636z"/>
				<g>
					<path style="fill:none;stroke:#712BB5;stroke-linecap:round;stroke-linejoin:round;stroke-miterlimit:10;" d="M317.37,279.613
						h18.203l11.183,25.582 M331.651,311.624l-5.334-13.808"/>
				</g>
			</g>
			<g>
				<path style="opacity:0.09;fill:#17014E;" d="M410.977,347.161c0.775-7.873,0.807-15.818,0.093-23.697
					c-0.22-2.444-2.099-4.428-4.533-4.732c-4.915-0.613-9.875-0.787-14.809-0.527c-2.5,0.132-4.554,2.052-4.872,4.535
					c-1.012,7.904-1.204,15.938-0.755,24.199c0.141,2.606,2.201,4.728,4.805,4.903c4.836,0.325,9.803,0.359,15.241,0.022
					C408.689,351.704,410.728,349.696,410.977,347.161z"/>
				<path style="fill:#8237CC;" d="M408.637,345.087c0.775-7.873,0.807-15.818,0.093-23.697c-0.22-2.444-2.099-4.428-4.533-4.732
					c-4.915-0.613-9.875-0.787-14.809-0.527c-2.5,0.132-4.554,2.052-4.872,4.535c-1.012,7.904-1.203,15.938-0.755,24.199
					c0.141,2.606,2.201,4.728,4.805,4.903c4.835,0.325,9.803,0.359,15.241,0.021C406.349,349.63,408.388,347.622,408.637,345.087z"
					/>
				<g>
					<path style="fill:#E3DEFF;" d="M408.215,355.662c-2.117,0.285-4.265,0.343-6.394,0.177c-1.326-0.102-2.428-1.102-2.645-2.413
						c-0.396-2.408-0.493-4.573-0.429-6.613c0.047-1.492,1.218-2.694,2.707-2.807c2.294-0.176,4.648-0.108,7.148,0.361
						c1.269,0.237,2.238,1.311,2.336,2.598c0.161,2.091,0.122,4.201-0.228,6.317C410.503,354.534,409.473,355.493,408.215,355.662z"
						/>
					<path style="fill:none;stroke:#17014E;stroke-linecap:round;stroke-linejoin:round;stroke-miterlimit:10;" d="M408.215,355.662
						c-2.117,0.285-4.265,0.343-6.394,0.177c-1.326-0.102-2.428-1.102-2.645-2.413c-0.396-2.408-0.493-4.573-0.429-6.613
						c0.047-1.492,1.218-2.694,2.707-2.807c2.294-0.176,4.648-0.108,7.148,0.361c1.269,0.237,2.238,1.311,2.336,2.598
						c0.161,2.091,0.122,4.201-0.228,6.317C410.503,354.534,409.473,355.493,408.215,355.662z"/>
				</g>
			</g>
			<g>
				<path style="opacity:0.09;fill:#17014E;" d="M363.6,351.593l-5.427-9.002c1.814-1.204,3.606-2.441,5.346-3.748l-17.43-8.112
					l0.259,18.732c1.907-0.953,3.775-1.979,5.623-3.04c1.632,3.125,3.403,6.177,5.321,9.135L363.6,351.593z"/>
				<path style="fill:#FFFFFF;stroke:#FFFFFF;stroke-linecap:round;stroke-linejoin:round;stroke-miterlimit:10;" d="
					M366.284,347.978l-6.489-8.269c1.653-1.417,3.279-2.864,4.846-4.375l-18.292-5.915l2.552,18.56
					c1.775-1.179,3.504-2.427,5.208-3.706c2.003,2.902,4.134,5.714,6.401,8.414L366.284,347.978z"/>
			</g>
			<g>
				<path style="opacity:0.09;fill:#17014E;" d="M417.307,285.013c-0.592-7.849-6.621-14.988-14.261-16.881
					c-8.011-1.985-16.643,1.843-20.696,8.59c-4.053,6.747-3.256,16.059,1.884,22.018c5.141,5.961,14.233,8.118,21.502,5.1
					C413.006,300.822,417.898,292.862,417.307,285.013z M402.482,290.799c-2.457,2.002-6.485,1.656-8.563-0.737
					c-2.078-2.392-1.855-6.43,0.471-8.58c2.327-2.151,6.369-2.054,8.591,0.204C405.74,284.491,404.938,288.798,402.482,290.799z"/>
				<path style="fill:#8237CC;" d="M416.231,283.083c-0.592-7.849-6.621-14.987-14.261-16.881
					c-8.011-1.985-16.643,1.843-20.696,8.59c-4.053,6.747-3.256,16.058,1.884,22.017c5.141,5.961,14.233,8.118,21.502,5.1
					C411.93,298.892,416.822,290.931,416.231,283.083z M401.406,288.87c-2.457,2.002-6.485,1.656-8.563-0.737
					c-2.078-2.392-1.855-6.43,0.471-8.58c2.327-2.151,6.369-2.054,8.591,0.204C404.664,282.561,403.861,286.868,401.406,288.87z"/>
				<path style="fill:#EE3A59;" d="M403.466,285.456c-0.313,1.353-1.041,2.583-2.06,3.413c-0.373,0.304-0.79,0.536-1.223,0.733
					l6.062,11.541c5.075-2.743,8.739-7.95,9.751-13.623L403.466,285.456z"/>
				<path style="fill:#EF5E9C;" d="M392.843,288.132c-0.648-0.746-1.046-1.658-1.252-2.617l-12.605,2.231
					c0.565,3.326,1.966,6.504,4.173,9.063c1.22,1.415,2.668,2.607,4.255,3.575l6.986-11.034
					C393.82,289.03,393.281,288.637,392.843,288.132z"/>
				<path style="fill:#E3DEFF;" d="M392.866,280.066l-9.008-8.586c-0.985,1.002-1.86,2.108-2.583,3.312
					c-2.313,3.85-3.04,8.534-2.289,12.954l12.605-2.231C391.182,283.622,391.622,281.547,392.866,280.066z"/>
				<path style="fill:#34A5D1;" d="M392.866,280.066c0.146-0.174,0.279-0.359,0.448-0.514c1.256-1.16,3.008-1.644,4.707-1.51
					l1.021-12.307c-5.663-0.434-11.317,1.813-15.184,5.745L392.866,280.066z"/>
				<path style="fill:#7F7AFF;" d="M401.97,266.202c-0.97-0.24-1.949-0.392-2.928-0.467l-1.021,12.307
					c1.45,0.115,2.861,0.674,3.884,1.714c0.305,0.31,0.559,0.64,0.78,0.982l9.971-7.165
					C410.058,269.994,406.269,267.267,401.97,266.202z"/>
				<path style="fill:#17014E;" d="M415.996,287.52c0.26-1.46,0.347-2.951,0.235-4.437c-0.259-3.432-1.557-6.728-3.576-9.51
					l-9.971,7.165c0.947,1.467,1.14,3.172,0.782,4.719L415.996,287.52z"/>
				<path style="fill:#17014E;" d="M416.231,283.083c-0.081-1.076-0.273-2.136-0.549-3.174c0.513,4.231-0.403,8.637-2.797,12.208
					c-4.134,6.17-12.371,9.43-19.748,7.82c-6.073-1.326-11.223-5.882-13.952-11.188c0.661,2.958,1.99,5.759,3.973,8.059
					c5.141,5.961,14.233,8.118,21.502,5.1C411.93,298.892,416.822,290.931,416.231,283.083z"/>
				<path style="fill:none;stroke:#17014E;stroke-linecap:round;stroke-linejoin:round;stroke-miterlimit:10;" d="M401.97,266.202
					c-8.011-1.985-16.643,1.843-20.696,8.59c-1.747,2.908-2.593,6.293-2.578,9.68 M401.406,288.87
					c-2.457,2.002-6.485,1.656-8.563-0.737c-2.078-2.392-1.855-6.43,0.471-8.58c2.327-2.151,6.369-2.054,8.591,0.204
					C404.664,282.561,403.861,286.868,401.406,288.87z"/>
			</g>
			<path style="fill:#EF5E9C;" d="M328.87,373.542h-82.726c-2.102,0-3.806-1.704-3.806-3.806l0,0c0-2.102,1.704-3.806,3.806-3.806
				h82.726c2.102,0,3.806,1.704,3.806,3.806l0,0C332.676,371.837,330.972,373.542,328.87,373.542z"/>
			<path style="fill:#EF5E9C;" d="M408.843,373.542h-61.014c-2.102,0-3.806-1.704-3.806-3.806l0,0c0-2.102,1.704-3.806,3.806-3.806
				h61.014c2.102,0,3.806,1.704,3.806,3.806l0,0C412.649,371.837,410.945,373.542,408.843,373.542z"/>
			<g>
				<path style="fill:#FFFFFF;" d="M244.22,297.86h19.667c3.723,0,6.741-3.018,6.741-6.741v-21.13c0-3.723-3.018-6.741-6.741-6.741
					H244.22c-3.723,0-6.741,3.018-6.741,6.741v21.13C237.478,294.842,240.496,297.86,244.22,297.86z"/>
				
					<line style="fill:none;stroke:#17014E;stroke-linecap:round;stroke-linejoin:round;stroke-miterlimit:10;" x1="244.338" y1="271.48" x2="264.87" y2="271.48"/>
				
					<line style="fill:none;stroke:#17014E;stroke-linecap:round;stroke-linejoin:round;stroke-miterlimit:10;" x1="244.338" y1="277.91" x2="264.87" y2="277.91"/>
				
					<line style="fill:none;stroke:#17014E;stroke-linecap:round;stroke-linejoin:round;stroke-miterlimit:10;" x1="244.338" y1="284.341" x2="254.604" y2="284.341"/>
			</g>
			<g>
				<path style="fill:#FFFFFF;" d="M244.22,353.504h19.667c3.723,0,6.741-3.018,6.741-6.741v-33.707
					c0-3.723-3.018-6.741-6.741-6.741H244.22c-3.723,0-6.741,3.018-6.741,6.741v33.707
					C237.478,350.485,240.496,353.504,244.22,353.504z"/>
				<path style="fill:#EE3A59;" d="M244.598,314.643h-2.681c-0.387,0-0.701,0.314-0.701,0.701v12.59
					c0,0.387,0.314,0.701,0.701,0.701h2.681c0.387,0,0.701-0.314,0.701-0.701v-12.59
					C245.299,314.957,244.985,314.643,244.598,314.643z"/>
				<path style="fill:#EE3A59;" d="M251.795,323.66h-2.681c-0.387,0-0.701,0.314-0.701,0.701v3.573c0,0.387,0.314,0.701,0.701,0.701
					h2.681c0.387,0,0.701-0.314,0.701-0.701v-3.573C252.496,323.974,252.182,323.66,251.795,323.66z"/>
				<path style="fill:#EE3A59;" d="M258.992,318.472h-2.682c-0.387,0-0.701,0.314-0.701,0.701v8.761
					c0,0.387,0.314,0.701,0.701,0.701h2.682c0.387,0,0.701-0.314,0.701-0.701v-8.761
					C259.694,318.786,259.38,318.472,258.992,318.472z"/>
				<path style="fill:#EE3A59;" d="M266.189,315.323h-2.681c-0.387,0-0.701,0.314-0.701,0.701v11.91
					c0,0.387,0.314,0.701,0.701,0.701h2.681c0.387,0,0.701-0.314,0.701-0.701v-11.91
					C266.891,315.636,266.577,315.323,266.189,315.323z"/>
				
					<line style="fill:none;stroke:#17014E;stroke-linecap:round;stroke-linejoin:round;stroke-miterlimit:10;" x1="241.215" y1="331.761" x2="266.891" y2="331.761"/>
				<path style="fill:#D6CEFF;" d="M249.902,347.717h-6.754c-1.067,0-1.932-0.865-1.932-1.932v-6.379
					c0-1.067,0.865-1.932,1.932-1.932h6.754c1.067,0,1.932,0.865,1.932,1.932v6.379
					C251.834,346.853,250.969,347.717,249.902,347.717z"/>
				<path style="fill:#D6CEFF;" d="M264.959,347.717h-7.417c-1.067,0-1.932-0.865-1.932-1.932v-6.379
					c0-1.067,0.865-1.932,1.932-1.932h7.417c1.067,0,1.932,0.865,1.932,1.932v6.379
					C266.891,346.853,266.026,347.717,264.959,347.717z"/>
			</g>
		</g>
	</g>
	<g>
		<path style="opacity:0.09;fill:#17014E;" d="M117.492,225.813c0.542,1.682,1.091,3.41,1.003,5.176
			c-0.089,1.765-0.952,3.604-2.556,4.349c-1.632,0.759-3.666,0.18-4.974-1.057c-1.308-1.238-1.988-3.009-2.318-4.779
			c-0.329-1.767-0.338-3.65,0.381-5.298c0.719-1.647,2.272-3.004,4.066-3.119C114.887,220.969,116.409,222.455,117.492,225.813z"/>
		<path style="fill:#8237CC;" d="M115.697,224.777c0.22,1.754,0.437,3.554,0.021,5.272c-0.416,1.717-1.607,3.364-3.321,3.797
			c-1.745,0.441-3.635-0.506-4.69-1.965c-1.054-1.46-1.393-3.327-1.388-5.127c0.006-1.797,0.348-3.649,1.361-5.134
			c1.013-1.484,2.792-2.528,4.576-2.307C114.04,219.533,115.259,221.277,115.697,224.777z"/>
		<path style="opacity:0.6;fill:#FFFFFF;" d="M110.554,221.279c-1.949-0.849-3.471,2.33-2.155,3.285
			C110.52,226.103,112.675,222.203,110.554,221.279z"/>
	</g>
	<g>
		<path style="opacity:0.09;fill:#17014E;" d="M203.552,247.041c-0.048,1.702-0.11,3.47-0.791,4.985
			c-0.681,1.516-2.173,2.695-3.618,2.295c-1.009-0.278-1.788-1.276-2.129-2.4c-0.341-1.123-0.299-2.357-0.11-3.529
			c0.318-1.98,1.176-4.026,2.775-4.861C201.278,242.694,203.643,243.788,203.552,247.041z"/>
		<path style="fill:#8237CC;" d="M203.162,245.449c-0.411,1.637-0.849,3.333-1.834,4.61c-0.985,1.278-2.684,2.001-3.998,1.207
			c-0.919-0.554-1.46-1.74-1.55-2.926c-0.09-1.185,0.215-2.369,0.648-3.452c0.733-1.83,2.002-3.572,3.73-3.932
			C201.889,240.596,203.947,242.322,203.162,245.449z"/>
		<path style="opacity:0.6;fill:#FFFFFF;" d="M200.522,242.159c-1.016-0.754-3.599,1.678-1.945,2.965
			C200.23,246.411,202.007,243.261,200.522,242.159z"/>
	</g>
	<g>
		<path style="opacity:0.09;fill:#17014E;" d="M151.714,234.318c-0.048,1.703-0.11,3.47-0.791,4.985
			c-0.681,1.516-2.173,2.695-3.618,2.295c-1.009-0.278-1.788-1.276-2.129-2.4c-0.341-1.123-0.299-2.357-0.11-3.529
			c0.318-1.98,1.176-4.026,2.775-4.861C149.441,229.971,151.805,231.066,151.714,234.318z"/>
		<path style="fill:#8237CC;" d="M151.325,232.726c-0.411,1.637-0.849,3.333-1.834,4.61c-0.985,1.278-2.684,2.001-3.998,1.206
			c-0.919-0.554-1.46-1.74-1.55-2.926c-0.09-1.185,0.215-2.37,0.648-3.452c0.733-1.83,2.002-3.572,3.73-3.932
			C150.052,227.873,152.109,229.599,151.325,232.726z"/>
		<path style="opacity:0.6;fill:#FFFFFF;" d="M148.684,229.436c-1.016-0.754-3.599,1.678-1.945,2.965
			S150.17,230.538,148.684,229.436z"/>
	</g>
</g>
</svg>
