<?xml version="1.0" encoding="utf-8"?>
<!-- Generator: Adobe Illustrator 27.5.0, SVG Export Plug-In . SVG Version: 6.00 Build 0)  -->
<svg version="1.1" xmlns="http://www.w3.org/2000/svg" xmlns:xlink="http://www.w3.org/1999/xlink" x="0px" y="0px"
	 viewBox="0 0 500 500" style="enable-background:new 0 0 500 500;" xml:space="preserve">
<g id="Floor">
	<ellipse id="Floor_3_" style="fill:#27DEBF;" cx="249.99" cy="350.781" rx="211.819" ry="116.894"/>
	<ellipse id="Floor_1_" style="opacity:0.1;" cx="249.99" cy="350.781" rx="211.819" ry="116.894"/>
</g>
<g id="Shadow">
	<path id="Shadow_2_" style="opacity:0.2;" d="M68.144,339.95c-8.28,4.572-15.19,19.191,1.654,22.055
		c5.397,0.917,15.097,0.148,26.177-1.869c7.855-1.43,14.888-1.25,21.828,2.697c5.148,2.927,11.376,6.513,18.239,9.599
		c41.275,18.56,52.048,1.025,52.048,1.025c3.394,1.323,8.256,0.499,14.169,1.729c6.923,1.44,17.862,11.041,36.146,8.503
		c18.285-2.538,15.266-14.98-9.873-21.793c-25.139-6.813-97.026-30.271-118.739-33.243C88.082,325.68,68.144,339.95,68.144,339.95z"
		/>
</g>
<g id="Flowers_3_">
	<g id="Flowers">
		<g id="XMLID_428_">
			<g>
				<path style="fill:#27DEBF;" d="M354.779,373.936c-0.218,0.133-0.445,0.256-0.664,0.379c-7.261,4.019-13.555,2.711-15.972,0.114
					c0,0-2.626-11.849,7.327-18.768c9.962-6.92,19.422-5.374,19.422-5.374S367.073,366.637,354.779,373.936z"/>
				<path style="opacity:0.25;" d="M354.779,373.936c-0.218,0.133-0.445,0.256-0.664,0.379c-7.261,4.019-13.555,2.711-15.972,0.114
					c0,0-2.626-11.849,7.327-18.768c9.962-6.92,19.422-5.374,19.422-5.374S367.073,366.637,354.779,373.936z"/>
				<path style="opacity:0.2;" d="M354.779,373.936c-0.218,0.133-0.445,0.256-0.664,0.379c-7.261,4.019-13.555,2.711-15.972,0.114
					c4.749-14.948,26.749-24.142,26.749-24.142S367.073,366.637,354.779,373.936z"/>
			</g>
			<g>
				<path style="fill:#27DEBF;" d="M335.506,383.009c0,0-5.058,10.482,3.457,16.851c8.37,6.261,22.612,4.126,22.612,4.126
					s1.562-14.634-9.051-21.188C343.529,377.242,335.506,383.009,335.506,383.009z"/>
				<path style="opacity:0.25;" d="M335.506,383.009c0,0-5.058,10.482,3.457,16.851c8.37,6.261,22.612,4.126,22.612,4.126
					s1.562-14.634-9.051-21.188C343.529,377.242,335.506,383.009,335.506,383.009z"/>
				<path style="opacity:0.2;" d="M338.964,399.859c8.37,6.261,22.612,4.126,22.612,4.126
					c-6.022-12.931-26.069-20.977-26.069-20.977S330.448,393.491,338.964,399.859z"/>
			</g>
			<path id="XMLID_459_" style="fill:#455A64;" d="M304.849,360.141c-0.284,0.319-0.52,0.681-0.693,1.071
				c-0.533,1.203-0.485,2.628,0.03,3.839c-0.103-0.241-1.421,1.047-1.508,1.177c-0.406,0.602-0.626,1.36-0.557,2.086
				c0.156,1.653,1.564,3.118,2.777,4.118c3.495,2.882,9.421,4.652,13.93,4.616c-0.76,0.233-4.359,0.522-7.824,0.115
				c-2.801-0.329-5.704-1.643-8.513-1.899c-1.897-0.173-2.691,0.9-2.989,1.949c-0.325,1.144,0.044,2.34,1.287,3.175
				c-1.315-0.027-2.75,0.39-3.472,1.49c-0.732,1.115-0.503,2.686,0.324,3.733s2.139,1.621,3.457,1.823
				c1.319,0.203,2.663,0.073,3.991-0.056c-1.089,1.032-0.772,2.985,0.339,3.993c1.111,1.008,2.729,1.243,4.226,1.147
				c4.816-0.309,8.92-3.448,12.696-6.454c-1.447,1.904-1.954,4.489-1.335,6.799c0.572,2.135,2.324,4.043,4.272,5.074
				c0.892,0.472,2.026,0.613,2.896,0.101c0.519-0.305,0.905-0.814,1.453-1.062c0.525-0.237,1.14-0.203,1.689-0.028
				c1.491,0.477,2.982,1.117,4.425-0.07c0.569-0.468,0.975-1.234,1.006-1.979c0,0,2.411,0.415,4.761-1.289
				c2.077-1.506,1.796-3.657,0.082-5.426c-1.839-1.897-4.259-2.966-5.933-5.198c2.722,2.017,6.374,3.664,9.805,3.839
				c3.623,0.185,7.239,0.438,10.731-0.879c1.099-0.415,2.21-0.992,2.833-1.989c0.623-0.996,0.553-2.503-0.422-3.159
				c1.152-0.799,2.211-1.814,2.741-3.112c0.529-1.298,0.429-2.918-0.519-3.951c-0.894-0.974-2.47-1.237-3.632-0.607
				c1.069-1.137,0.504-3.188-0.824-4.008c-1.328-0.82-3.071-0.634-4.5-0.008c-1.43,0.626-2.649,1.637-3.962,2.483
				c-2.59,1.668-5.553,2.582-8.65,2.565c3.433-2.63,5.439-6.878,5.794-11.188c0.091-1.105,0.077-2.244-0.292-3.29
				c-0.369-1.046-1.142-1.994-2.192-2.352c-1.05-0.358-2.363,0.005-2.911,0.97c-0.346-2.791-2.712-5.755-5.8-4.741
				c-1.458,0.479-2.581,1.764-3.037,3.23c0.194-0.624-1.615-0.982-1.943-1.005c-0.868-0.06-1.746,0.307-2.333,0.948
				c-0.807,0.882-1.089,2.142-1.045,3.336c0.044,1.195,0.38,2.356,0.664,3.518c0.735,3.01,1.402,6.423,1.157,9.523
				c-2.461-2.534-4.281-5.928-5.374-9.276c-0.388-1.185-0.692-2.403-1.205-3.539c-1.174-2.602-4.187-4.901-7.144-3.837
				c-1.647,0.593-2.892,2.176-3.079,3.916c-0.686-1.123-2.103-1.716-3.403-1.512C306.246,358.999,305.442,359.475,304.849,360.141z"
				/>
			<path style="fill:#37474F;" d="M350.427,377.81c-1.448,0.727-3.401,1.01-4.999,1.128c-1.739,0.129-3.498,0.022-5.224-0.21
				c-1.625-0.218-3.25-0.471-4.857-0.801c-0.783-0.161-1.563-0.352-2.332-0.57c-0.685-0.194-1.347-0.467-2.041-0.608
				c0.177-0.212,0.344-0.436,0.516-0.647c0.381-0.465,0.755-0.938,1.084-1.441c0.742-1.134,1.281-2.449,1.722-3.727
				c0.492-1.427,0.841-2.857,1.091-4.345c0.215-1.279,0.666-2.997,0.035-4.219c-0.068-0.132-0.289-0.282-0.357-0.054
				c-0.183,0.614-0.271,1.222-0.488,1.835c-0.227,0.641-0.447,1.286-0.632,1.94c-0.393,1.386-0.825,2.764-1.376,4.095
				c-0.495,1.196-1.021,2.419-1.735,3.504c-0.335,0.509-0.727,0.978-1.11,1.451c-0.287,0.354-0.649,0.72-0.828,1.15
				c-0.21-0.037-0.434-0.017-0.647,0.091c-0.087,0.044-0.172,0.092-0.259,0.137c-0.206-0.056-0.42-0.092-0.59-0.136
				c-0.409-0.106-0.819-0.208-1.226-0.322c-0.856-0.24-1.669-0.561-2.459-0.968c-1.394-0.719-2.733-1.55-3.953-2.538
				c-1.189-0.963-2.112-2.065-3.045-3.266c-0.617-0.794-1.192-1.62-1.791-2.428c-0.455-0.613-1.002-1.267-1.216-2.012
				c-0.044-0.154-0.214-0.184-0.235,0.004c-0.066,0.586,0.122,1.12,0.372,1.642c0.398,0.831,0.836,1.65,1.258,2.47
				c0.86,1.67,1.858,3.135,3.242,4.414c1.344,1.242,2.859,2.348,4.492,3.179c0.841,0.428,1.715,0.779,2.621,1.046
				c0.116,0.034,0.233,0.069,0.349,0.103c-0.618,0.341-1.24,0.676-1.884,0.974c-1.446,0.669-2.924,1.28-4.43,1.798
				c-3.355,1.154-6.816,1.753-10.339,2.079c-0.252,0.023-0.136,0.539,0.071,0.573c6.346,1.05,13.054-1.058,18.614-4.232
				c-0.134,1.854,0.152,3.73,0.679,5.513c0.368,1.243,0.832,2.487,1.438,3.633c0.315,0.596,0.637,1.184,0.994,1.757
				c0.325,0.521,0.732,1.04,0.988,1.603c0.075,0.164,0.209,0.051,0.211-0.087c0.018-0.964-0.281-1.771-0.606-2.672
				c-0.456-1.261-0.938-2.518-1.298-3.811c-0.636-2.289-0.954-4.791-0.433-7.132c0.003-0.016-0.003-0.028-0.001-0.043
				c0.026,0.042,0.04,0.085,0.078,0.125c0.553,0.594,1.435,0.797,2.188,1.031c0.965,0.3,1.944,0.521,2.938,0.7
				c1.744,0.315,3.499,0.612,5.268,0.747c1.784,0.137,3.575,0.186,5.353-0.062c0.904-0.126,1.816-0.33,2.673-0.644
				c0.865-0.317,1.484-0.824,2.245-1.308C350.715,378.15,350.635,377.706,350.427,377.81z"/>
			<g id="XMLID_429_">
				<path id="XMLID_453_" style="fill:#F0997A;" d="M331.292,375.899c2.403,1.091,2.844,3.053,0.985,4.382
					c-1.858,1.33-5.312,1.523-7.715,0.433c-2.402-1.091-2.843-3.053-0.985-4.382C325.436,375.002,328.89,374.809,331.292,375.899z"
					/>
				<path id="XMLID_432_" style="opacity:0.05;" d="M329.427,380.065c-2.914,0.564-6.006-0.613-6.985-2.06
					c-0.12,0.998,0.614,2.025,2.12,2.709c2.402,1.091,5.857,0.897,7.715-0.433c1.216-0.87,1.43-2.008,0.771-2.998
					C332.835,378.379,331.846,379.597,329.427,380.065z"/>
			</g>
		</g>
		<g id="Flowers_1_">
			<g id="XMLID_461_">
				<path id="XMLID_463_" style="fill:#FAFAFA;" d="M393.839,378.166c0,0-0.425-3.179-2.955-3.366c0,0-2.074-0.215-3.017,3.048
					c0,0-2.586-1.1-5.888,1.05c0,0-0.387,3,2.99,3.937c0,0-1.847,1.602-0.717,5.081c0,0,5.237,1.394,6.295-1.876
					c0,0,0.632,2.823,5.65,2.513c0,0,1.998-2.871-0.352-5.702c0,0,3.528-0.332,3.936-2.99
					C399.782,379.86,397.141,376.016,393.839,378.166z"/>
				<path id="XMLID_462_" style="fill:#F0997A;" d="M390.785,378.863c-2.463-0.067-3.532,1.825-3.646,2.582
					c0,0,0.118,1.862,3.334,1.938c3.216,0.075,3.584-1.827,3.584-1.827S393.792,378.946,390.785,378.863z"/>
			</g>
			<g id="XMLID_457_">
				<path id="XMLID_460_" style="fill:#FAFAFA;" d="M399.895,360.569c0,0-1.264-2.203-3.12-2.352c0,0-1.586,1.379-1.625,3.378
					c0,0-2.189-0.476-3.971,1.239c0,0,0.639,2.227,2.746,2.799c0,0-0.725,2.156,0.391,4.198c0,0,3.565,0.044,4.632-2.991
					c0,0,1.436,1.883,5.008,0.974c0,0,0.9-2.526-1.58-4.22c0,0,2.155-1.426,1.76-3.559
					C404.135,360.036,402.326,359.344,399.895,360.569z"/>
				<path id="XMLID_458_" style="fill:#F0997A;" d="M397.959,362.032c-1.812,0.225-2.384,1.73-2.384,2.298
					c0,0,0.294,1.351,2.659,1.048c2.364-0.303,2.422-1.738,2.422-1.738S400.172,361.757,397.959,362.032z"/>
			</g>
			<path id="XMLID_454_" style="fill:#FAFAFA;" d="M381.278,363.083c0,0-0.821-1.987-2.113-1.209
				c-1.291,0.779-0.748,2.026,0.43,2.245c0,0-2.444,0.966-1.666,2.257c0.779,1.291,2.839-0.233,3.26-0.958
				c0,0,0.59,2.014,2.285,1.175c1.695-0.839-0.153-2.477-0.153-2.477s2.604-1.204,1.079-2.333
				C382.876,360.655,381.278,363.083,381.278,363.083z"/>
			<path id="XMLID_450_" style="fill:#FAFAFA;" d="M408.612,374.225c0,0,0.073-2.149-1.424-1.974
				c-1.498,0.175-1.519,1.536-0.536,2.222c0,0-2.625-0.13-2.45,1.367c0.175,1.498,2.682,0.96,3.365,0.474
				c0,0-0.295,2.078,1.596,2.015c1.89-0.063,0.884-2.319,0.884-2.319s2.869-0.02,1.946-1.678
				C411.07,372.674,408.612,374.225,408.612,374.225z"/>
			<path id="XMLID_448_" style="fill:#FAFAFA;" d="M373.144,375.746c0,0-1.865-2.17-0.589-2.803c1.277-0.633,1.95,1.299,1.95,1.299
				s1.215-1.633,1.904-0.568c0.689,1.065-0.826,2.336-0.826,2.336s1.853,0.855,0.878,1.885c-0.975,1.03-2.311-0.411-2.311-0.411
				s-0.601,1.768-1.726,1.353C371.301,378.422,371.867,376.379,373.144,375.746z"/>
		</g>
		<g id="Flowers_2_">
			<g id="XMLID_421_">
				<path id="XMLID_443_" style="fill:#FAFAFA;" d="M317.708,412.718c0,0-1.882-2.86-4.393-2.909c0,0-2.02,1.986-1.909,4.681
					c0,0-2.986-0.461-5.242,1.994c0,0,1.043,2.944,3.926,3.542c0,0-0.798,2.961,0.872,5.618c0,0,4.802-0.235,5.987-4.406
					c0,0,2.087,2.415,6.82,0.898c0,0,1.003-3.473-2.474-5.549c0,0,2.783-2.097,2.075-4.935
					C323.371,411.652,320.88,410.869,317.708,412.718z"/>
				<path id="XMLID_441_" style="fill:#F0997A;" d="M315.224,414.846c-2.42,0.452-3.066,2.525-3.019,3.289
					c0,0,0.507,1.794,3.664,1.192c3.157-0.602,3.117-2.538,3.117-2.538S318.178,414.294,315.224,414.846z"/>
			</g>
			<g id="XMLID_416_">
				<path id="XMLID_419_" style="fill:#FAFAFA;" d="M283.697,405.218c0,0-1.597-2.199-3.59-2.145c0,0-1.529,1.649-1.342,3.781
					c0,0-2.384-0.255-4.083,1.774c0,0,0.936,2.296,3.243,2.664c0,0-0.523,2.377,0.898,4.422c0,0,3.799-0.363,4.585-3.714
					c0,0,1.744,1.838,5.441,0.461c0,0,0.668-2.791-2.166-4.309c0,0,2.13-1.765,1.464-3.989
					C288.148,404.164,286.143,403.635,283.697,405.218z"/>
				<path id="XMLID_417_" style="fill:#F0997A;" d="M281.805,406.996c-1.902,0.447-2.339,2.115-2.272,2.719
					c0,0,0.468,1.404,2.949,0.81c2.481-0.594,2.378-2.127,2.378-2.127S284.128,406.45,281.805,406.996z"/>
			</g>
			<path id="XMLID_414_" style="fill:#FAFAFA;" d="M300.12,405.105c0,0-0.96-2.736-2.756-1.782
				c-1.796,0.953-1.156,2.673,0.414,3.053c0,0-3.362,1.121-2.408,2.917c0.953,1.796,3.839-0.106,4.46-1.051
				c0,0,0.647,2.754,2.991,1.75c2.344-1.005-0.024-3.346-0.024-3.346s3.595-1.43,1.624-3.061
				C302.448,401.954,300.12,405.105,300.12,405.105z"/>
			<path id="XMLID_314_" style="fill:#FAFAFA;" d="M291.745,423.295c0,0-3.778,0.782-3.691-1.137
				c0.088-1.919,2.806-1.451,2.806-1.451s-1.133-2.5,0.574-2.617c1.707-0.117,2.216,2.5,2.216,2.5s2.219-1.627,2.797,0.195
				c0.578,1.823-1.995,2.457-1.995,2.457s1.693,1.864,0.469,2.92C293.697,427.217,291.657,425.214,291.745,423.295z"/>
		</g>
	</g>
</g>
<g id="Plants">
	<g id="Plants_4_">
		<g id="XMLID_102_">
			<path id="XMLID_105_" style="fill:#27DEBF;" d="M83.205,302.023l8.804-4.125c0,0,3.593-17.79,3.416-31.821
				c-0.248-19.716-10.861-44.322-26.397-40.087c-15.536,4.236,4.73,26.028,8.201,43.03C80.7,286.021,83.205,302.023,83.205,302.023z
				"/>
			<path id="XMLID_104_" style="opacity:0.3;" d="M83.205,302.023l8.804-4.125c0,0,3.593-17.79,3.416-31.821
				c-0.248-19.716-10.861-44.322-26.397-40.087c-15.536,4.236,4.73,26.028,8.201,43.03C80.7,286.021,83.205,302.023,83.205,302.023z
				"/>
			<path id="XMLID_103_" style="fill:#FFFFFF;" d="M87.792,300.361c-0.006,0-0.011-0.001-0.017-0.001
				c-0.279-0.034-0.479-0.287-0.445-0.567c5.192-43.317-14.564-67.022-14.764-67.255c-0.183-0.214-0.158-0.536,0.056-0.718
				c0.216-0.183,0.538-0.158,0.719,0.056c0.204,0.238,20.246,24.283,15.002,68.04C88.309,300.188,88.065,300.385,87.792,300.361z"/>
		</g>
		<g id="XMLID_98_">
			<path id="XMLID_101_" style="fill:#27DEBF;" d="M77.672,304.591l6.264-2.936c0,0,2.071-12.242-2.692-27.736
				c-4.146-13.489-16.277-25.423-23.038-23.712c-6.761,1.711-6.997,6.382-4.213,11.54C56.777,266.907,75.259,280.217,77.672,304.591
				z"/>
			<path id="XMLID_100_" style="opacity:0.15;" d="M77.672,304.591l6.264-2.936c0,0,2.071-12.242-2.692-27.736
				c-4.146-13.489-16.277-25.423-23.038-23.712c-6.761,1.711-6.997,6.382-4.213,11.54C56.777,266.907,75.259,280.217,77.672,304.591
				z"/>
			<path id="XMLID_99_" style="fill:#FFFFFF;" d="M80.933,303.551l-0.002,0c-0.28-0.026-0.487-0.273-0.462-0.554
				c2.469-27.458-21.733-48.23-21.979-48.437c-0.215-0.181-0.242-0.503-0.06-0.718c0.18-0.214,0.501-0.244,0.718-0.06
				c0.248,0.21,24.852,21.327,22.336,49.307C81.459,303.368,81.213,303.575,80.933,303.551z"/>
		</g>
	</g>
	<g id="Plants_3_">
		<g id="XMLID_91_">
			<g id="XMLID_96_">
				<path id="XMLID_97_" style="fill:#27DEBF;" d="M410.612,300.375l-8.307-4.8c0,0-4.944-20.543-2.974-39.028
					c2.77-25.989,16.756-37.312,26.382-33.527c6.403,2.518,8.389,9.804-2.375,25.283
					C416.988,257.436,409.187,276.458,410.612,300.375z"/>
			</g>
			<g id="XMLID_94_" style="opacity:0.3;">
				<path id="XMLID_95_" d="M410.612,300.375l-8.307-4.8c0,0-4.944-20.543-2.974-39.028c2.77-25.989,16.756-37.312,26.382-33.527
					c6.403,2.518,8.389,9.804-2.375,25.283C416.988,257.436,409.187,276.458,410.612,300.375z"/>
			</g>
			<g id="XMLID_92_">
				<path id="XMLID_93_" style="fill:#FFFFFF;" d="M407.17,290.283c0.027-0.001,0.053-0.005,0.079-0.01
					c0.313-0.06,0.518-0.361,0.459-0.673c-4.553-23.971,3.82-50.907,14.19-62.116c0.216-0.233,0.202-0.598-0.032-0.814
					c-0.234-0.214-0.598-0.202-0.814,0.032c-10.559,11.413-19.096,38.789-14.475,63.113
					C406.63,290.101,406.888,290.297,407.17,290.283z"/>
			</g>
		</g>
		<g id="XMLID_82_">
			<g id="XMLID_89_">
				<path id="XMLID_90_" style="fill:#27DEBF;" d="M432.373,312.942c1.312,0.668,4.802-2.319,5.775-3.046
					c1.665-1.243,2.979-2.952,3.814-4.851c0.971-2.21,1.126-4.534,0.668-6.901c-0.238-1.228-0.645-2.416-1.05-3.599
					c-0.398-1.162-0.797-2.323-1.195-3.485c-0.393-1.146-0.791-2.332-0.698-3.54c0.187-2.434,2.248-4.236,4.126-5.796
					c2.076-1.725,4.216-3.971,4.057-6.881c-0.123-2.246-1.391-4.273-2.872-5.966c-1.481-1.693-3.211-3.167-4.563-4.964
					c-0.973-1.294-1.759-2.832-1.693-4.45c0.041-1.005,0.408-1.969,0.843-2.876c0.933-1.947,2.201-3.752,2.807-5.824
					c0.606-2.072,0.378-4.6-1.285-5.977c-1.365-1.13-3.312-1.199-5.072-0.994c-1.628,0.19-3.187,1.008-4.576,1.875
					c-4.492,2.803-6.854,8.41-11.658,10.635c-1.853,0.858-3.917,1.13-5.863,1.75c-1.946,0.621-3.905,1.729-4.726,3.599
					c-1.619,3.686,1.945,7.95,0.872,11.83c-0.949,3.434-4.167,4.893-5.856,8.03c-0.739,1.372-0.847,2.921-0.639,4.466
					c0.353,2.614,0.834,4.522,2.241,7.378c1.163,2.36,4.438,6.822,4.438,6.822S432.172,312.84,432.373,312.942z"/>
			</g>
			<g id="XMLID_87_" style="opacity:0.15;">
				<path id="XMLID_88_" d="M432.373,312.942c1.312,0.668,4.802-2.319,5.775-3.046c1.665-1.243,2.979-2.952,3.814-4.851
					c0.971-2.21,1.126-4.534,0.668-6.901c-0.238-1.228-0.645-2.416-1.05-3.599c-0.398-1.162-0.797-2.323-1.195-3.485
					c-0.393-1.146-0.791-2.332-0.698-3.54c0.187-2.434,2.248-4.236,4.126-5.796c2.076-1.725,4.216-3.971,4.057-6.881
					c-0.123-2.246-1.391-4.273-2.872-5.966c-1.481-1.693-3.211-3.167-4.563-4.964c-0.973-1.294-1.759-2.832-1.693-4.45
					c0.041-1.005,0.408-1.969,0.843-2.876c0.933-1.947,2.201-3.752,2.807-5.824c0.606-2.072,0.378-4.6-1.285-5.977
					c-1.365-1.13-3.312-1.199-5.072-0.994c-1.628,0.19-3.187,1.008-4.576,1.875c-4.492,2.803-6.854,8.41-11.658,10.635
					c-1.853,0.858-3.917,1.13-5.863,1.75c-1.946,0.621-3.905,1.729-4.726,3.599c-1.619,3.686,1.945,7.95,0.872,11.83
					c-0.949,3.434-4.167,4.893-5.856,8.03c-0.739,1.372-0.847,2.921-0.639,4.466c0.353,2.614,0.834,4.522,2.241,7.378
					c1.163,2.36,4.438,6.822,4.438,6.822S432.172,312.84,432.373,312.942z"/>
			</g>
			<g id="XMLID_85_">
				<path id="XMLID_86_" style="fill:#FFFFFF;" d="M419.658,306.315c0.008,0,0.016-0.001,0.016-0.001
					c0.325-0.03,0.558-0.311,0.53-0.627c-2.103-22.8,7.39-48.567,14.849-56.29c0.221-0.229,0.215-0.593-0.014-0.815
					c-0.23-0.221-0.593-0.214-0.815,0.014c-7.609,7.878-17.3,34.075-15.168,57.196C419.083,306.102,419.351,306.331,419.658,306.315
					z"/>
			</g>
			<g id="XMLID_83_">
				<path id="XMLID_84_" style="fill:#FFFFFF;" d="M421.922,278.203c0.056-0.003,0.113-0.014,0.168-0.035
					c7.226-2.639,16.355-3.501,16.446-3.509c0.317-0.029,0.55-0.31,0.522-0.627c-0.03-0.316-0.283-0.555-0.627-0.522
					c-0.093,0.009-9.367,0.884-16.735,3.576c-0.299,0.109-0.453,0.44-0.344,0.738C421.441,278.068,421.676,278.215,421.922,278.203z
					"/>
			</g>
		</g>
	</g>
</g>
<g id="Character">
	<g id="Character_1_">
		<g>
			<g>
				<path style="fill:#263238;" d="M243.838,370.154c-0.63,1.316-7.446,5.163-16.647,4.533c-9.212-0.619-15.533-4.319-19.043-6.647
					c-3.498-2.328-7.154-2.756-11.709-3.014c-3.307-0.188-6.645-1.005-9.616-2.478c-0.896-0.444-1.816-0.998-2.251-1.899
					c-0.387-0.802-0.315-1.78,0.074-2.581c0.39-0.801,1.069-1.435,1.834-1.892c2.618-1.565,5.204-0.375,7.921,0.137
					c2.269,0.428,4.538,0.856,6.807,1.285c6.185,1.167,12.369,2.334,18.554,3.501c5.793,1.093,11.586,2.186,17.379,3.279
					c2.315,0.437,4.63,0.874,6.945,1.322C244.614,366.802,244.457,368.849,243.838,370.154z"/>
				<path style="fill:#FFA8A7;" d="M191.912,335.979c0.232-0.718,6.212-26.052,6.212-26.052l22.506,7.155
					c0.523,0-10.252,26.237-10.005,26.237c0.247,0-6.795,4.852-13.719,2.632C189.982,343.73,191.912,335.979,191.912,335.979z"/>
				<path style="fill:#37474F;" d="M244.085,365.7c-0.45,1.136-1.249,2.137-2.441,2.835c-3.555,2.092-12.89,4.342-22.687,1.575
					c-5.331-1.518-11.259-7.221-18.266-7.761c-2.412-0.187-4.821-0.525-7.183-1.051c-2.298-0.512-4.975-0.871-7.016-2.123
					c-1.708-1.048-2.389-3.378-2.386-5.291c0.003-2.005,0.651-3.952,1.388-5.816c0.737-1.865,1.577-3.706,1.995-5.667
					c0.304-1.424,0.388-2.918,1.005-4.237c0.617-1.319,1.986-2.449,3.417-2.184c-0.324,2.277,0.949,6.624,3.928,6.357
					c1.37-0.123,2.272-1.448,3.46-2.141c1.361-0.793,3.054-0.719,4.603-0.432c1.548,0.288,3.085,0.767,4.659,0.706
					c2.003-0.078,2.566-0.135,3.785-1.727c0.395,2.413,2.666,4.539,4.359,6.382c1.611,1.754,3.993,3.102,6.066,4.22
					c3.015,1.608,5.961,2.868,9.066,4.263c3.161,1.428,7.367,2.295,9.842,3.959C244.243,359.3,245.233,362.888,244.085,365.7z"/>
			</g>
		</g>
		<g>
			<path style="fill:#FFA8A7;" d="M101.086,305.4l14.366,6.379l-13.44,20.102l-12.932-6.476c0,0-3.596-3.576-3.043-9.938
				C86.589,309.105,96.218,299.944,101.086,305.4z"/>
			<g>
				<path style="fill:#263238;" d="M85.655,351.816c-3.161,1.684-9.873,1.222-15.33-2.367c-5.457-3.589-6.747-11.697-4.775-17.602
					c2.39-7.154,6.604-10.645,8.172-14.929c1.568-4.284,1.5-10.558,3.498-14.283c1.899-3.54,6.426-5.935,8.955-6.542
					c2.073-0.498,4.259,0.064,5.92,1.4l1.579,1.271C83.438,310.421,84.021,330.699,85.655,351.816z"/>
			</g>
			<g>
				<path style="fill:#37474F;" d="M101.086,305.4c-0.135-1.541-1.169-2.863-2.522-3.554c-1.278-0.652-2.332-1.479-3.487-2.353
					c-9.786-5.755-16.23,5.331-16.506,13.253c-0.276,7.922-8.662,12.939-10.408,20.963c-1.227,5.636-0.378,13.236,7.357,16.881
					c6.766,3.188,11.067,3.114,14.01-0.359c0.614-0.724,0.779-1.81,0.895-2.719c0.165-1.293,0.172-2.605,0.133-3.906
					c-0.041-1.407-0.149-2.812-0.298-4.212c-0.045-0.425-0.079-0.857-0.15-1.279c-0.158-0.942,0.642-1.84,1.178-2.567
					c1.342-1.821,2.667-3.654,3.974-5.5c0.24-0.339,0.638-0.908,0.498-1.299c0,0-0.361-0.22-0.539-0.333
					c-1.545-0.982-2.186-1.366-3.07-2.242c-0.672-0.666-1.275-1.527-1.338-2.52c-0.059-0.947,0.204-1.891,0.4-2.796
					c0.285-1.317,0.333-2.852-0.584-3.84c-0.353-0.381-0.818-0.639-1.205-0.984s-0.713-0.837-0.638-1.351
					c0.072-0.494,0.483-0.858,0.854-1.192c0.988-0.891,1.873-1.895,2.633-2.987c0.744-1.068,1.368-2.219,2.155-3.256
					s1.772-1.976,2.995-2.423C98.644,304.379,100.135,304.512,101.086,305.4z"/>
			</g>
		</g>
		<g>
			<path style="fill:#455A64;" d="M232.322,251.263c-13.932-3.128-38.799-9.131-38.799-9.131l-6.313-19.038
				c-16.507,5.458-36.189-0.015-47.876-9.275l-2.239,8.639c0,0-6.954,11.959-9.814,18.781c-3.531,8.421-4.879,21.971-3.12,42.892
				c1.06,12.605,3.726,31.246,3.726,31.246l-21.16-7.483c-2.054,0.439-6.111,3.284-7.873,10.03
				c-3.124,11.961,1.863,15.521,1.863,15.521s7.453,3.789,23.216,13.181c16.075,9.578,24.701,10.729,31.633,7.559
				c4.928-2.253,10.692-9.52,10.688-27.588c-0.003-14.935,1.173-42.246,1.173-42.246l35.604,3.507c0,0-3.571,11.458-4.778,16.644
				c-1.207,5.187-2.503,13.324-4.245,21.486c0,0,10.122,7.457,21.766,5.696c0,0,26.265-42.865,29.883-55.31
				C249.274,263.93,245.805,254.29,232.322,251.263z"/>
			<path style="fill:#37474F;" d="M167.425,284.352v-5.138c0,0,10.34-1.925,17.62-10.36c0,0-0.629,9.803-13.504,13.422l16.632,4.12
				L167.425,284.352z"/>
			<path style="fill:#37474F;" d="M203.029,287.859c2.648-6.918,6.818-11.754,13.373-15.728c0,0-11.841,2.043-17.162,15.355
				L203.029,287.859z"/>
			<path style="fill:#37474F;" d="M127.886,315.378c0.228,8.004,1.561,16.02,3.953,18.973c0,0-4.294-3.643-6.706-10.552
				c-2.062-5.905-2.168-10.215-2.168-10.215L127.886,315.378z"/>
		</g>
		<g>
			<g id="XMLID_372_">
				<path id="XMLID_376_" style="fill:#FFA8A7;" d="M223.763,222.555c0,0-7.249-30.46-10.986-44.512
					c-4.01-15.078-8.916-16.955-19.467-19.543l-5.073,33.849c0,0,17.043,45.319,21.521,52.217c5.177,7.975,12.247,8.935,18.193,2.47
					c6.392-6.951,11.044-13.887,16.989-21.225c2.686-3.315,4.114-6.088,9.345-10.341c2.869-2.332,10.021-5.977,10.6-9.864
					c0.486-3.258-5.604-6.076-8.593-7.458c-1.451-0.671-3.028-1.004-4.615-1.13c-1.173-0.093-3.766-0.459-4.818,0.127
					c-0.923,0.515-1.546,2.717-2.05,3.674c-0.681,1.294-1.422,2.566-2.388,3.671C236.789,210.934,223.763,222.555,223.763,222.555z"
					/>
			</g>
			<polygon style="fill:#F28F8F;" points="223.763,222.555 212.371,229.741 223.004,219.377 			"/>
			<path style="fill:#EBEBEB;" d="M195.227,158.981c4.595,0.864,7.533,1.452,11.266,5.056c3.732,3.603,5.544,9.376,7.277,15.24
				c1.733,5.864,8.623,35.288,8.623,35.288s-6.528,9.161-22.207,9.994c0,0-11.279-26.605-12.838-30.672
				C185.787,189.82,184.734,162.055,195.227,158.981z"/>
		</g>
		<g>
			<g>
				<path id="XMLID_365_" style="fill:#EBEBEB;" d="M158.602,152.731l-17.43-1.354c0,0-4.337,32.176-11.093,33.469
					c-9.322,30.986-7.909,65.054-7.909,65.054s15.513,8.669,42.244,6.816c23.422-1.624,29.108-14.585,29.108-14.585
					s-2.991-14.105-3.107-18.582c-0.31-11.953,6.079-30.87,7.019-38.695c2.164-18.022-4.124-26.355-4.124-26.355l-13.944-3.82
					L158.602,152.731z"/>
			</g>
			<path style="fill:#27DEBF;" d="M180.217,155.385c6.553,5.851,5.244,14.383,4.396,18.459c-0.848,4.076-0.548,11.465-0.548,17.197
				c0,5.731-0.175,39.011,0.218,48.134c0.367,8.543,1.461,14.775,1.461,14.775s9.088-2.723,11.163-11.818
				c-0.342-0.989-2.76-20.755-2.191-30.994c0.569-10.239,3.748-19.415,4.86-29.901c1.112-10.486-2.272-19.521-4.349-22.256
				c-4.153-2.398-14.916-4.368-14.916-4.368L180.217,155.385z"/>
			<path style="opacity:0.3;" d="M180.217,155.385c6.553,5.851,5.244,14.383,4.396,18.459c-0.848,4.076-0.548,11.465-0.548,17.197
				c0,5.731-0.175,39.011,0.218,48.134c0.367,8.543,1.461,14.775,1.461,14.775s9.088-2.723,11.163-11.818
				c-0.342-0.989-2.76-20.755-2.191-30.994c0.569-10.239,3.748-19.415,4.86-29.901c1.112-10.486-2.272-19.521-4.349-22.256
				c-4.153-2.398-14.916-4.368-14.916-4.368L180.217,155.385z"/>
			<g id="XMLID_325_">
				<g id="XMLID_349_">
					<g id="XMLID_359_">
						<path id="XMLID_363_" style="fill:#263238;" d="M153.589,99.985c1.932-1.666,5.044-2.634,7.076-0.469
							c0.327,0.349,0.537,0.79,0.709,1.236c0.105,0.274,0.198,0.553,0.278,0.835c0.671,2.379-0.046,4.441-0.126,6.796
							c-0.068,1.987-0.136,3.974-0.204,5.961c-0.087,2.539-0.174,5.079-0.261,7.618l1.566,0.041l-0.686,10.758l-0.923,8.905
							c-0.002,0.018-0.808-0.175-0.881-0.198c-2.215-0.68-3.537-2.662-4.365-4.715c-1.126-2.788-2.648-5.423-3.669-8.306
							c-1.043-2.946-1.882-5.963-2.508-9.025c-0.805-3.942-1.253-8.053-0.334-11.97c0.659-2.809,2.101-5.516,4.288-7.43
							C153.562,100.009,153.576,99.997,153.589,99.985z"/>
						<path id="XMLID_360_" style="fill:#263238;" d="M208.333,102.366c0.126-0.026,0.26-0.041,0.381,0.005
							c0.151,0.057,0.251,0.198,0.338,0.333c1.242,1.922,1.735,4.277,1.581,6.56c-0.117,1.742-0.609,3.482-1.594,4.923
							c-0.985,1.441-2.488,2.561-4.2,2.907c-0.506,0.102-1.042,0.135-1.528-0.04c-0.551-0.198-0.977-0.641-1.334-1.105
							c-0.621-0.807-1.096-1.716-1.534-2.635c-0.769-1.612-1.446-3.449-0.895-5.147c0.091-0.28,0.22-0.558,0.438-0.756
							c0.195-0.177,0.446-0.277,0.689-0.38c1.096-0.464,1.924-1.162,2.943-1.727c0.88-0.487,1.744-1.004,2.587-1.552
							C206.939,103.274,207.432,102.555,208.333,102.366z"/>
					</g>
					<path id="XMLID_358_" style="fill:#FFA8A7;" d="M162.713,123.827c-1.229,0.539-2.584-1.86-3.809-3.511
						c-1.225-1.651-5.574-4.241-8.474,0.308c-2.955,4.636,0.119,11.283,3.16,13.605c3.95,3.017,7.443-0.266,7.443-0.266
						l-2.913,22.503c0,0,4.317,9.386,15.198,12.27c10.88,2.885,9.743-6.525,6.667-11.452l0.84-6.855c0,0,5.549,1.566,8.361,1.485
						c4.68-0.135,8.83-0.693,11.289-8.133c2.384-7.215,4.114-14.04,4.852-30.712c0.773-17.448-21.066-19.469-32.724-14.019
						C160.945,104.498,162.713,123.827,162.713,123.827z"/>
					<path style="fill:#27DEBF;" d="M158.602,152.731c0.873,3.154,4.774,11.616,8.407,16.466c3.632,4.85,4.002,6.355,3.346,10.648
						c-0.656,4.293-6.449,38.005-8.459,53.156c-2.01,15.152-1.807,28.966-1.807,28.966s-15.242,0.078-27.118-2.086
						c-11.876-2.164-15.146-6.335-15.146-6.335s2.461-33.381,5.185-50.932c2.724-17.552,18.162-51.236,18.162-51.236
						L158.602,152.731z"/>
					<path style="opacity:0.3;" d="M158.602,152.731c0.873,3.154,4.774,11.616,8.407,16.466c3.632,4.85,4.002,6.355,3.346,10.648
						c-0.656,4.293-6.449,38.005-8.459,53.156c-2.01,15.152-1.807,28.966-1.807,28.966s-15.242,0.078-27.118-2.086
						c-11.876-2.164-15.146-6.335-15.146-6.335s2.461-33.381,5.185-50.932c2.724-17.552,18.162-51.236,18.162-51.236
						L158.602,152.731z"/>
					<g>
						<path style="opacity:0.15;" d="M129.689,230.718c-1.639,9.664-3.16,20.53-1.231,22.118c3.636,2.993,16.497,4.141,21,3.861
							c3.952-0.245,5.322-22.204,5.322-22.204L129.689,230.718z"/>
						<path style="fill:#27DEBF;" d="M142.829,229.381c-7.973-1.372-12.57-2.126-13.141-1.594c-0.571,0.531,0.867,6.08,1.661,7.497
							c0.794,1.418,18.175,4.513,20.301,3.344c2.126-1.169,5.692-6.434,3.826-6.909
							C151.545,230.718,145.688,229.873,142.829,229.381z"/>
						<path style="opacity:0.55;" d="M142.829,229.381c-7.973-1.372-12.57-2.126-13.141-1.594c-0.571,0.531,0.867,6.08,1.661,7.497
							c0.794,1.418,18.175,4.513,20.301,3.344c2.126-1.169,5.692-6.434,3.826-6.909
							C151.545,230.718,145.688,229.873,142.829,229.381z"/>
					</g>
					<g>
						<path style="opacity:0.15;" d="M139.729,183.45c-1.639,9.664-3.16,20.53-1.231,22.118c3.636,2.993,16.497,4.141,21,3.861
							c3.952-0.245,5.322-22.204,5.322-22.204L139.729,183.45z"/>
						<path style="fill:#27DEBF;" d="M152.869,182.113c-7.973-1.372-12.57-2.126-13.14-1.594c-0.571,0.532,0.867,6.08,1.661,7.497
							c0.794,1.418,18.175,4.514,20.301,3.344c2.126-1.169,5.692-6.434,3.826-6.909
							C161.585,183.449,155.728,182.605,152.869,182.113z"/>
						<path style="opacity:0.55;" d="M152.869,182.113c-7.973-1.372-12.57-2.126-13.14-1.594c-0.571,0.532,0.867,6.08,1.661,7.497
							c0.794,1.418,18.175,4.514,20.301,3.344c2.126-1.169,5.692-6.434,3.826-6.909
							C161.585,183.449,155.728,182.605,152.869,182.113z"/>
					</g>
					<path id="XMLID_351_" style="fill:#263238;" d="M162.472,125.75c-0.577-0.061-2.308-3.961-3.569-5.434
						c-0.521-0.608-0.416-1.752-0.385-2.484c0.106-2.52,0.855-4.906,0.776-7.418c-0.077-2.44-1.109-4.711-1.768-7.027
						c-0.693-2.437-0.974-5.076-0.2-7.488c0.849-2.647,2.919-4.791,5.351-6.138c2.432-1.347,5.208-1.962,7.974-2.239
						c5.966-0.598,11.968,0.299,17.961,0.501c5.993,0.202,12.281-0.382,17.348-3.589c0.395-0.25,0.909-0.519,1.297-0.256
						c0.133,0.09,0.224,0.231,0.301,0.373c1.388,2.533-0.302,5.6-0.392,8.487c2.015,0.495,4.213,0.206,6.031-0.793
						c1.427,1.378,1.178,3.71,0.645,5.621c-0.896,3.216-2.447,6.262-4.94,8.531c-2.31,2.102-6.202,1.6-8.764,0.248
						c-0.159-0.084-0.324-0.174-0.504-0.175c-0.294-0.001-0.528,0.23-0.739,0.435c-2.694,2.613-6.898,3-10.579,2.271
						c-3.681-0.73-7.108-2.398-10.728-3.388c-1.372-0.375-2.88-0.645-4.297-0.376c-1.768,0.336-2.42,1.366-3.493,2.716
						c-0.503,0.633-1.009,1.272-1.37,1.995c-0.37,0.741-0.577,1.55-0.781,2.352C167.2,114.223,165.54,126.073,162.472,125.75z"/>
					<path id="XMLID_350_" style="fill:#F28F8F;" d="M180.824,150.428c0,0-9.99-3.346-13.334-5.699
						c-2.238-1.575-3.937-4.031-4.34-5.52c0,0,0.291,3.125,2.091,6.132c2.201,3.677,15.242,7.814,15.242,7.814L180.824,150.428z"/>
				</g>
				<g id="XMLID_333_">
					<path id="XMLID_346_" style="fill:#263238;" d="M183.699,123.353c-0.147,1.178-1.186,2.016-2.32,1.871
						c-1.134-0.145-1.934-1.218-1.786-2.397c0.147-1.178,1.186-2.016,2.32-1.871C183.046,121.101,183.846,122.174,183.699,123.353z"
						/>
					<path id="XMLID_345_" style="fill:#263238;" d="M181.063,113.27l-4.697,1.875c-0.49-1.343,0.165-2.852,1.461-3.37
						C179.124,111.258,180.573,111.927,181.063,113.27z"/>
					<path id="XMLID_338_" style="fill:#F28F8F;" d="M180.796,136.676l4.947,2.596c-0.7,1.423-2.374,1.996-3.741,1.279
						C180.637,139.834,180.097,138.099,180.796,136.676z"/>
					<path id="XMLID_335_" style="fill:#263238;" d="M202.628,117.995l-3.62-3.587c0.961-1.045,2.55-1.089,3.549-0.098
						C203.557,115.3,203.589,116.95,202.628,117.995z"/>
					<path id="XMLID_334_" style="fill:#263238;" d="M200.402,124.545c-0.147,1.178-1.186,2.016-2.32,1.871
						c-1.133-0.145-1.933-1.217-1.786-2.396c0.147-1.178,1.186-2.016,2.32-1.871C199.749,122.294,200.549,123.367,200.402,124.545z"
						/>
				</g>
				<polygon id="XMLID_332_" style="fill:#F28F8F;" points="190.084,121.978 189.214,134.413 197,132.801 				"/>
			</g>
			<g>
				<path style="fill:#27DEBF;" d="M188.998,189.627c-0.761,5.765-0.383,18.816,0.564,20.22c0.947,1.404,6.715-0.072,7.344-2.337
					c0.628-2.266,3.014-17.197,1.942-17.883C197.775,188.941,188.998,189.627,188.998,189.627z"/>
				<path style="opacity:0.4;" d="M188.998,189.627c-0.761,5.765-0.383,18.816,0.564,20.22c0.947,1.404,6.715-0.072,7.344-2.337
					c0.628-2.266,3.014-17.197,1.942-17.883C197.775,188.941,188.998,189.627,188.998,189.627z"/>
				<path style="fill:#27DEBF;" d="M188.998,188.843c1.609,0.784,1.284,3.092,2.601,4.446c0.662,0.904,6.928,0.904,7.77,0.268
					c0.14-0.758,0.373-3.651-0.249-4.522C197.978,188.222,188.959,187.534,188.998,188.843z"/>
				<path style="opacity:0.55;" d="M188.998,188.843c1.609,0.784,1.284,3.092,2.601,4.446c0.662,0.904,6.928,0.904,7.77,0.268
					c0.14-0.758,0.373-3.651-0.249-4.522C197.978,188.222,188.959,187.534,188.998,188.843z"/>
			</g>
			<g>
				<path style="fill:#27DEBF;" d="M186.482,221.232c0.077,5.815,2.331,18.675,3.47,19.928c1.139,1.253,6.635-1.038,6.931-3.371
					c0.296-2.332,0.505-17.451-0.654-17.976C195.068,219.289,186.482,221.232,186.482,221.232z"/>
				<path style="opacity:0.4;" d="M186.482,221.232c0.077,5.815,2.331,18.675,3.47,19.928c1.139,1.253,6.635-1.038,6.931-3.371
					c0.296-2.332,0.505-17.451-0.654-17.976C195.068,219.289,186.482,221.232,186.482,221.232z"/>
				<path style="fill:#27DEBF;" d="M186.369,220.457c1.704,0.544,1.716,2.875,3.215,4.025c0.785,0.799,6.986-0.104,7.728-0.854
					c0.03-0.771-0.157-3.667-0.898-4.439C195.166,218.549,186.141,219.167,186.369,220.457z"/>
				<path style="opacity:0.55;" d="M186.369,220.457c1.704,0.544,1.716,2.875,3.215,4.025c0.785,0.799,6.986-0.104,7.728-0.854
					c0.03-0.771-0.157-3.667-0.898-4.439C195.166,218.549,186.141,219.167,186.369,220.457z"/>
			</g>
		</g>
		<g id="Camera">
			<g>
				<path id="XMLID_15922_" style="fill:#27DEBF;" d="M222.392,211.806c-1.979,0.688-4.686,0.414-6.36-0.696l-5.895-3.922
					c-1.856-1.24-3.248-4.044-3.106-6.27l1.052-16.516c0.026-0.415,0.111-0.847,0.239-1.28c0.042-0.143,0.091-0.286,0.145-0.428
					c0.005-0.016,0.01-0.028,0.015-0.04c0.049-0.131,0.102-0.261,0.163-0.39c0.072-0.169,0.155-0.334,0.242-0.499
					c0.06-0.114,0.124-0.227,0.187-0.336c0.068-0.113,0.136-0.222,0.207-0.331c0.014-0.027,0.032-0.051,0.045-0.074l12.621,8.402
					c-0.703,1.052-1.172,2.261-1.243,3.374l-1.052,16.516C219.526,211.303,220.712,212.314,222.392,211.806z"/>
				<path id="XMLID_287_" style="opacity:0.45;" d="M222.392,211.806c-1.979,0.688-4.686,0.414-6.36-0.696l-5.895-3.922
					c-1.856-1.24-3.248-4.044-3.106-6.27l1.052-16.516c0.026-0.415,0.111-0.847,0.239-1.28c0.042-0.143,0.091-0.286,0.145-0.428
					c0.005-0.016,0.01-0.028,0.015-0.04c0.049-0.131,0.102-0.261,0.163-0.39c0.072-0.169,0.155-0.334,0.242-0.499
					c0.06-0.114,0.124-0.227,0.187-0.336c0.068-0.113,0.136-0.222,0.207-0.331c0.014-0.027,0.032-0.051,0.045-0.074l12.621,8.402
					c-0.703,1.052-1.172,2.261-1.243,3.374l-1.052,16.516C219.526,211.303,220.712,212.314,222.392,211.806z"/>
				<path id="XMLID_15900_" style="fill:#27DEBF;" d="M254.95,168.025l-5.891-3.921c-1.86-1.24-4.985-1.439-6.983-0.445
					l-2.112,1.064c-0.405,0.201-0.818,0.332-1.232,0.399l0.183,0.121l0.004,0l6.842,4.557l0.12,0.081l0.004,0.004
					c0.29,0.217,0.526,0.572,0.713,1.017c0.924,2.204,3.601,3.399,5.979,2.223l2.116-1.067c1.91-0.943,3.365-0.081,3.374,1.935
					C258.072,171.819,256.728,169.208,254.95,168.025z"/>
				<path id="XMLID_282_" style="opacity:0.15;" d="M254.95,168.025l-5.891-3.921c-1.86-1.24-4.985-1.439-6.983-0.445l-2.112,1.064
					c-0.405,0.201-0.818,0.332-1.232,0.399l0.183,0.121l0.004,0l6.842,4.557l0.12,0.081l0.004,0.004
					c0.29,0.217,0.526,0.572,0.713,1.017c0.924,2.204,3.601,3.399,5.979,2.223l2.116-1.067c1.91-0.943,3.365-0.081,3.374,1.935
					C258.072,171.819,256.728,169.208,254.95,168.025z"/>
				<g>
					<path id="XMLID_286_" style="fill:#263238;" d="M250.239,169.721l0.105-1.647l-1.251-0.08
						c-1.459-0.914-3.805-1.063-5.368-0.342l-1.251-0.08l-0.105,1.651c-0.038,0.582,0.308,1.19,1.05,1.683
						c1.481,0.985,3.973,1.144,5.566,0.354C249.785,170.864,250.205,170.305,250.239,169.721z"/>
					<path id="XMLID_285_" style="fill:#37474F;" d="M243.728,166.039c-1.594,0.789-1.685,2.229-0.204,3.214
						c1.481,0.985,3.973,1.144,5.566,0.355c1.594-0.79,1.685-2.229,0.205-3.214C247.814,165.408,245.322,165.249,243.728,166.039z"
						/>
				</g>
				<g id="XMLID_15986_">
					<path style="fill:#27DEBF;" d="M258.057,174.292l-1.052,16.515c-0.142,2.226-1.876,4.833-3.879,5.823l-30.11,14.92
						c-0.027,0.011-0.202,0.098-0.262,0.12c-0.067,0.028-0.134,0.057-0.201,0.079c-0.054,0.023-0.107,0.039-0.16,0.055
						c-1.679,0.507-2.869-0.503-2.743-2.488l1.052-16.516c0.071-1.113,0.547-2.324,1.247-3.377c0.512-0.764,1.145-1.456,1.837-1.961
						c0.116-0.084,0.233-0.168,0.355-0.239c0.116-0.077,0.238-0.142,0.359-0.206c0,0,0.02-0.012,0.054-0.029s0.075-0.041,0.135-0.07
						c0.856-0.416,4.316-2.116,4.35-2.127c3.455-1.72,5.929-5.071,6.762-8.821c0.12-0.548,0.393-1.151,0.767-1.683
						c0.366-0.519,0.826-0.967,1.325-1.216l6.565-3.254c0.512-0.248,0.943-0.234,1.302-0.022l0.125,0.086
						c0.293,0.215,0.525,0.576,0.713,1.019c0.925,2.202,3.599,3.398,5.98,2.223l2.113-1.068c1.909-0.943,3.37-0.086,3.379,1.934
						C258.063,174.097,258.063,174.195,258.057,174.292z"/>
					<path style="opacity:0.3;" d="M258.057,174.292l-1.052,16.515c-0.142,2.226-1.876,4.833-3.879,5.823l-30.11,14.92
						c-0.027,0.011-0.202,0.098-0.262,0.12c-0.067,0.028-0.134,0.057-0.201,0.079c-0.054,0.023-0.107,0.039-0.16,0.055
						c-1.679,0.507-2.869-0.503-2.743-2.488l1.052-16.516c0.071-1.113,0.547-2.324,1.247-3.377c0.512-0.764,1.145-1.456,1.837-1.961
						c0.116-0.084,0.233-0.168,0.355-0.239c0.116-0.077,0.238-0.142,0.359-0.206c0,0,0.02-0.012,0.054-0.029s0.075-0.041,0.135-0.07
						c0.856-0.416,4.316-2.116,4.35-2.127c3.455-1.72,5.929-5.071,6.762-8.821c0.12-0.548,0.393-1.151,0.767-1.683
						c0.366-0.519,0.826-0.967,1.325-1.216l6.565-3.254c0.512-0.248,0.943-0.234,1.302-0.022l0.125,0.086
						c0.293,0.215,0.525,0.576,0.713,1.019c0.925,2.202,3.599,3.398,5.98,2.223l2.113-1.068c1.909-0.943,3.37-0.086,3.379,1.934
						C258.063,174.097,258.063,174.195,258.057,174.292z"/>
					<path id="XMLID_15899_" style="fill:#27DEBF;" d="M229.778,169.774l-0.004,0l-5.829-3.881
						c-0.369,0.527-0.643,1.129-0.767,1.676c-0.834,3.752-3.303,7.108-6.764,8.823c-0.04,0.02-4.535,2.226-4.575,2.247
						c-0.953,0.506-1.839,1.372-2.513,2.386l12.621,8.402c0.679-1.027,1.582-1.906,2.55-2.409c0.028-0.014,4.511-2.214,4.539-2.228
						c3.457-1.715,5.929-5.067,6.763-8.819c0.124-0.547,0.397-1.153,0.767-1.68L229.778,169.774z"/>
					<path id="XMLID_262_" style="opacity:0.15;" d="M229.778,169.774l-0.004,0l-5.829-3.881c-0.369,0.527-0.643,1.129-0.767,1.676
						c-0.834,3.752-3.303,7.108-6.764,8.823c-0.04,0.02-4.535,2.226-4.575,2.247c-0.953,0.506-1.839,1.372-2.513,2.386l12.621,8.402
						c0.679-1.027,1.582-1.906,2.55-2.409c0.028-0.014,4.511-2.214,4.539-2.228c3.457-1.715,5.929-5.067,6.763-8.819
						c0.124-0.547,0.397-1.153,0.767-1.68L229.778,169.774z"/>
					<path id="XMLID_15897_" style="fill:#27DEBF;" d="M238.919,165.244l-0.004,0l-0.183-0.121l-5.487-3.653l-0.105-0.067
						c-0.359-0.217-0.791-0.233-1.297,0.019l-6.571,3.253c-0.497,0.248-0.96,0.7-1.329,1.219l5.829,3.881l0.004,0l6.788,4.517
						c0.369-0.519,0.831-0.967,1.328-1.215l6.567-3.253c0.51-0.251,0.942-0.236,1.301-0.022L238.919,165.244z"/>
				</g>
			</g>
			<g>
				<g>
					<g>
						<path id="XMLID_15990_" style="fill:#263238;" d="M217.559,179.815c-0.429-0.269-1.119-0.313-1.579-0.101l-0.368-0.023
							l-0.031,0.484c-0.012,0.172,0.09,0.351,0.308,0.497c0.436,0.29,1.169,0.337,1.638,0.104c0.234-0.116,0.358-0.28,0.369-0.451
							l0.031-0.486L217.559,179.815z"/>
						<path id="XMLID_284_" style="fill:#37474F;" d="M215.981,179.239c-0.469,0.232-0.496,0.656-0.06,0.945
							c0.436,0.29,1.169,0.337,1.638,0.104c0.469-0.232,0.496-0.656,0.06-0.945C217.183,179.054,216.45,179.007,215.981,179.239z"/>
					</g>
					<g>
						<path id="XMLID_15989_" style="fill:#263238;" d="M220.637,178.965l0.031-0.485l-0.368-0.023
							c-0.429-0.269-1.119-0.313-1.579-0.101l-0.368-0.023l-0.031,0.486c-0.011,0.171,0.09,0.35,0.309,0.495
							c0.435,0.29,1.169,0.337,1.638,0.104C220.504,179.301,220.627,179.137,220.637,178.965z"/>
						<path id="XMLID_283_" style="fill:#37474F;" d="M218.722,177.882c-0.469,0.232-0.496,0.656-0.06,0.945
							c0.436,0.29,1.169,0.337,1.638,0.104c0.469-0.232,0.496-0.656,0.06-0.945C219.924,177.696,219.191,177.649,218.722,177.882z"
							/>
					</g>
				</g>
				<g>
					<g>
						<path id="XMLID_309_" style="fill:#263238;" d="M220.106,181.509c-0.429-0.269-1.119-0.313-1.579-0.101l-0.368-0.023
							l-0.031,0.484c-0.012,0.172,0.09,0.351,0.309,0.497c0.436,0.29,1.169,0.337,1.638,0.104c0.234-0.116,0.358-0.28,0.369-0.451
							l0.031-0.486L220.106,181.509z"/>
						<path id="XMLID_308_" style="fill:#37474F;" d="M218.527,180.934c-0.469,0.232-0.496,0.656-0.06,0.945
							c0.436,0.29,1.169,0.337,1.638,0.104c0.469-0.232,0.496-0.656,0.06-0.946C219.73,180.748,218.996,180.702,218.527,180.934z"/>
					</g>
					<g>
						<path id="XMLID_307_" style="fill:#263238;" d="M223.184,180.659l0.031-0.485l-0.368-0.023
							c-0.429-0.269-1.119-0.313-1.579-0.101l-0.368-0.023l-0.031,0.486c-0.011,0.171,0.09,0.35,0.309,0.495
							c0.436,0.29,1.169,0.337,1.638,0.104C223.05,180.996,223.174,180.831,223.184,180.659z"/>
						<path id="XMLID_305_" style="fill:#37474F;" d="M221.268,179.576c-0.469,0.232-0.496,0.656-0.06,0.945
							c0.436,0.29,1.169,0.337,1.638,0.104c0.469-0.232,0.496-0.656,0.06-0.945C222.47,179.391,221.737,179.344,221.268,179.576z"/>
					</g>
				</g>
			</g>
			<g>
				<path id="XMLID_301_" style="fill:#263238;" d="M226.357,184.356l0.047-0.745l-0.566-0.036c-0.66-0.413-1.721-0.481-2.429-0.155
					l-0.566-0.036l-0.048,0.747c-0.017,0.264,0.139,0.538,0.475,0.762c0.67,0.446,1.798,0.518,2.518,0.16
					C226.151,184.874,226.341,184.621,226.357,184.356z"/>
				<path id="XMLID_292_" style="fill:#37474F;" d="M223.411,182.691c-0.721,0.357-0.762,1.008-0.093,1.454
					c0.67,0.446,1.798,0.518,2.519,0.16c0.721-0.357,0.762-1.008,0.093-1.454C225.26,182.405,224.132,182.333,223.411,182.691z"/>
			</g>
			<g id="XMLID_15993_">
				<path id="XMLID_15994_" style="fill:#27DEBF;" d="M251.062,183.335l-0.004-0.004l-0.255-0.168
					c-1.502-0.915-3.622-0.886-6.03,0.306c-4.97,2.465-9.283,8.945-9.636,14.481c-0.065,1.022,0.009,1.943,0.207,2.747
					c0.267,1.074,0.746,1.939,1.4,2.574c0.162,0.154,0.332,0.294,0.511,0.419l0.011,0.008c0.011,0.008,0.019,0.013,0.03,0.018
					l0.037,0.026l0.139,0.091l5.618,3.736c-0.231-0.163-0.442-0.352-0.639-0.556c-1.068-1.109-1.63-2.889-1.483-5.192
					c0.352-5.532,4.666-12.017,9.636-14.477c2.066-1.023,3.922-1.189,5.357-0.634c0.244,0.09,0.471,0.202,0.688,0.336
					L251.062,183.335z"/>
				<path id="XMLID_313_" style="opacity:0.15;" d="M251.062,183.335l-0.004-0.004l-0.255-0.168
					c-1.502-0.915-3.622-0.886-6.03,0.306c-4.97,2.465-9.283,8.945-9.636,14.481c-0.065,1.022,0.009,1.943,0.207,2.747
					c0.267,1.074,0.746,1.939,1.4,2.574c0.162,0.154,0.332,0.294,0.511,0.419l0.011,0.008c0.011,0.008,0.019,0.013,0.03,0.018
					l0.037,0.026l0.139,0.091l5.618,3.736c-0.231-0.163-0.442-0.352-0.639-0.556c-1.068-1.109-1.63-2.889-1.483-5.192
					c0.352-5.532,4.666-12.017,9.636-14.477c2.066-1.023,3.922-1.189,5.357-0.634c0.244,0.09,0.471,0.202,0.688,0.336
					L251.062,183.335z"/>
				<path id="XMLID_16014_" style="fill:#27DEBF;" d="M236.745,203.271c0.158,0.154,0.332,0.294,0.511,0.419l-2.964-1.971
					c-0.007-0.004-0.011-0.008-0.015-0.013l-0.034-0.022c-1.488-1.015-2.32-3.011-2.146-5.753
					c0.352-5.532,4.666-12.017,9.636-14.477c1.442-0.716,2.783-1.012,3.949-0.938c0.843,0.054,1.596,0.301,2.228,0.723l2.893,1.924
					c-1.502-0.915-3.622-0.886-6.03,0.306c-4.97,2.465-9.283,8.945-9.636,14.481c-0.065,1.022,0.009,1.943,0.207,2.747
					C235.604,201.77,236.087,202.64,236.745,203.271z"/>
				<path id="XMLID_290_" style="opacity:0.55;" d="M236.745,203.271c0.158,0.154,0.332,0.294,0.511,0.419l-2.964-1.971
					c-0.007-0.004-0.011-0.008-0.015-0.013l-0.034-0.022c-1.488-1.015-2.32-3.011-2.146-5.753
					c0.352-5.532,4.666-12.017,9.636-14.477c1.442-0.716,2.783-1.012,3.949-0.938c0.843,0.054,1.596,0.301,2.228,0.723l2.893,1.924
					c-1.502-0.915-3.622-0.886-6.03,0.306c-4.97,2.465-9.283,8.945-9.636,14.481c-0.065,1.022,0.009,1.943,0.207,2.747
					C235.604,201.77,236.087,202.64,236.745,203.271z"/>
				<path id="XMLID_16015_" style="fill:#27DEBF;" d="M268.083,198.975c-0.353,5.536-4.666,12.016-9.636,14.477
					c-1.442,0.716-2.783,1.016-3.949,0.942c-0.835-0.053-1.58-0.299-2.213-0.714l-0.011-0.008c-0.004,0-0.004,0-0.004,0
					l-9.055-6.026l-0.124-0.078c-0.231-0.163-0.442-0.352-0.639-0.556c-1.068-1.109-1.63-2.889-1.483-5.192
					c0.352-5.532,4.666-12.017,9.636-14.477c2.066-1.023,3.922-1.189,5.357-0.634c0.244,0.09,0.471,0.202,0.688,0.336l0.038,0.022
					l0.236,0.159l8.966,5.962l0,0.004C267.409,194.193,268.26,196.201,268.083,198.975z"/>
				<path id="XMLID_310_" style="opacity:0.45;" d="M268.083,198.975c-0.353,5.536-4.666,12.016-9.636,14.477
					c-1.442,0.716-2.783,1.016-3.949,0.942c-0.835-0.053-1.58-0.299-2.213-0.714l-0.011-0.008c-0.004,0-0.004,0-0.004,0
					l-9.055-6.026l-0.124-0.078c-0.231-0.163-0.442-0.352-0.639-0.556c-1.068-1.109-1.63-2.889-1.483-5.192
					c0.352-5.532,4.666-12.017,9.636-14.477c2.066-1.023,3.922-1.189,5.357-0.634c0.244,0.09,0.471,0.202,0.688,0.336l0.038,0.022
					l0.236,0.159l8.966,5.962l0,0.004C267.409,194.193,268.26,196.201,268.083,198.975z"/>
			</g>
			<path style="fill:#FFA8A7;" d="M264.984,197.538c0.129,1.391,0.242,2.772,0.291,4.171c0.097,2.742-0.249,5.909,0.452,8.585
				c0.05,0.19,0.191,0.97,0.533,0.631c1.055-1.046,1.643-3.062,2.175-4.396c1.05-2.632,1.9-5.424,2.105-8.262
				c0.083-1.142-0.139-2.3-0.045-3.413c0.13-1.536-0.492-2.89-1.614-3.947c-1.103-1.039-2.5-1.698-3.843-2.399
				c-1.344-0.701-2.696-1.492-3.606-2.703c-0.629-0.837-1.056-1.879-1.94-2.44c-0.747-0.474-1.685-0.511-2.569-0.462
				c-2.673,0.147-5.308,0.956-7.603,2.335c-0.454,0.273-0.925,0.605-1.09,1.108c-0.176,0.536,0.057,1.145,0.464,1.536
				c0.406,0.391,0.957,0.596,1.507,0.723c0.888,0.204,1.816,0.229,2.714,0.071c0.253-0.044,0.544-0.094,0.739,0.073
				c0.267,0.227,0.148,0.649,0.149,0.999c0.001,0.793,0.741,1.409,1.503,1.627c0.762,0.218,1.575,0.158,2.359,0.27
				c0.858,0.123,1.51,0.539,2.289,0.852c1.132,0.456,2.239,1.129,3.197,1.882C264.147,195.163,264.865,196.256,264.984,197.538z"/>
			<g>
				<g>
					<path style="fill:#455A64;" d="M264.732,191.425c-1.598-1.069-3.896-1.083-6.524,0.219c-5.256,2.604-9.819,9.461-10.192,15.315
						c-0.183,2.868,0.678,4.955,2.219,6.037c0.519,0.364,4.007,2.544,4.499,2.874c1.598,1.073,3.899,1.089,6.531-0.215
						c5.256-2.604,9.819-9.461,10.192-15.315c0.184-2.89-0.691-4.988-2.256-6.062C268.69,193.928,265.227,191.756,264.732,191.425z"
						/>
					<path style="fill:#37474F;" d="M252.422,209.77c-0.373,5.854,3.586,8.489,8.842,5.885c5.256-2.604,9.82-9.461,10.192-15.315
						c0.373-5.854-3.586-8.489-8.842-5.885C257.358,197.06,252.794,203.916,252.422,209.77z"/>
					<path style="fill:#263238;" d="M257.228,214.388c-2.545-0.163-2.629-3.182-2.547-4.474c0.321-5.038,4.414-11.188,8.937-13.43
						c1.117-0.554,2.165-0.817,3.03-0.762c2.545,0.162,2.629,3.182,2.547,4.473c-0.321,5.038-4.414,11.188-8.937,13.43
						C259.142,214.18,258.094,214.443,257.228,214.388L257.228,214.388z"/>
					<path style="fill:#27DEBF;" d="M266.375,196.991c0.021-0.332,0.03-0.778-0.009-1.261c-0.808,0.01-1.745,0.258-2.746,0.754
						c-4.523,2.241-8.616,8.391-8.937,13.43c-0.021,0.332-0.03,0.779,0.009,1.261c0.808-0.01,1.745-0.258,2.747-0.755
						C261.961,208.18,266.054,202.029,266.375,196.991z"/>
					<path style="opacity:0.3;" d="M266.375,196.991c0.021-0.332,0.03-0.778-0.009-1.261c-0.808,0.01-1.745,0.258-2.746,0.754
						c-4.523,2.241-8.616,8.391-8.937,13.43c-0.021,0.332-0.03,0.779,0.009,1.261c0.808-0.01,1.745-0.258,2.747-0.755
						C261.961,208.18,266.054,202.029,266.375,196.991z"/>
					<path style="fill:#E0E0E0;" d="M261.079,199.168c1.853-1.977,4.12-2.531,4.418-1.737c0.298,0.795-1.263,8.248-8.81,12.216
						c0,0,4.145-3.15,6.324-7.306C264.286,199.91,263.394,197.796,261.079,199.168z"/>
				</g>
			</g>
			<path style="fill:#27DEBF;" d="M239.592,174.596l4.496-2.227c0.684-0.339,1.202-0.034,1.156,0.681
				c-0.046,0.715-0.637,1.569-1.321,1.908l-4.496,2.227c-0.684,0.339-1.202,0.034-1.157-0.681
				C238.316,175.79,238.908,174.935,239.592,174.596z"/>
			<path style="fill:#37474F;" d="M224.181,205.934l5.3-2.626c0.807-0.4,1.417-0.04,1.363,0.802c-0.054,0.843-0.751,1.85-1.558,2.25
				l-5.3,2.626c-0.807,0.4-1.417,0.04-1.363-0.802C222.676,207.341,223.374,206.334,224.181,205.934z"/>
			<path style="opacity:0.15;" d="M253.175,214.124c-0.588-1.122-0.867-2.59-0.755-4.354c0.162-2.536,1.112-5.26,2.562-7.744
				l-20.376-13.56c-1.419,2.388-2.351,5.019-2.507,7.465c-0.175,2.742,0.658,4.738,2.146,5.753l0.034,0.022
				c0.004,0.004,0.007,0.008,0.015,0.013l2.964,1.971l0.011,0.009c0.011,0.008,0.019,0.013,0.03,0.018l0.037,0.026l0.139,0.091
				l5.61,3.73c0.003,0.002,0.006,0.005,0.008,0.007l0.125,0.08l5.592,3.714c0,0.007,0.006,0.007,0.006,0.007
				c0.368,0.677,0.843,1.223,1.419,1.626c0.469,0.33,3.378,2.149,4.288,2.736C253.974,215.325,253.525,214.787,253.175,214.124z"/>
		</g>
		<g>
			<path style="fill:#FFA8A7;" d="M227.727,191.101c-0.126-0.282-0.259-0.563-0.395-0.846c-0.44-0.911-1.245-2.029-1.397-3.031
				c-0.135-0.886-0.111-1.759-0.612-2.559c-0.719-1.149-2.285-1.542-3.604-1.231c-1.319,0.311-2.43,1.188-3.407,2.128
				c-0.575,0.552-1.119,1.136-1.704,1.678c-2.08,1.928-4.126,3.926-6.354,5.707c-0.682,0.545-1.377,1.076-2.09,1.58
				c-0.081,0.057-0.752,0.418-0.758,0.518c0,0,0.223-3.725,0.335-5.264c-2.628-0.372-5.903,4.68-9.014,9.797
				c-0.915,1.505-3.77,4.503-6.031,5.917c-5.241,3.278-20.184,10.925-30.483,14.108c-2.503-8.369-7.786-28.898-9.933-36.131
				c0.818-15.808-8.114-29.358-11.29-31.063c-16.23,0.001-18.873,17.514-15.271,33.321c2.632,11.55,9.134,36.651,14.545,49.68
				c2.634,6.344,6.073,9.714,8.095,10.813c2.023,1.099,7.595,2.063,22.394-5.412c7.921-4.001,17.065-10.138,28.192-17.438
				c5.563-3.649,9.712-6.654,13.483-9.126c5.353-3.511,10.87-7.734,14.106-13.389c0.947-1.655,1.669-3.456,1.991-5.341
				C228.798,193.925,228.355,192.509,227.727,191.101z"/>
			<path style="fill:#EBEBEB;" d="M142.406,151.473c0,0-9.363-1.602-13.839,3.912c-4.476,5.513-6.711,12.97-5.401,20.545
				c1.309,7.575,6.009,35.038,9.097,44.17c0,0,18.068,0.31,28.215-9.901l-7.066-28.962c0,0-0.592-12.51-3.6-19.38
				C145.329,151.616,142.406,151.473,142.406,151.473z"/>
		</g>
		<path style="fill:#FFA8A7;" d="M235.66,211.475c2.026-1.651,1.86-5.665,0.918-7.923c-0.477-1.144-0.354-2.667-0.245-3.885
			c0.121-1.362,0.42-2.708,0.891-3.992c0.202-0.551,0.498-1.15,1.057-1.331c0.655-0.212,1.342,0.268,1.739,0.831
			c0.707,1.003,0.882,2.282,0.934,3.508c0.052,1.226,0.005,2.476,0.345,3.656c0.381,1.323,1.217,2.448,2.086,3.492
			c0.428,0.514,0.612,1.015,0.917,1.609c0.226,0.438,0.567,1.306,0.989,1.586c0,0,0.952,0.633,0.952,0.633s-1.17,0.766-1.914,0.711
			c-0.78-0.057-1.5-0.271-2.291-0.21c-0.898,0.069-1.799,0.238-2.692,0.358C238.322,210.656,236.685,211.337,235.66,211.475z"/>
	</g>
</g>
<g id="Zoom">
	<g id="Focus_Bubble_2_">
		<path style="fill:#27DEBF;" d="M403.504,64.345c0-1.787-0.605-3.061-1.592-3.693c-1.058-0.678-5.482-3.082-6.47-3.714
			c-1.058-0.677-2.555-0.617-4.214,0.341l-97.338,56.198c-3.207,1.852-5.807,6.355-5.807,10.058v16.08l-18.578,19.307
			c-0.647,0.673-0.461,1.653,0.162,2.134c0.272,0.21,5.849,3.246,6.482,3.724c0.27,0.204,0.62,0.314,1.019,0.268l10.915-1.26
			l0,40.692c0,1.767,0.592,3.033,1.559,3.672c1.06,0.701,5.494,3.057,6.45,3.701c1.061,0.714,2.58,0.667,4.267-0.307l97.338-56.198
			c3.207-1.852,5.807-6.355,5.807-10.058L403.504,64.345z"/>
		<path style="opacity:0.15;" d="M403.504,64.345c0-1.787-0.605-3.061-1.592-3.693c-1.058-0.678-5.482-3.082-6.47-3.714
			c-1.058-0.677-2.555-0.617-4.214,0.341l-97.338,56.198c-3.207,1.852-5.807,6.355-5.807,10.058v16.08l-18.578,19.307
			c-0.647,0.673-0.461,1.653,0.162,2.134c0.272,0.21,5.849,3.246,6.482,3.724c0.27,0.204,0.62,0.314,1.019,0.268l10.915-1.26
			l0,40.692c0,1.767,0.592,3.033,1.559,3.672c1.06,0.701,5.494,3.057,6.45,3.701c1.061,0.714,2.58,0.667,4.267-0.307l97.338-56.198
			c3.207-1.852,5.807-6.355,5.807-10.058L403.504,64.345z"/>
		<path style="opacity:0.15;" d="M403.504,64.345c0-1.787-105.719,58.077-105.719,58.077l-7.997-4.617
			c-1.053,1.822-1.705,3.876-1.705,5.73v16.08l-18.578,19.307c-0.647,0.673-0.461,1.653,0.162,2.134
			c0.272,0.21,5.849,3.246,6.482,3.724c0.27,0.204,0.62,0.314,1.019,0.268l10.915-1.26l0,40.692c0,1.767,0.592,3.033,1.559,3.672
			c1.06,0.701,5.494,3.057,6.45,3.701c1.061,0.714,2.58,0.667,4.267-0.307l97.338-56.198c3.207-1.852,5.807-6.355,5.807-10.058
			L403.504,64.345z"/>
		<polygon style="opacity:0.15;" points="288.083,139.615 294.552,143.329 287.855,150.288 281.399,146.561 		"/>
		<path style="opacity:0.15;" d="M296.094,211.851c-0.955-0.645-5.388-3.001-6.455-3.701c-0.963-0.637-1.552-1.902-1.552-3.669
			v-40.695l-2.165,0.255l2.053-6.152l6.574,5.15v45.152C294.549,209.949,295.138,211.214,296.094,211.851z"/>
		<path style="fill:#27DEBF;" d="M403.504,64.345c0-3.703-2.6-5.204-5.807-3.353l-97.338,56.198
			c-3.207,1.852-5.807,6.355-5.807,10.058l0,16.08l-18.578,19.307c-0.93,0.967-0.138,2.567,1.195,2.413l17.383-2.007l0,45.152
			c0,3.703,2.6,5.205,5.807,3.353l97.338-56.198c3.207-1.852,5.807-6.355,5.807-10.058L403.504,64.345z"/>
		<path id="XMLID_12_" style="fill:#27DEBF;" d="M403.504,64.345l0,80.945c0,3.703-2.6,8.207-5.807,10.058l-97.338,56.198
			c-3.207,1.852-5.807,0.351-5.807-3.353l0-80.945c0-3.703,2.6-8.207,5.807-10.058l97.338-56.198
			C400.904,59.141,403.504,60.642,403.504,64.345z"/>
		<g id="XMLID_7_">
			<g>
				<path style="fill:#27DEBF;" d="M352.895,125.207c0,0-5.204-7.127,3.05-20.893c8.254-13.766,19.177-17.285,19.177-17.285
					s8.587,18.037-2.08,33.573C362.375,136.139,352.895,125.207,352.895,125.207z"/>
				<path style="opacity:0.1;" d="M352.895,125.207c0,0-5.204-7.127,3.05-20.893c8.254-13.766,19.177-17.285,19.177-17.285
					s8.587,18.037-2.08,33.573C362.375,136.139,352.895,125.207,352.895,125.207z"/>
				<path style="opacity:0.1;" d="M373.041,120.602c-6.538,9.523-12.619,9.095-16.355,7.342
					c-0.479-20.29,18.435-40.916,18.435-40.916S383.708,105.065,373.041,120.602z"/>
			</g>
			<g>
				<path style="fill:#27DEBF;" d="M359.388,138.859c0,0,6.015,12.693,16.506,9.825c10.312-2.819,17.539-17.539,17.539-17.539
					s-10.827-12.787-22.784-8.139C360.513,126.948,359.388,138.859,359.388,138.859z"/>
				<path style="opacity:0.1;" d="M359.388,138.859c0,0,6.015,12.693,16.506,9.825c10.312-2.819,17.539-17.539,17.539-17.539
					s-10.827-12.787-22.784-8.139C360.513,126.948,359.388,138.859,359.388,138.859z"/>
				<path style="opacity:0.1;" d="M375.894,148.684c10.312-2.819,17.539-17.538,17.539-17.538
					c-14.218-4.509-34.044,7.713-34.044,7.713S365.403,151.553,375.894,148.684z"/>
			</g>
			<g>
				<path id="XMLID_11_" style="fill:#455A64;" d="M313.085,141.461c-0.034,0.624,0.012,1.251,0.141,1.85
					c0.398,1.85,1.532,3.408,2.961,4.29c-0.284-0.176-0.589,2.502-0.575,2.729c0.063,1.054,0.426,2.113,1.048,2.865
					c1.415,1.714,3.909,2.05,5.859,2.045c5.616-0.015,12.759-3.546,17.138-7.788c-0.565,0.971-3.862,4.649-7.558,7.419
					c-2.989,2.24-6.829,3.467-9.77,5.796c-1.986,1.574-1.943,3.52-1.433,4.977c0.556,1.589,1.83,2.591,3.683,2.372
					c-1.306,1.195-2.39,3.001-2.255,4.911c0.136,1.937,1.559,3.49,3.167,3.897c1.608,0.407,3.328-0.17,4.771-1.171
					c1.443-1.001,2.659-2.399,3.857-3.782c-0.276,2.175,1.525,4.077,3.381,4.176c1.856,0.098,3.617-1.144,5.006-2.648
					c4.471-4.836,6.085-12.19,7.479-19.09c0.041,3.49,1.518,6.87,3.888,8.891c2.19,1.868,5.359,2.383,8.049,1.726
					c1.232-0.3,2.448-1.198,2.907-2.585c0.274-0.826,0.263-1.759,0.609-2.548c0.332-0.756,0.959-1.291,1.629-1.605
					c1.821-0.852,3.767-1.523,4.271-4.202c0.199-1.056,0.01-2.297-0.528-3.163c0,0,2.674-1.78,3.669-5.886
					c0.879-3.629-1.038-5.787-4.063-6.179c-3.246-0.421-6.427,0.632-9.768-0.319c4.2-0.267,9.027-1.818,12.514-4.818
					c3.682-3.168,7.409-6.252,9.816-10.988c0.758-1.491,1.402-3.176,1.25-4.877c-0.152-1.701-1.37-3.33-2.824-3.161
					c0.516-1.972,0.776-4.101,0.302-6.054c-0.474-1.953-1.809-3.682-3.524-3.961c-1.617-0.263-3.359,0.91-4.013,2.702
					c0.176-2.275-1.942-4.056-3.865-3.74c-1.924,0.315-3.485,2.148-4.404,4.184c-0.919,2.036-1.339,4.311-1.976,6.484
					c-1.257,4.29-3.455,8.078-6.494,10.946c1.346-6.157,0.063-12.805-2.882-17.983c-0.755-1.328-1.638-2.596-2.797-3.428
					c-1.16-0.832-2.639-1.179-3.939-0.603c-1.299,0.576-2.306,2.208-2.104,3.803c-2.469-2.817-7.045-3.947-9.289,0.073
					c-1.059,1.898-1.176,4.389-0.502,6.463c-0.287-0.882-2.328,0.4-2.666,0.68c-0.894,0.741-1.472,1.972-1.556,3.24
					c-0.115,1.744,0.571,3.424,1.527,4.726c0.956,1.303,2.171,2.297,3.335,3.339c3.017,2.7,6.275,5.919,8.403,9.634
					c-4.34-0.556-8.71-2.679-12.335-5.426c-1.284-0.972-2.511-2.058-3.88-2.858c-3.135-1.833-7.834-1.611-9.911,2.341
					c-1.157,2.201-1.165,5.142-0.019,7.274c-1.528-0.624-3.366,0.03-4.481,1.47C313.578,138.875,313.157,140.159,313.085,141.461z"
					/>
				<path style="fill:#37474F;" d="M371.121,118.866c-0.86,2.168-2.552,4.305-4.024,5.927c-1.601,1.765-3.402,3.284-5.265,4.632
					c-1.755,1.269-3.536,2.499-5.358,3.624c-0.888,0.549-1.796,1.061-2.714,1.532c-0.818,0.42-1.673,0.73-2.459,1.218
					c0.011-0.404,0.003-0.81,0.011-1.209c0.017-0.877,0.021-1.758-0.041-2.631c-0.14-1.967-0.617-3.948-1.163-5.796
					c-0.609-2.064-1.36-3.998-2.252-5.904c-0.767-1.639-1.638-3.992-3.188-4.778c-0.167-0.085-0.498-0.049-0.39,0.273
					c0.29,0.861,0.668,1.626,0.924,2.518c0.267,0.932,0.546,1.863,0.864,2.771c0.674,1.925,1.305,3.878,1.782,5.889
					c0.429,1.807,0.849,3.672,0.98,5.557c0.061,0.885,0.036,1.777,0.023,2.666c-0.01,0.665-0.085,1.415,0.068,2.065
					c-0.234,0.154-0.437,0.384-0.563,0.705c-0.052,0.131-0.098,0.264-0.148,0.395c-0.244,0.129-0.48,0.288-0.681,0.397
					c-0.48,0.262-0.959,0.529-1.444,0.78c-1.02,0.527-2.059,0.925-3.142,1.202c-1.911,0.49-3.854,0.803-5.801,0.828
					c-1.897,0.025-3.641-0.354-5.47-0.836c-1.21-0.318-2.402-0.712-3.605-1.062c-0.913-0.266-1.947-0.492-2.725-1.13
					c-0.161-0.132-0.349-0.008-0.227,0.223c0.382,0.721,0.975,1.147,1.618,1.501c1.024,0.564,2.077,1.078,3.115,1.606
					c2.116,1.077,4.209,1.795,6.539,1.944c2.261,0.145,4.588-0.023,6.817-0.609c1.149-0.302,2.271-0.721,3.36-1.266
					c0.139-0.07,0.28-0.14,0.42-0.21c-0.344,0.96-0.696,1.916-1.098,2.851c-0.902,2.099-1.88,4.164-2.956,6.151
					c-2.397,4.424-5.323,8.323-8.517,11.972c-0.229,0.261,0.278,0.734,0.507,0.579c7.004-4.732,11.949-13.354,14.959-22.105
					c1.286,2.21,2.997,4.053,4.873,5.568c1.309,1.056,2.712,2.022,4.18,2.747c0.764,0.377,1.526,0.739,2.313,1.05
					c0.716,0.283,1.51,0.488,2.19,0.883c0.198,0.115,0.242-0.137,0.14-0.295c-0.719-1.101-1.627-1.731-2.633-2.44
					c-1.408-0.994-2.84-1.958-4.178-3.078c-2.369-1.982-4.59-4.5-5.869-7.619c-0.008-0.021-0.024-0.028-0.033-0.047
					c0.057,0.023,0.104,0.058,0.172,0.068c0.994,0.153,2.011-0.44,2.926-0.878c1.172-0.562,2.298-1.226,3.406-1.95
					c1.945-1.271,3.887-2.573,5.719-4.068c1.849-1.509,3.636-3.123,5.184-5.058c0.787-0.983,1.523-2.063,2.121-3.215
					c0.603-1.163,0.821-2.309,1.195-3.563C371.661,118.981,371.244,118.555,371.121,118.866z"/>
				<g id="XMLID_8_">
					<path id="XMLID_10_" style="fill:#F0997A;" d="M350.961,134.547c3.181-1.012,5.11,0.784,4.309,4.011
						c-0.801,3.227-4.028,6.663-7.209,7.675c-3.18,1.012-5.11-0.784-4.309-4.011C344.552,138.995,347.78,135.559,350.961,134.547z"
						/>
					<path id="XMLID_9_" style="opacity:0.05;" d="M352.319,140.97c-2.417,3.35-6.337,4.907-8.4,4.192
						c0.645,1.234,2.146,1.706,4.141,1.071c3.181-1.012,6.408-4.448,7.209-7.675c0.524-2.112-0.135-3.591-1.536-4.091
						C354.362,135.898,354.326,138.189,352.319,140.97z"/>
				</g>
			</g>
		</g>
		<g>
			<path style="fill:#FAFAFA;" d="M303.63,136.99c-0.397,0-0.72-0.322-0.72-0.72v-10.485c0-0.257,0.138-0.495,0.36-0.623
				l9.071-5.237c0.11-0.064,0.234-0.097,0.359-0.097c0.257,0,0.495,0.138,0.624,0.361c0.096,0.166,0.121,0.361,0.072,0.546
				c-0.05,0.185-0.169,0.34-0.335,0.437l-8.712,5.028v10.07C304.35,136.667,304.027,136.99,303.63,136.99z"/>
			<path style="fill:#FAFAFA;" d="M303.633,199.894c-0.126,0-0.25-0.033-0.36-0.096c-0.222-0.128-0.36-0.367-0.36-0.623
				l-0.003-10.486c0-0.397,0.323-0.72,0.72-0.72c0.397,0,0.72,0.322,0.72,0.72l0.002,9.239l7.989-4.615
				c0.11-0.064,0.233-0.097,0.358-0.097c0.257,0,0.496,0.138,0.625,0.361c0.096,0.166,0.121,0.361,0.072,0.546
				c-0.05,0.186-0.169,0.341-0.335,0.438l-9.068,5.238C303.884,199.861,303.76,199.894,303.633,199.894z"/>
			<path style="fill:#FAFAFA;" d="M394.423,84.569c-0.397,0-0.72-0.323-0.72-0.72l0.001-9.237l-7.998,4.62
				c-0.109,0.063-0.233,0.096-0.358,0.096c-0.257,0-0.497-0.138-0.625-0.36c-0.096-0.166-0.121-0.361-0.072-0.546
				c0.05-0.186,0.169-0.341,0.335-0.438l9.078-5.243c0.11-0.064,0.233-0.096,0.359-0.096c0.126,0,0.251,0.033,0.361,0.096
				c0.222,0.128,0.36,0.367,0.36,0.623l-0.001,10.484C395.143,84.246,394.82,84.569,394.423,84.569z"/>
			<path style="fill:#FAFAFA;" d="M385.345,152.716c-0.257,0-0.496-0.138-0.624-0.36c-0.096-0.166-0.121-0.361-0.072-0.546
				c0.05-0.185,0.169-0.34,0.335-0.437l8.719-5.035v-10.067c0-0.397,0.323-0.72,0.72-0.72c0.397,0,0.72,0.323,0.72,0.72v10.482
				c0,0.256-0.138,0.495-0.36,0.623l-9.079,5.243C385.595,152.683,385.471,152.716,385.345,152.716z"/>
		</g>
		<g style="opacity:0.5;">
			<path style="fill:#FAFAFA;" d="M343.525,162.822c-1.749,0-3.372-0.425-4.826-1.264c-4.051-2.339-6.374-7.695-6.374-14.694
				c0-13.02,7.966-28.212,17.758-33.866c2.508-1.447,4.956-2.182,7.277-2.182c1.75,0,3.374,0.425,4.828,1.264
				c4.05,2.339,6.374,7.695,6.374,14.694c0,13.021-7.966,28.212-17.758,33.865C348.294,162.087,345.845,162.822,343.525,162.822z
				 M357.356,112.261c-2.068,0-4.273,0.667-6.554,1.984c-9.395,5.424-17.038,20.058-17.038,32.619c0,6.471,2.06,11.372,5.654,13.447
				c1.224,0.707,2.607,1.066,4.11,1.066c2.07,0,4.275-0.668,6.555-1.984c9.395-5.424,17.038-20.056,17.038-32.618
				c0-6.472-2.06-11.372-5.654-13.447C360.24,112.619,358.858,112.261,357.356,112.261z"/>
			<path style="fill:#FAFAFA;" d="M350.442,118.553c-0.397,0-0.72-0.323-0.72-0.72v-11.65c0-0.397,0.323-0.72,0.72-0.72
				s0.72,0.322,0.72,0.72v11.65C351.162,118.23,350.839,118.553,350.442,118.553z"/>
			<path style="fill:#FAFAFA;" d="M327.466,150.805c-0.257,0-0.496-0.138-0.624-0.36c-0.198-0.344-0.08-0.785,0.263-0.983
				l8.738-5.045c0.11-0.064,0.233-0.097,0.358-0.097c0.257,0,0.496,0.138,0.625,0.361c0.198,0.344,0.08,0.785-0.264,0.983
				l-8.738,5.045C327.715,150.771,327.591,150.805,327.466,150.805z"/>
			<path style="fill:#FAFAFA;" d="M350.442,168.175c-0.397,0-0.72-0.323-0.72-0.72v-11.651c0-0.397,0.323-0.72,0.72-0.72
				s0.72,0.323,0.72,0.72v11.651C351.162,167.852,350.839,168.175,350.442,168.175z"/>
			<path style="fill:#FAFAFA;" d="M364.682,129.318c-0.257,0-0.496-0.137-0.624-0.36c-0.198-0.344-0.08-0.785,0.264-0.983
				l8.738-5.045c0.11-0.063,0.233-0.096,0.358-0.096c0.257,0,0.497,0.137,0.625,0.36c0.198,0.344,0.08,0.785-0.264,0.983
				l-8.738,5.045C364.931,129.285,364.808,129.318,364.682,129.318z"/>
		</g>
	</g>
</g>
</svg>
