<?xml version="1.0" encoding="utf-8"?>
<!-- Generator: Adobe Illustrator 27.5.0, SVG Export Plug-In . SVG Version: 6.00 Build 0)  -->
<svg version="1.1" xmlns="http://www.w3.org/2000/svg" xmlns:xlink="http://www.w3.org/1999/xlink" x="0px" y="0px"
	 viewBox="0 0 3710 3710" style="enable-background:new 0 0 3710 3710;" xml:space="preserve">
<g id="Background">
	<g>
		<g>
			<rect style="fill:#FFFFFF;" width="3710" height="3710"/>
		</g>
	</g>
</g>
<g id="Illustration">
	<g>
		<path style="fill:#F4F7FA;" d="M1393.74,461.066c-209.292,21.377-587.027,59.959-802.201,367.208
			c-222.231,317.324-213.837,839.512,6.685,1129.336c109.348,143.713,258.129,213.569,240.66,325.637
			c-22.027,141.315-275.179,136.626-300.825,249.424c-43.565,191.606,580.47,673.196,1290.206,685.916
			c145.516,2.608,956.159,17.136,1290.206-602.774c372.606-691.465-216.228-1488.493-254.03-1538.115
			C2333.261,380.44,1476.757,452.586,1393.74,461.066z"/>
		<g>
			<linearGradient id="SVGID_1_" gradientUnits="userSpaceOnUse" x1="2278.0337" y1="2670.6387" x2="1152.3339" y2="1710.3649">
				<stop  offset="0" style="stop-color:#444B8C"/>
				<stop  offset="0.9964" style="stop-color:#26264F"/>
			</linearGradient>
			<path style="fill:url(#SVGID_1_);" d="M2023.57,665.138v2334.138c0,34.906-29.85,43.539-63.731,45.92l-1182.677,105.54
				l-18.243,1.288c-37.464,2.645-68.2-25.332-68.2-62.179V625.908c0-36.847,30.735-66.008,68.2-64.806l24.754,0.794l1186.702,90.532
				C2004.246,653.487,2023.57,630.232,2023.57,665.138z"/>
			
				<linearGradient id="SVGID_00000048474808215529059810000012631573201441428401_" gradientUnits="userSpaceOnUse" x1="-1293.5255" y1="2737.7883" x2="2900.5457" y2="2893.804" gradientTransform="matrix(0 -1 1 0 -1389.0323 1734.3226)">
				<stop  offset="0" style="stop-color:#444B8C"/>
				<stop  offset="0.9964" style="stop-color:#26264F"/>
			</linearGradient>
			<path style="fill:url(#SVGID_00000048474808215529059810000012631573201441428401_);" d="M2059.677,665.081v2332.86
				c0,34.886-27.618,65.38-61.459,67.77l-1201.795,84.867c-37.423,2.643-68.124-25.32-68.124-62.146V625.871
				c0-36.826,30.701-65.971,68.124-64.77l1201.795,38.577C2032.059,600.765,2059.677,630.195,2059.677,665.081z"/>
			
				<linearGradient id="SVGID_00000089543272346100637420000016401722810611330228_" gradientUnits="userSpaceOnUse" x1="1743.5552" y1="1392.8809" x2="332.4452" y2="3290.2148">
				<stop  offset="0" style="stop-color:#FFC444"/>
				<stop  offset="0.9964" style="stop-color:#F36F56"/>
			</linearGradient>
			<path style="fill:url(#SVGID_00000089543272346100637420000016401722810611330228_);" d="M2021.524,793.463v2162.369
				c0,32.59-25.839,61.026-57.495,63.196l-1130.021,77.491c-34.796,2.386-63.336-23.712-63.336-58.001V763.378
				c0-34.289,28.541-61.587,63.336-60.664l1130.021,29.97C1995.686,733.523,2021.524,760.873,2021.524,793.463z"/>
			<path style="fill:#DE8BDF;" d="M1434.295,653.85c0,12.409-9.98,22.187-22.302,21.839c-12.334-0.349-22.343-10.709-22.343-23.14
				c0-12.431,10.008-22.208,22.343-21.837C1424.315,631.082,1434.295,641.442,1434.295,653.85z"/>
			<path style="opacity:0.5;fill:#FFFFFF;" d="M1173.925,1871.011c-184.592-398.421,136.684-713.628-59.79-1092.085
				c-45.774-88.172-108.352-157.991-175.056-213.244l-142.656-4.579C759,559.9,728.299,589.044,728.299,625.87v2462.563
				c0,36.826,30.701,64.788,68.124,62.144l1194.828-84.374c-21.881-200.152-82.758-422.677-226.391-623.646
				C1533.384,2118.676,1307.504,2159.325,1173.925,1871.011z"/>
		</g>
		<g>
			<g>
				<g>
					
						<linearGradient id="SVGID_00000074408624572176541840000009986372673424258688_" gradientUnits="userSpaceOnUse" x1="-7720.0859" y1="1308.9636" x2="-8111.2612" y2="1770.295" gradientTransform="matrix(0.9524 -0.3049 0.3049 0.9524 8204.3398 -1732.7537)">
						<stop  offset="0" style="stop-color:#311944"/>
						<stop  offset="1" style="stop-color:#893976"/>
					</linearGradient>
					<path style="fill:url(#SVGID_00000074408624572176541840000009986372673424258688_);" d="M1404.557,2557.014
						c-49.097,12.32-104.287-3.618-138.861-44.305l-487.518-573.772c-44.389-52.246-37.92-129.53,14.664-173.035
						c52.957-43.807,156.85-45.432,202.09,7.244l496.952,578.669c46.851,54.559,38.878,133.172-17.57,175.172
						C1460.41,2537.331,1420.753,2552.95,1404.557,2557.014z"/>
					
						<linearGradient id="SVGID_00000049920787602310669940000010232376357401043623_" gradientUnits="userSpaceOnUse" x1="-7768.2686" y1="1268.1085" x2="-8159.4453" y2="1729.4418" gradientTransform="matrix(0.9524 -0.3049 0.3049 0.9524 8204.3398 -1732.7537)">
						<stop  offset="0" style="stop-color:#311944"/>
						<stop  offset="1" style="stop-color:#893976"/>
					</linearGradient>
					<path style="opacity:0.3;fill:url(#SVGID_00000049920787602310669940000010232376357401043623_);" d="M792.841,1765.902
						c52.956-43.807,156.849-45.433,202.09,7.244l454.385,529.101c-46.824,2.733-97.725,20.129-160.69-7.243
						c-104.821-45.567-93.997-150.429-185.094-211.585c-41.641-27.956-109.131-49.815-224.618-25.922l-100.737-118.559
						C733.788,1886.691,740.257,1809.407,792.841,1765.902z"/>
				</g>
				<g>
					
						<linearGradient id="SVGID_00000021097358935251787460000016595505854174269882_" gradientUnits="userSpaceOnUse" x1="7720.7749" y1="981.1572" x2="7405.0337" y2="1353.5258" gradientTransform="matrix(-0.9524 0.3049 0.3049 0.9524 7579.728 -1532.4877)">
						<stop  offset="0" style="stop-color:#311944"/>
						<stop  offset="1" style="stop-color:#893976"/>
					</linearGradient>
					<path style="fill:url(#SVGID_00000021097358935251787460000016595505854174269882_);" d="M584.873,1687.646
						c2.37-0.759,4.776-1.331,7.209-1.757l169.769-56.407l141.803,442.978l-165.234,50.409c-3.887,2.428-8.012,4.37-12.381,5.769
						c-58.39,18.691-137.326-64.875-176.308-186.652C510.75,1820.209,526.483,1706.338,584.873,1687.646z"/>
					
						<linearGradient id="SVGID_00000054248773703875058070000013691237281276793246_" gradientUnits="userSpaceOnUse" x1="-7539.4541" y1="462.5103" x2="-7178.4648" y2="2459.2261" gradientTransform="matrix(0.9524 -0.3049 0.3049 0.9524 8204.3398 -1732.7537)">
						<stop  offset="0" style="stop-color:#AA80F9"/>
						<stop  offset="0.9964" style="stop-color:#6165D7"/>
					</linearGradient>
					<path style="fill:url(#SVGID_00000054248773703875058070000013691237281276793246_);" d="M761.852,1629.482
						c-17.314,168.163,29.736,315.143,141.803,442.978l1397.726,1.774l-384.908-1247.49L761.852,1629.482z"/>
					
						<linearGradient id="SVGID_00000174597738759065309680000005299460004104925833_" gradientUnits="userSpaceOnUse" x1="-7662.9907" y1="466.112" x2="-7297.4937" y2="2487.7593" gradientTransform="matrix(0.9524 -0.3049 0.3049 0.9524 8204.3398 -1732.7537)">
						<stop  offset="0" style="stop-color:#AA80F9"/>
						<stop  offset="0.9964" style="stop-color:#6165D7"/>
					</linearGradient>
					<path style="opacity:0.3;fill:url(#SVGID_00000174597738759065309680000005299460004104925833_);" d="M1842.287,1818.288
						c-135.106-7.078-228.506-169.902-370.283-131.004c-111.245,30.522-110.197,147.687-221.429,170.621
						c-113.863,23.476-170.348-89.306-307.036-91.677c-62.148-1.077-119.668,21.211-171.441,55.514
						c20.553,90.539,64.288,173.986,131.556,250.718l1397.726,1.774l-210.103-398.141
						C1989.655,1788.982,1907.786,1821.719,1842.287,1818.288z"/>
					
						<linearGradient id="SVGID_00000062167598908785505870000017082971355961984188_" gradientUnits="userSpaceOnUse" x1="6421.6118" y1="743.7292" x2="5702.5313" y2="1591.7751" gradientTransform="matrix(-0.9524 0.3049 0.3049 0.9524 7579.728 -1532.4877)">
						<stop  offset="0.0036" style="stop-color:#E38DDD"/>
						<stop  offset="1" style="stop-color:#9571F6"/>
					</linearGradient>
					<path style="fill:url(#SVGID_00000062167598908785505870000017082971355961984188_);" d="M1853.988,1526.686
						c113.663,355.074,343.823,598.736,514.076,544.236c170.253-54.5,216.128-386.525,102.465-741.598
						c-113.663-355.073-343.823-598.736-514.076-544.236C1786.2,839.588,1740.325,1171.613,1853.988,1526.686z"/>
					
						<linearGradient id="SVGID_00000089575114174221938940000018304209584398217644_" gradientUnits="userSpaceOnUse" x1="6471.9717" y1="1157.3093" x2="5778.7656" y2="1174.9701" gradientTransform="matrix(-0.9524 0.3049 0.3049 0.9524 7579.728 -1532.4877)">
						<stop  offset="0" style="stop-color:#311944"/>
						<stop  offset="1" style="stop-color:#893976"/>
					</linearGradient>
					<path style="fill:url(#SVGID_00000089575114174221938940000018304209584398217644_);" d="M2361.082,2049.109
						c36.145-11.57,66.808-38.102,91.136-78.86c24.76-41.482,41.873-95.496,50.86-160.545
						c18.893-136.743-0.412-304.865-54.361-473.397c-53.949-168.531-135.864-316.611-230.653-416.962
						c-45.092-47.738-90.391-81.773-134.637-101.166c-43.475-19.053-83.845-22.847-119.99-11.277
						c-36.145,11.57-66.808,38.103-91.136,78.861c-24.76,41.482-41.872,95.496-50.86,160.545
						c-7.9,57.176-9.121,119.837-3.924,185.722c7.233,91.685,93.71,162.132,125.102,260.195
						c33.38,104.276,10.649,228.2,61.867,310.356c31.56,50.626,65.829,95.825,101.97,134.087
						c45.092,47.737,90.391,81.773,134.637,101.165C2284.567,2056.886,2324.937,2060.679,2361.082,2049.109z"/>
					<g>
						<defs>
							<path id="SVGID_00000126307046493284272060000007290686883369924242_" d="M2361.082,2049.109
								c36.145-11.57,66.808-38.102,91.136-78.86c24.76-41.482,41.873-95.496,50.86-160.545
								c18.893-136.743-0.412-304.865-54.361-473.397c-53.949-168.531-135.864-316.611-230.653-416.962
								c-45.092-47.738-90.391-81.773-134.637-101.166c-43.475-19.053-83.845-22.847-119.99-11.277
								c-36.145,11.57-66.808,38.103-91.136,78.861c-24.76,41.482-41.872,95.496-50.86,160.545
								c-18.893,136.743,0.413,304.865,54.361,473.396c53.949,168.532,135.864,316.612,230.654,416.964
								c45.092,47.737,90.391,81.773,134.637,101.165C2284.567,2056.886,2324.937,2060.679,2361.082,2049.109z"/>
						</defs>
						<clipPath id="SVGID_00000110437950134860278210000004804476761376190868_">
							<use xlink:href="#SVGID_00000126307046493284272060000007290686883369924242_"  style="overflow:visible;"/>
						</clipPath>
						
							<linearGradient id="SVGID_00000131348796356149611760000015446095581018556830_" gradientUnits="userSpaceOnUse" x1="-7056.2119" y1="525.5875" x2="-6820.5146" y2="1829.2822" gradientTransform="matrix(0.9524 -0.3049 0.3049 0.9524 8204.3398 -1732.7537)">
							<stop  offset="0" style="stop-color:#FFC444"/>
							<stop  offset="0.9964" style="stop-color:#F36F56"/>
						</linearGradient>
						
							<path style="clip-path:url(#SVGID_00000110437950134860278210000004804476761376190868_);fill:url(#SVGID_00000131348796356149611760000015446095581018556830_);" d="
							M2190.33,1428.319c52.142,162.885-14.314,326.744-146.54,365.434c-130.181,38.092-275.338-59.828-326.028-218.18
							c-50.69-158.352,11.13-320.767,139.871-363.357C1988.397,1168.958,2138.188,1265.433,2190.33,1428.319z"/>
						
							<linearGradient id="SVGID_00000075147916239018573630000016308726532741689473_" gradientUnits="userSpaceOnUse" x1="-6920.3003" y1="693.5378" x2="-6746.3921" y2="1655.4634" gradientTransform="matrix(0.9524 -0.3049 0.3049 0.9524 8204.3398 -1732.7537)">
							<stop  offset="0" style="stop-color:#FFC444"/>
							<stop  offset="0.9964" style="stop-color:#F36F56"/>
						</linearGradient>
						
							<path style="opacity:0.3;clip-path:url(#SVGID_00000110437950134860278210000004804476761376190868_);fill:url(#SVGID_00000075147916239018573630000016308726532741689473_);" d="
							M2168.758,1432.302c38.719,120.955,16.909,233.816-47.786,251.825c-63.696,17.731-145.127-63.419-182.768-181.008
							c-37.641-117.588-18.093-229.755,44.533-250.826C2046.346,1230.893,2130.039,1311.348,2168.758,1432.302z"/>
					</g>
				</g>
			</g>
			<g>
				
					<linearGradient id="SVGID_00000044898374954076580360000003560482946741899688_" gradientUnits="userSpaceOnUse" x1="2052.676" y1="347.9389" x2="2353.5098" y2="905.8965" gradientTransform="matrix(0.9414 -0.3374 0.3374 0.9414 132.7335 1193.2424)">
					<stop  offset="0" style="stop-color:#FFC444"/>
					<stop  offset="0.9964" style="stop-color:#F36F56"/>
				</linearGradient>
				<path style="fill:url(#SVGID_00000044898374954076580360000003560482946741899688_);" d="M2523.951,866.165
					c33.707,94.048-34.741,204.615-152.885,246.958c-118.143,42.344-241.243,0.428-274.95-93.62
					c-33.707-94.048,34.742-204.615,152.885-246.958S2490.243,772.116,2523.951,866.165z"/>
				<path style="fill:#FFFFFF;" d="M2272.183,1047.795l-58.055-161.983c-3.727-10.398,2.543-20.366,11.696-18.592l165.5,32.079
					c10.467,2.029,15.943,17.306,9.147,25.522l-107.445,129.905C2287.085,1061.909,2275.91,1058.194,2272.183,1047.795z"/>
				<g style="opacity:0.3;">
					
						<linearGradient id="SVGID_00000164515809775852187610000008390219145024221619_" gradientUnits="userSpaceOnUse" x1="1965.6847" y1="381.8454" x2="2260.6882" y2="973.8467" gradientTransform="matrix(0.9414 -0.3374 0.3374 0.9414 132.7335 1193.2424)">
						<stop  offset="0" style="stop-color:#FFC444"/>
						<stop  offset="0.9964" style="stop-color:#F36F56"/>
					</linearGradient>
					<path style="fill:url(#SVGID_00000164515809775852187610000008390219145024221619_);" d="M2407.458,1051.133
						c-43.83-41.04-34.59-97.401-81.13-117.396c-47.281-20.313-82.341,26.89-141.548,17.774
						c-22.891-3.524-51.327-15.773-81.839-51.035c-17.239,38.512-20.748,80.179-6.825,119.027
						c33.708,94.048,156.807,135.964,274.95,93.621c27.065-9.7,51.52-22.983,72.738-38.826
						C2428.214,1067.805,2416.49,1059.591,2407.458,1051.133z"/>
				</g>
			</g>
			<g>
				
					<linearGradient id="SVGID_00000023265192966232667160000008309511910043412353_" gradientUnits="userSpaceOnUse" x1="2357.7471" y1="971.9107" x2="2728.5691" y2="1659.6754" gradientTransform="matrix(0.9814 -0.1921 0.1921 0.9814 -9.9071 641.6286)">
					<stop  offset="0" style="stop-color:#AA80F9"/>
					<stop  offset="0.9964" style="stop-color:#6165D7"/>
				</linearGradient>
				<path style="fill:url(#SVGID_00000023265192966232667160000008309511910043412353_);" d="M2899.744,1252.02
					c23.658,120.854-80.234,242.918-232.051,272.638c-151.816,29.719-294.067-44.159-317.726-165.013
					c-23.658-120.854,80.235-242.919,232.052-272.638C2733.835,1057.287,2876.086,1131.165,2899.744,1252.02z"/>
				<path style="fill:#FFFFFF;" d="M2596.829,1162.666c-54.301,10.63-89.705,63.268-79.074,117.569
					c6.888,35.189,64.203,108.966,103.696,156.542c16.417,19.776,48.186,13.557,55.934-10.95
					c18.638-58.955,43.903-148.898,37.014-184.087C2703.769,1187.438,2651.131,1152.036,2596.829,1162.666z M2626.411,1313.779
					c-29.156,5.707-57.417-13.301-63.125-42.456c-5.708-29.156,13.301-57.417,42.456-63.125
					c29.155-5.708,57.417,13.301,63.125,42.456C2674.575,1279.809,2655.566,1308.071,2626.411,1313.779z"/>
				<g style="opacity:0.3;">
					
						<linearGradient id="SVGID_00000067946562332653140480000004404709578007305140_" gradientUnits="userSpaceOnUse" x1="2250.5181" y1="1013.7074" x2="2614.1521" y2="1743.4335" gradientTransform="matrix(0.9814 -0.1921 0.1921 0.9814 -9.9071 641.6286)">
						<stop  offset="0" style="stop-color:#AA80F9"/>
						<stop  offset="0.9964" style="stop-color:#6165D7"/>
					</linearGradient>
					<path style="fill:url(#SVGID_00000067946562332653140480000004404709578007305140_);" d="M2723.523,1455.854
						c-45.812-58.13-24.113-125.103-77.125-158.09c-53.856-33.511-105.324,17.519-175.789-4.556
						c-27.243-8.534-59.628-28.729-90.28-77.351c-28.142,43.74-40.135,93.866-30.362,143.787
						c23.659,120.854,165.91,194.733,317.726,165.013c34.78-6.809,67.041-18.466,95.833-33.843
						C2745.729,1480.015,2732.964,1467.834,2723.523,1455.854z"/>
				</g>
			</g>
			<g>
				
					<linearGradient id="SVGID_00000112601873574986290840000014774438098694749083_" gradientUnits="userSpaceOnUse" x1="2785.8489" y1="1814.6974" x2="3082.9321" y2="2365.6992" gradientTransform="matrix(0.9691 0.2468 -0.2468 0.9691 216.0009 -816.2211)">
					<stop  offset="0" style="stop-color:#FF9085"/>
					<stop  offset="1" style="stop-color:#FB6FBB"/>
				</linearGradient>
				<path style="fill:url(#SVGID_00000112601873574986290840000014774438098694749083_);" d="M2719.361,1850.023
					c-24.125,94.721-135.956,148.248-251.49,119.127c-117.466-29.609-193.988-133.104-169.128-230.711
					c24.86-97.608,141.079-149.97,257.804-117.452C2671.351,1652.971,2743.486,1755.302,2719.361,1850.023z"/>
				
					<linearGradient id="SVGID_00000071544179000163078820000010428006006004940195_" gradientUnits="userSpaceOnUse" x1="2785.8489" y1="1814.6974" x2="3082.9321" y2="2365.6992" gradientTransform="matrix(0.9691 0.2468 -0.2468 0.9691 216.0009 -816.2211)">
					<stop  offset="0" style="stop-color:#FF9085"/>
					<stop  offset="1" style="stop-color:#FB6FBB"/>
				</linearGradient>
				<path style="fill:url(#SVGID_00000071544179000163078820000010428006006004940195_);" d="M2719.361,1850.023
					c-24.125,94.721-135.956,148.248-251.49,119.127c-117.466-29.609-193.988-133.104-169.128-230.711
					c24.86-97.608,141.079-149.97,257.804-117.452C2671.351,1652.971,2743.486,1755.302,2719.361,1850.023z"/>
				<g>
					<path style="fill:#FFFFFF;" d="M2641.392,1779.699h-0.001c-2.594-26.66-20.048-49.806-45.68-56.78
						c-33.572-9.134-68.417,12.922-77.683,49.301c9.266-36.379-10.665-73.336-44.664-82.586c-26.182-7.123-53.09,4.244-68.45,26.485
						l-0.001,0c-57.11,79.242,76.124,201.336,76.124,201.336S2652.577,1875.269,2641.392,1779.699z"/>
				</g>
				<g style="opacity:0.3;">
					
						<linearGradient id="SVGID_00000076598447163177556570000008054975549554868111_" gradientUnits="userSpaceOnUse" x1="2703.5422" y1="1846.1107" x2="2995.8328" y2="2432.6675" gradientTransform="matrix(0.9691 0.2468 -0.2468 0.9691 216.0009 -816.2211)">
						<stop  offset="0" style="stop-color:#FF9085"/>
						<stop  offset="1" style="stop-color:#FB6FBB"/>
					</linearGradient>
					<path style="fill:url(#SVGID_00000076598447163177556570000008054975549554868111_);" d="M2530.148,1937.831
						c-12.216-57.773,25.518-99.032-0.178-141.196c-26.233-43.046-79.768-23.726-122.048-64.537
						c-16.425-15.855-32.548-42.143-37.67-88.796c-35.262,22.131-61.242,54.818-71.511,95.137
						c-24.86,97.608,51.662,201.102,169.128,230.711c26.636,6.714,53.06,9.035,78.238,7.489
						C2537.41,1962.843,2532.661,1949.711,2530.148,1937.831z"/>
				</g>
			</g>
		</g>
		<g>
			<g>
				
					<linearGradient id="SVGID_00000131367356228371980620000009033847631586884525_" gradientUnits="userSpaceOnUse" x1="2473.6897" y1="1816.5128" x2="2441.8818" y2="1867.9669">
					<stop  offset="0" style="stop-color:#FFC444"/>
					<stop  offset="0.9964" style="stop-color:#F36F56"/>
				</linearGradient>
				<path style="fill:url(#SVGID_00000131367356228371980620000009033847631586884525_);" d="M2472.022,1869.02
					c3.23-5.004,9.122-15.655,9.498-29.958c0.733-27.792-19.881-49.469-22.651-48.225c-1.493,0.671,0.401,8.814,1.461,12.422
					c2.208,7.514,4.583,8.24,4.384,11.691c-0.409,7.104-10.665,7.378-16.074,16.806c-3.895,6.79-4.206,16.46,0,24.112
					C2455.62,1868.564,2471.358,1869.012,2472.022,1869.02z"/>
				
					<linearGradient id="SVGID_00000047777497619738423820000013876284350481467265_" gradientUnits="userSpaceOnUse" x1="2926.7568" y1="2425.5105" x2="2939.6013" y2="2451.9233">
					<stop  offset="0" style="stop-color:#FFC444"/>
					<stop  offset="0.9964" style="stop-color:#F36F56"/>
				</linearGradient>
				<polygon style="fill:url(#SVGID_00000047777497619738423820000013876284350481467265_);" points="2912.339,2472.664 
					2904.416,2445.401 2937.493,2420.891 2958.11,2413.182 2945.903,2451.328 				"/>
				
					<linearGradient id="SVGID_00000041984501742164158990000017129307669032252313_" gradientUnits="userSpaceOnUse" x1="1644.493" y1="3098.123" x2="1644.493" y2="3015.2622" gradientTransform="matrix(1 0 0 1 1249.563 0)">
					<stop  offset="0" style="stop-color:#FFC444"/>
					<stop  offset="0.9964" style="stop-color:#F36F56"/>
				</linearGradient>
				<path style="fill:url(#SVGID_00000041984501742164158990000017129307669032252313_);" d="M2871.394,3021.759
					c0,0,18.093,45.514,13.331,65.699c19.424-0.381,31.993-2.856,31.993-2.856s-7.807-20.758-9.331-31.041
					c-2.059-13.894-1.905-36.373-1.905-36.373L2871.394,3021.759z"/>
				<path style="fill:#26264F;" d="M2671.962,3128.212c1.17,1.412,3.246,4.363,3.42,8.362c0.094,2.172-0.401,3.959-1.026,5.602
					c-3.085,8.118-7.93,9.188-13.158,17.802c-3.194,5.263-2.591,6.85-5.518,9.226c-3.858,3.131-8.524,3.311-12.569,3.357
					c-6.834,0.079-16.675-0.165-29.065-1.642c6.493-8.368,13.398-16.869,20.741-25.453c3.22-3.763,6.436-7.44,9.642-11.028
					l19.09-6.45C2666.333,3128.061,2669.148,3128.137,2671.962,3128.212z"/>
				
					<linearGradient id="SVGID_00000166656704035757126290000003746484030950985913_" gradientUnits="userSpaceOnUse" x1="1391.9312" y1="3121.7378" x2="1391.9312" y2="3021.8765" gradientTransform="matrix(1 0 0 1 1249.563 0)">
					<stop  offset="0" style="stop-color:#FFC444"/>
					<stop  offset="0.9964" style="stop-color:#F36F56"/>
				</linearGradient>
				<path style="fill:url(#SVGID_00000166656704035757126290000003746484030950985913_);" d="M2656.087,3035.527
					c0,0-10.912,56.937,2.973,72.88c11.828,15.943-5.713,4.57-5.713,4.57l-20.948,18.282l-12.568,21.71
					c0,0,11.57-55.727,8.484-77.841c-3.085-22.114-4.629-37.029-4.629-37.029L2656.087,3035.527z"/>
				
					<linearGradient id="SVGID_00000002346607010885513480000015918178334542092974_" gradientUnits="userSpaceOnUse" x1="1336.0652" y1="2729.467" x2="1662.7756" y2="2729.467" gradientTransform="matrix(1 0 0 1 1249.563 0)">
					<stop  offset="0" style="stop-color:#311944"/>
					<stop  offset="1" style="stop-color:#893976"/>
				</linearGradient>
				<path style="fill:url(#SVGID_00000002346607010885513480000015918178334542092974_);" d="M2614.943,2412.722
					c0,0-29.315,26.229-29.315,134.229c0,108.001,13.886,342.517,13.886,342.517l22.22,167.902c0,0,23.04,0.82,38.468-3.808
					c13.886-63.258,36.513-170.265,25.712-259.751c-4.628-97.201,38.572-219.088,38.572-219.088s37.029,123.43,63.258,185.145
					c26.228,61.714,76.165,255.051,80.793,268.938c30.692,2.781,43.801-5.333,43.801-5.333s-19.679-208.062-38.193-286.748
					c-18.515-78.687-16.972-268.459-47.83-322.46C2756.887,2386.492,2614.943,2412.722,2614.943,2412.722z"/>
				
					<linearGradient id="SVGID_00000166668242486962016840000008362280457183053193_" gradientUnits="userSpaceOnUse" x1="1325.6819" y1="2485.9226" x2="1561.0586" y2="2881.2646" gradientTransform="matrix(1 0 0 1 1249.563 0)">
					<stop  offset="0" style="stop-color:#311944"/>
					<stop  offset="1" style="stop-color:#893976"/>
				</linearGradient>
				<path style="fill:url(#SVGID_00000166668242486962016840000008362280457183053193_);" d="M2614.944,2412.722
					c0,0-29.316,26.229-29.316,134.229c0,108.001,13.887,342.517,13.887,342.517l22.22,167.902c0,0,23.04,0.82,38.468-3.808
					c13.886-63.258,36.513-170.265,25.714-259.751c-4.628-97.201,38.571-219.088,38.571-219.088s37.029,123.43,63.258,185.145
					c26.228,61.714,76.166,255.052,80.794,268.938c30.69,2.781,43.8-5.333,43.8-5.333s-19.68-208.062-38.193-286.748
					c-18.516-78.687-16.972-268.459-47.829-322.461C2756.888,2386.492,2614.944,2412.722,2614.944,2412.722z"/>
				
					<linearGradient id="SVGID_00000126301859980782746930000018004013685969176966_" gradientUnits="userSpaceOnUse" x1="1418.3434" y1="2430.7544" x2="1653.72" y2="2826.0962" gradientTransform="matrix(1 0 0 1 1249.563 0)">
					<stop  offset="0" style="stop-color:#311944"/>
					<stop  offset="1" style="stop-color:#893976"/>
				</linearGradient>
				<path style="opacity:0.25;fill:url(#SVGID_00000126301859980782746930000018004013685969176966_);" d="M2767.227,2610.61
					c9.141,59.416,27.422,91.41,73.127,132.543c36.563,27.422,9.141,86.838,22.853,132.542c4.57,13.711,18.281,27.422,22.852,41.134
					c17.007,34.015,1.123,75.622,8.834,111.638c12-1.657,17.446-4.996,17.446-4.996s-19.68-208.062-38.193-286.748
					c-18.516-78.687-16.972-268.46-47.829-322.461c-69.429-27.771-211.373-1.542-211.373-1.542s-29.316,26.229-29.316,134.229
					c0,8.763,0.094,18.369,0.262,28.605c30.433,26.934,92.676,32.918,131.063,3.063c2.319-1.74,4.787-2.806,7.335-3.324
					c0.118-0.341,0.199-0.572,0.199-0.572s0.064,0.214,0.161,0.534C2742.119,2572.07,2763.263,2594.756,2767.227,2610.61z"/>
				<g>
					<path style="fill:#26264F;" d="M2879.966,3104.731c0,0-4.509,0-4.134,5.825c0.377,5.823-2.03,25.859,20.891,26.798
						c22.92,0.939,26.455-1.622,27.207-1.622c0.751,0-6.012-19.164-6.012-19.164l-7.328-9.393l-19.727-2.066L2879.966,3104.731z"/>
					<path style="fill:#444B8C;" d="M2930.788,3124.841c-0.489-4.838-3.196-12.453-5.919-18.582
						c-4.047-9.104-0.724-12.511-4.593-20.803c-1.337-2.867-2.637-5.586-5.462-8.281c-0.65-0.619-6.975-6.465-16.185-6.167
						c-1.813,0.059-4.604,0.181-7.62,1.788c-3.554,1.894-5.334,4.739-6.855,7.237c-2.39,3.925-1.841,5.129-5.522,16.377
						c-0.296,0.902-0.944,2.865-1.442,5.573c-0.382,2.073-0.536,3.813-0.604,5.002c6.012,0,29.121,0.94,34.005,4.51
						c4.885,3.57,7.328,9.582,7.328,15.594c0,6.011,3.006,8.829,6.012,8.642C2926.615,3135.562,2931.95,3130.589,2930.788,3124.841z
						"/>
				</g>
				<path style="fill:#444B8C;" d="M2653.156,3100.409c5.163,0.081,8.951,4.19,11.807,14.092
					c2.857,9.903,16.568,18.663,0.573,16.568c-15.997-2.095-27.614,20.566-33.326,28.947c-5.714,8.379-21.05,15.823-20.669,7.635
					c0.38-8.189,7.148-12.015,9.051-20.394C2622.496,3138.876,2641.38,3100.224,2653.156,3100.409z"/>
				
					<linearGradient id="SVGID_00000011027358089271789550000000117663007656224655_" gradientUnits="userSpaceOnUse" x1="-529.9385" y1="-3416.4099" x2="-280.6616" y2="-2903.812" gradientTransform="matrix(-0.9906 -0.1367 0.1367 -0.9906 2791.3203 -1269.0822)">
					<stop  offset="0" style="stop-color:#FFC444"/>
					<stop  offset="0.9964" style="stop-color:#F36F56"/>
				</linearGradient>
				<path style="fill:url(#SVGID_00000011027358089271789550000000117663007656224655_);" d="M2924.478,2425.757
					c3.796-10.554,27.487-79.88-10.804-143.104c-31.347-51.757-85.588-68.643-93.322-70.927
					c-47.08-13.904-70.677,3.958-85.531-12.481c-25.207-27.896,3.347-122.918,58.579-141.952
					c62.259-21.455,136.946,61.043,167.212,115.228c39.706,71.089,29.933,141.743,27.635,156.295
					c-5.97,37.814-19.851,66.656-30.138,84.365C2946.9,2417.373,2935.689,2421.565,2924.478,2425.757z"/>
				
					<linearGradient id="SVGID_00000152965541758599459870000018165335928231416456_" gradientUnits="userSpaceOnUse" x1="2618.4668" y1="2061.2693" x2="2870.9297" y2="2580.4187">
					<stop  offset="0" style="stop-color:#FFC444"/>
					<stop  offset="0.9964" style="stop-color:#F36F56"/>
				</linearGradient>
				<path style="fill:url(#SVGID_00000152965541758599459870000018165335928231416456_);" d="M2761.896,2043.879
					c-55.573-2.223-98.431-1.342-122.64,22.851c-25.571,25.554,0.27,54.403-5.282,121.246
					c-8.5,102.336-73.712,127.339-78.618,231.161c-1.654,34.981,4.265,63.573,8.863,80.792
					c14.312,17.824,37.737,42.977,72.307,64.009c50.306,30.607,79.479,25.27,151.726,45.043
					c118.175,32.342,128.689,70.858,187.287,61.046c59.222-9.917,111.18-59.756,104.904-87.124
					c-3.759-16.39-27.633-11.747-55.119-36.746c-35.426-32.218-21.764-62.972-48.697-97.594
					c-38.686-49.73-92.583-19.329-125.551-62.429c-33.348-43.599-20.121-129.511,7.99-176.34
					c18.361-30.587,26.223-66.431,41.847-98.502c1.298-2.664,2.805-7.034,2.141-12.496c-2.536-20.887-37.353-32.216-63.723-40.528
					C2799.11,2045.591,2766.466,2044.06,2761.896,2043.879z"/>
				
					<linearGradient id="SVGID_00000108993619223828010600000006000182450140404898_" gradientUnits="userSpaceOnUse" x1="1478.8557" y1="1996.3121" x2="1527.1027" y2="2072.9973" gradientTransform="matrix(1 0 0 1 1249.563 0)">
					<stop  offset="0.0036" style="stop-color:#E38DDD"/>
					<stop  offset="1" style="stop-color:#9571F6"/>
				</linearGradient>
				<path style="fill:url(#SVGID_00000108993619223828010600000006000182450140404898_);" d="M2715.085,2041.58l10.96-3.372
					c0,0,2.866,14.839,38.108,16.693c19.56,0,32.206-10.96,32.206-10.96l7.489,5.459c0,0-16.431,20.525-42.562,20.002
					C2727.564,2068.729,2715.085,2041.58,2715.085,2041.58z"/>
				<g>
					
						<linearGradient id="SVGID_00000002365072609658112560000013492767225118630326_" gradientUnits="userSpaceOnUse" x1="1537.1021" y1="1984.548" x2="1484.0789" y2="2070.3208" gradientTransform="matrix(1 0 0 1 1249.563 0)">
						<stop  offset="0" style="stop-color:#FFC444"/>
						<stop  offset="0.9964" style="stop-color:#F36F56"/>
					</linearGradient>
					<path style="fill:url(#SVGID_00000002365072609658112560000013492767225118630326_);" d="M2737.404,1996.441
						c2.112-16.298,14.996-26.739,17.807-28.975c11.771-9.356,14.167-10.297,18.21-11.066l5.521-0.837c0,0,0.297,0.007,0.603,0.026
						c3.232,0.196,12.919,3.977,14.68,5.214c5.626,3.957,1.483,31.977-15.573,66.826c-0.671,2.951-1.341,5.902-2.012,8.852
						c14.866,2.613,18.548,5.295,18.665,7.436c0.254,4.639-16.023,10.557-31.108,10.942c-18.917,0.482-39.003-7.656-38.618-13.731
						c0.156-2.459,3.724-5.492,17.459-8.47c2.147-3.018,4.292-6.036,6.439-9.054
						C2747.528,2021.243,2735.848,2008.448,2737.404,1996.441z"/>
					
						<linearGradient id="SVGID_00000040573199078811942500000011057438319787754915_" gradientUnits="userSpaceOnUse" x1="883.4564" y1="1585.9238" x2="832.1451" y2="1668.9275" gradientTransform="matrix(0.9717 -0.2361 0.2361 0.9717 1534.775 640.4756)">
						<stop  offset="0" style="stop-color:#FFC444"/>
						<stop  offset="0.9964" style="stop-color:#F36F56"/>
					</linearGradient>
					<path style="fill:url(#SVGID_00000040573199078811942500000011057438319787754915_);" d="M2760.788,1990.305
						c4.29-2.568,7.559,2.952,5.538,7.776c-2.02,4.824-8.812,7.843-12.932,4.966
						C2749.275,2000.172,2755.014,1993.76,2760.788,1990.305z"/>
					
						<linearGradient id="SVGID_00000134239952064893317880000005925092574553020072_" gradientUnits="userSpaceOnUse" x1="2763.9663" y1="1684.6302" x2="3070.9734" y2="2172.5967">
						<stop  offset="0" style="stop-color:#444B8C"/>
						<stop  offset="0.9964" style="stop-color:#26264F"/>
					</linearGradient>
					<path style="fill:url(#SVGID_00000134239952064893317880000005925092574553020072_);" d="M2769.802,1993.872
						c16.68,33.391-9.065,60.749-8.627,95.324c0.766,60.443,81.433,133.482,162.208,132.16
						c55.438-0.907,92.788-36.363,132.794-75.058c29.661-28.688,91.633-88.627,99.309-182.448
						c2.571-31.422,8.456-103.34-41.571-146.653c-56.351-48.788-157.094-38.292-184.759,4.62
						c-23.905,37.081,18.146,80.699-11.548,120.093c-19.61,26.014-62.378,39.4-86.605,26.558
						c-15.8-8.375-14.466-23.003-32.332-30.023c-21.651-8.507-51.882,1.869-55.427,16.166
						C2740.254,1966.664,2759.223,1972.697,2769.802,1993.872z"/>
				</g>
				
					<linearGradient id="SVGID_00000085958242760009201310000015436688208180080037_" gradientUnits="userSpaceOnUse" x1="2590.3704" y1="2073.3723" x2="2838.6746" y2="2583.9705">
					<stop  offset="0" style="stop-color:#FFC444"/>
					<stop  offset="0.9964" style="stop-color:#F36F56"/>
				</linearGradient>
				<path style="fill:url(#SVGID_00000085958242760009201310000015436688208180080037_);" d="M2478.774,1865.127
					c-1.425,13.37-6.244,72.516,34.552,122.456c38.121,46.663,92.107,55.984,102.142,57.5c48.54,7.335,69.473-13.585,86.435,0.67
					c28.785,24.188,13.49,122.221-38.62,148.628c-58.74,29.766-144.006-41.744-181.396-91.284
					c-49.055-64.992-49.034-136.318-48.747-151.047c0.743-38.275,10.551-68.745,18.318-87.694c3.191-0.961,8.048-2.024,14.003-1.817
					C2471.136,1862.737,2475.717,1864.014,2478.774,1865.127z"/>
				
					<linearGradient id="SVGID_00000126325833039651570270000013565163198767666600_" gradientUnits="userSpaceOnUse" x1="2582.0068" y1="2079.0007" x2="2834.4692" y2="2598.1489">
					<stop  offset="0" style="stop-color:#FF9085"/>
					<stop  offset="1" style="stop-color:#FB6FBB"/>
				</linearGradient>
				<path style="opacity:0.25;fill:url(#SVGID_00000126325833039651570270000013565163198767666600_);" d="M2977.315,2630.91
					c-14.21-14.568,1.433-43.947-19.558-65.787c-19.481-20.271-41.537-3.895-72.899-21.336
					c-40.226-22.372-29.142-63.328-67.566-85.346c-27.631-15.834-40.615,1.19-83.568-7.112c-42.88-8.287-95.107-37.85-120.906-90.68
					c-10.963-22.448-15.003-44.764-15.539-64.712c-19.286,34.456-39.29,67.476-41.924,123.201
					c-1.654,34.981,4.265,63.573,8.863,80.792c14.312,17.824,37.737,42.978,72.307,64.009
					c50.306,30.607,79.479,25.271,151.726,45.044c118.175,32.342,128.689,70.858,187.287,61.046
					c37.849-6.338,72.649-28.981,91.259-51.644C3012.181,2642.695,2987.628,2641.484,2977.315,2630.91z"/>
			</g>
		</g>
		<g>
			<path style="fill:#26264F;" d="M1767.691,1941.556c-2.261,0.618-4.173,2.13-5.297,4.187c-1.123,2.057-1.361,4.483-0.659,6.72
				l49.201,156.624c1.407,4.479,6.138,7.01,10.646,5.696l114.266-33.328c4.551-1.327,7.178-6.079,5.882-10.639l-44.299-155.868
				c-1.293-4.55-6.009-7.21-10.573-5.963L1767.691,1941.556z"/>
			
				<linearGradient id="SVGID_00000013153398790712295580000017391244902394046609_" gradientUnits="userSpaceOnUse" x1="1739.7203" y1="1826.3347" x2="1989.1376" y2="2231.7502">
				<stop  offset="0" style="stop-color:#FF9085"/>
				<stop  offset="1" style="stop-color:#FB6FBB"/>
			</linearGradient>
			<path style="fill:url(#SVGID_00000013153398790712295580000017391244902394046609_);" d="M1776.782,1949.17
				c-2.017,0.551-3.722,1.899-4.724,3.734c-1.002,1.835-1.214,3.998-0.587,5.992l43.876,139.673c1.255,3.995,5.474,6.252,9.493,5.08
				l101.901-29.721c4.059-1.184,6.401-5.422,5.246-9.489l-39.506-139c-1.153-4.058-5.359-6.43-9.428-5.318L1776.782,1949.17z"/>
			<path style="opacity:0.75;fill:#F4F7FA;" d="M1792.023,1956.95c-1.553,0.424-2.867,1.459-3.645,2.868
				c-0.777,1.41-0.951,3.073-0.482,4.613l13.884,45.555c0.936,3.071,4.139,4.848,7.24,4.016l81.316-21.812
				c1.536-0.412,2.843-1.421,3.631-2.802c0.787-1.381,0.99-3.02,0.563-4.551l-12.905-46.237c-0.881-3.156-4.146-5.008-7.307-4.144
				L1792.023,1956.95z"/>
			<path style="opacity:0.75;fill:#F4F7FA;" d="M1812.679,2029.633c-1.602,0.438-2.958,1.506-3.76,2.959
				c-0.802,1.454-0.982,3.171-0.498,4.76l14.326,47.006c0.966,3.169,4.271,5.002,7.471,4.144l83.906-22.506
				c1.585-0.425,2.933-1.466,3.746-2.891c0.813-1.425,1.022-3.116,0.581-4.696l-13.315-47.71c-0.909-3.257-4.278-5.167-7.54-4.276
				L1812.679,2029.633z"/>
			
				<linearGradient id="SVGID_00000045620026972306366690000018279944203320029630_" gradientUnits="userSpaceOnUse" x1="2378.6453" y1="2359.2212" x2="2463.3591" y2="2020.3649">
				<stop  offset="0" style="stop-color:#AA80F9"/>
				<stop  offset="0.9964" style="stop-color:#6165D7"/>
			</linearGradient>
			<path style="fill:url(#SVGID_00000045620026972306366690000018279944203320029630_);" d="M2432.626,2021.917
				c6.428,2.429,104.475,41.421,124.628,143.754c1.628,8.267,17.38,96.186-42.244,158.297
				c-66.858,69.646-195.598,67.92-246.699,9.697c-11.917-13.578-18.204-28.626-21.725-41.271l0,0l13.465-35.771
				c16.429-19.833,38.798-24.533,50.744-27.478c29.451-7.258,51.687,5.86,68.554-8.343c9.333-7.857,11.187-19.167,12.843-29.27
				c5.641-34.41-13.781-55.591-15.194-76.811c-1.057-15.863-6.61-50.621,14.095-73.287
				C2404.203,2027.081,2422.364,2023.173,2432.626,2021.917z"/>
			
				<linearGradient id="SVGID_00000166661984729938505710000018298587383084114582_" gradientUnits="userSpaceOnUse" x1="2125.8418" y1="3266.8877" x2="2166.0273" y2="3302.6328" gradientTransform="matrix(0.9902 -0.14 0.14 0.9902 -102.8428 206.9384)">
				<stop  offset="0" style="stop-color:#444B8C"/>
				<stop  offset="0.9964" style="stop-color:#26264F"/>
			</linearGradient>
			<path style="fill:url(#SVGID_00000166661984729938505710000018298587383084114582_);" d="M2470.829,3162.375
				c1.144-6.3,21.488-12.002,31.562-3.564c5.002,4.189,8.447,12.682,5.552,16.518c-1.053,1.396,3.259,3.85-0.873,3.898
				C2493.367,3179.387,2469.692,3168.634,2470.829,3162.375z"/>
			
				<linearGradient id="SVGID_00000010294349324537538720000016279345610743750024_" gradientUnits="userSpaceOnUse" x1="1239.2859" y1="3302.6836" x2="1239.2859" y2="3232.6758" gradientTransform="matrix(0.9902 -0.14 0.14 0.9902 813.3583 77.4224)">
				<stop  offset="0" style="stop-color:#FFC444"/>
				<stop  offset="0.9964" style="stop-color:#F36F56"/>
			</linearGradient>
			<path style="fill:url(#SVGID_00000010294349324537538720000016279345610743750024_);" d="M2492.154,3164.667l20.923-2.958
				c-9.694-11.671-7.899-48.838-7.899-48.838l-22.25,4.968c0,0,2.535,10.202,6.848,25.25
				C2491.251,3148.24,2491.911,3156.302,2492.154,3164.667z"/>
			
				<linearGradient id="SVGID_00000151515838950937974430000014047772769668122797_" gradientUnits="userSpaceOnUse" x1="2129.8818" y1="3262.3467" x2="2170.0671" y2="3298.0918" gradientTransform="matrix(0.9902 -0.14 0.14 0.9902 -102.8428 206.9384)">
				<stop  offset="0" style="stop-color:#444B8C"/>
				<stop  offset="0.9964" style="stop-color:#26264F"/>
			</linearGradient>
			<path style="fill:url(#SVGID_00000151515838950937974430000014047772769668122797_);" d="M2490.298,3162.09
				c0,0,25.191-5.803,27.916-0.807c2.725,4.997,4.84,18.376-11.142,17.944C2491.089,3178.795,2488.878,3166.327,2490.298,3162.09z"
				/>
			
				<linearGradient id="SVGID_00000080193308790256221700000016245579183588241075_" gradientUnits="userSpaceOnUse" x1="2175.0969" y1="3166.4126" x2="2215.2844" y2="3202.1594">
				<stop  offset="0" style="stop-color:#444B8C"/>
				<stop  offset="0.9964" style="stop-color:#26264F"/>
			</linearGradient>
			<path style="fill:url(#SVGID_00000080193308790256221700000016245579183588241075_);" d="M2183.74,3185.998
				c2.014-6.077,22.957-8.876,31.75,0.889c4.366,4.848,6.588,13.74,3.186,17.132c-1.239,1.235,2.688,4.268-1.41,3.738
				C2203.674,3205.997,2181.737,3192.036,2183.74,3185.998z"/>
			
				<linearGradient id="SVGID_00000040559585402385482300000006925095774300041602_" gradientUnits="userSpaceOnUse" x1="1592.9574" y1="35.1895" x2="1637.1604" y2="72.8219" gradientTransform="matrix(0.1359 0.9907 0.9907 -0.1359 1532.756 497.6357)">
				<stop  offset="0" style="stop-color:#FFC444"/>
				<stop  offset="0.9964" style="stop-color:#F36F56"/>
			</linearGradient>
			<path style="fill:url(#SVGID_00000040559585402385482300000006925095774300041602_);" d="M1821.545,2119.79l-19.124-9.16
				c-2.97-2.375-7.514-6.589-10.958-13.049c-5.669-10.634-5.579-22.142-5.505-22.154c0.045-0.007-0.871-15.479,5.693-18.099
				c0.86-0.343,1.854-0.453,2.998-0.267l6.803,17.913c0,0,1.089,7.794,13.379,15.882c12.184,10.612,17.09,20.311,17.09,20.311
				L1821.545,2119.79z"/>
			
				<linearGradient id="SVGID_00000047760184793824046270000001132027933556217006_" gradientUnits="userSpaceOnUse" x1="1288.4972" y1="3202.2307" x2="1288.4972" y2="3132.22" gradientTransform="matrix(1 0 0 1 925.3102 0)">
				<stop  offset="0" style="stop-color:#FFC444"/>
				<stop  offset="0.9964" style="stop-color:#F36F56"/>
			</linearGradient>
			<path style="fill:url(#SVGID_00000047760184793824046270000001132027933556217006_);" d="M2204.533,3191.252h21.131
				c-7.964-12.913-0.985-49.463-0.985-49.463l-22.727,1.804c0,0,1.083,10.456,3.247,25.96
				C2205.939,3174.86,2205.463,3182.936,2204.533,3191.252z"/>
			
				<linearGradient id="SVGID_00000108288229086496981950000013131270338367447207_" gradientUnits="userSpaceOnUse" x1="65.2378" y1="3234.3347" x2="-196.8118" y2="2176.3125" gradientTransform="matrix(-1 0 0 1 2275.7473 0)">
				<stop  offset="0" style="stop-color:#444B8C"/>
				<stop  offset="0.9964" style="stop-color:#26264F"/>
			</linearGradient>
			<path style="fill:url(#SVGID_00000108288229086496981950000013131270338367447207_);" d="M2149.769,2392.157
				c-9.789,32.325-23.768,84.498-32.766,149.955c-25.667,186.707,28.887,192.662,18.699,399.557
				c-3.252,66.041,57.214,218.326,62.543,221.689c2.58,0.25,5.378,0.418,8.363,0.328c5.259-0.159,12.675-0.964,21.297-3.55
				c9.579-1.65,44.112-95.187,36.108-150.801c-5.665-39.361-4.022-81.603-0.739-166.089c0.531-13.689,35.557-266.333,35.557-266.333
				l0,0c10.654,93.515,22.906,172.973,33.529,234.578c34.127,197.925,145.091,317.724,150.879,319.646
				c1.143,0.459,11.555,4.242,20.068-1.369c3.788-2.498,5.078-5.72,5.078-5.72c2.969-2.324-0.875-197.606-34.72-344.573
				c-49.126-213.321-27.735-263.235-43.298-358.517C2416.899,2338.51,2149.769,2392.157,2149.769,2392.157z"/>
			
				<linearGradient id="SVGID_00000028291397036488197470000017710639585629893033_" gradientUnits="userSpaceOnUse" x1="2051.8186" y1="2035.7931" x2="2560.1042" y2="2439.1943">
				<stop  offset="0" style="stop-color:#AA80F9"/>
				<stop  offset="0.9964" style="stop-color:#6165D7"/>
			</linearGradient>
			<path style="fill:url(#SVGID_00000028291397036488197470000017710639585629893033_);" d="M2348.198,2005.266
				c-32.616-0.959-95.787-11.609-137.079,25.544c-0.718,0.645-4.057,4.302-8.221,9.182c-3.867,4.53-17.13,20.391-29.155,41.834
				c-8.71,15.529-16.57,33.63-24.501,60.609c-13.987,47.578-18.001,88.092-19.343,105.744
				c-7.548,99.266-0.064,145.065,6.728,176.208c29.489,15.147,105.477,42.252,196.017,28.785
				c41.347-6.151,74.438-19.909,97.722-32.192c-23.493-71.133-5.062-109.197,3.633-144.28
				c12.401-50.027,12.599-46.245,22.809-85.984c16.845-65.572,19.609-132.574,8.035-146.284
				C2433.634,2007.463,2377.401,2006.126,2348.198,2005.266z"/>
			
				<linearGradient id="SVGID_00000091015367189986958520000005451350207113031043_" gradientUnits="userSpaceOnUse" x1="2187.2854" y1="2143.3064" x2="2531.5571" y2="2416.5378">
				<stop  offset="0" style="stop-color:#AA80F9"/>
				<stop  offset="0.9964" style="stop-color:#6165D7"/>
			</linearGradient>
			<path style="fill:url(#SVGID_00000091015367189986958520000005451350207113031043_);" d="M2464.843,2044.431
				c-17.521-20.755-42.929-30.277-67.014-34.792c11.291,50.395-14.358,112.112-49.164,144.871
				c-32.475,30.564-62.349,10.267-83.874,35.75c-17.777,21.045-18.356,55.248-9.387,78.706c12.13,31.726,38.291,34.81,36.931,52.716
				c-1.803,23.737-49.526,41.406-84.628,44.709c-36.661,3.451-65.895-8.171-80.388-15.169c1.467,33.582,5.498,55.683,9.31,73.164
				c29.488,15.147,105.477,42.252,196.017,28.785c41.347-6.151,74.438-19.909,97.722-32.191
				c-23.493-71.133-5.062-109.197,3.634-144.28c12.4-50.027,12.599-46.245,22.808-85.984
				C2473.653,2125.144,2476.417,2058.142,2464.843,2044.431z"/>
			
				<linearGradient id="SVGID_00000069366647368753412620000009619422123138692247_" gradientUnits="userSpaceOnUse" x1="2179.137" y1="3161.8706" x2="2219.3245" y2="3197.6174">
				<stop  offset="0" style="stop-color:#444B8C"/>
				<stop  offset="0.9964" style="stop-color:#26264F"/>
			</linearGradient>
			<path style="fill:url(#SVGID_00000069366647368753412620000009619422123138692247_);" d="M2203.056,3188.44
				c0,0,25.755-2.22,27.753,3.109c1.999,5.328,2.22,18.872-13.543,16.208C2201.501,3205.092,2201.057,3192.437,2203.056,3188.44z"/>
			
				<linearGradient id="SVGID_00000137124733371560159890000000302110014205148343_" gradientUnits="userSpaceOnUse" x1="1993.7411" y1="2108.9712" x2="2502.0271" y2="2512.3728">
				<stop  offset="0" style="stop-color:#AA80F9"/>
				<stop  offset="0.9964" style="stop-color:#6165D7"/>
			</linearGradient>
			<path style="fill:url(#SVGID_00000137124733371560159890000000302110014205148343_);" d="M2261.893,2017.164
				c-35.675-23.21-128.956,49.512-157.196,69.57c-109.507,77.769-96.381,126.281-146.113,102.065
				c-33.629-16.374-38.194-65.734-95.667-84.3c-10.161-3.282-18.902-4.609-24.528-5.218c-0.077,0.042-18.977,10.096-19.061,10.12
				c-6.713,2.174-13.426,4.345-19.059,10.123c-5.529,11.474-10.595,25.452-13.141,41.749c0.543,5.789,1.681,15.385,4.287,26.974
				c2.158,9.591,27.406,114.552,115.169,146.877c16.122,5.938,29.518,7.645,36.278,8.463c28.839,3.497,54.979-0.778,99.666-16.177
				c75.695-26.082,133.484-50.548,184.58-110.35c2.434-2.848,4.402-5.644,6.365-8.655
				C2271.472,2150.136,2296.333,2039.567,2261.893,2017.164z"/>
			<g>
				
					<linearGradient id="SVGID_00000135659301935380257880000016417671820678235296_" gradientUnits="userSpaceOnUse" x1="2214.6218" y1="1891.348" x2="2432.2537" y2="2165.1565">
					<stop  offset="0" style="stop-color:#FFC444"/>
					<stop  offset="0.9964" style="stop-color:#F36F56"/>
				</linearGradient>
				<path style="fill:url(#SVGID_00000135659301935380257880000016417671820678235296_);" d="M2256.407,1967.872
					c-10.103-17.081-5.602-36.594-4.587-40.811c4.249-17.653,5.829-20.33,9.106-24.066l4.633-4.899c0,0,0.287-0.215,0.593-0.425
					c3.221-2.215,15.251-5.817,17.848-5.947c8.296-0.417,25.177,29.331,34.844,75.174c0.785,1.636,1.563,3.29,2.333,4.961
					c4.794,10.4,8.907,20.628,12.438,30.601c56.062,4.74,63.843,11.318,64.093,15.116c0.526,7.996-31.417,17.235-55.44,20.754
					c-52.391,7.67-106.246-6.147-106-15.917c0.107-4.253,10.521-9.796,54.934-15.612c-1.039-7.35-2.077-14.699-3.116-22.048
					C2284.476,1983.952,2263.848,1980.456,2256.407,1967.872z"/>
				<path style="fill:#26264F;" d="M2245.868,1889.591c3.78,13.993,14.367,27.192,18.369,28.699c0.516,0.195,3.475,1.474,6.55,4.189
					c0.418,0.369,0.823,0.824,1.239,1.442c5.421,8.008-5.844,22.136-2.082,25.365c2.729,2.342,11.245-4.033,13.039-1.86
					c1.689,2.045-4.95,8.982-2.993,11.449c1.478,1.862,5.842-1.365,9.778,1.042c1.962,1.199,1.851,2.593,4.786,7.073
					c1.66,2.534,3.755,5.232,5.202,6.658c7.032,6.933,21.542,6.282,23.303,2.288c0.49-1.113-0.346-1.716-0.417-4.993
					c0,0-0.065-3.038,1.041-6.865c1.579-5.468,7.527-10.662,13.108-17.477c10.335-12.621,11.719-21.399,12.055-24.33
					c0.119-1.043,0.16-1.818,0.189-2.377c0.574-11.21-3.454-26.377-10.58-34.464c-11.939-13.549-27.501-1.457-45.981-13.108
					c-21.324-13.442-17.966-40.48-27.672-40.78C2254.102,1831.211,2238.879,1863.718,2245.868,1889.591z"/>
				
					<linearGradient id="SVGID_00000173120349930003186150000014535787370373814423_" gradientUnits="userSpaceOnUse" x1="2223.7988" y1="1884.0518" x2="2441.4351" y2="2157.866">
					<stop  offset="0" style="stop-color:#FFC444"/>
					<stop  offset="0.9964" style="stop-color:#F36F56"/>
				</linearGradient>
				<path style="fill:url(#SVGID_00000173120349930003186150000014535787370373814423_);" d="M2274.102,1944.653
					c2.175-5.632,9.389-2.807,11.05,3.285c1.663,6.093-2.559,14.015-8.616,14.339
					C2270.478,1962.6,2271.176,1952.232,2274.102,1944.653z"/>
			</g>
			<path style="fill:#26264F;" d="M2274.165,1933.701l-5.202,12.482c0,0-5.202,14.981-12.067,9.364
				c-5.609-4.589-6.636-4.18-6.824-3.875c-0.036,0.058-0.031,0.13-0.043,0.13c-0.077,0-0.153-2.988-0.208-5.619
				c-1.308,3.609-2.913,9.324-2.913,16.438c0.001,6.91,0.001,14.309,5.409,19.973c0.313,0.327,6.205,6.322,14.148,6.034
				c0,0,3.123-0.113,14.98-5.616c0,0-16.228-6.241-17.061-8.53c-2.263-6.224,5.659-12.024,8.739-26.841
				C2274.312,1941.925,2274.342,1937.023,2274.165,1933.701z"/>
		</g>
	</g>
</g>
</svg>
