<?xml version="1.0" encoding="utf-8"?>
<!-- Generator: Adobe Illustrator 27.5.0, SVG Export Plug-In . SVG Version: 6.00 Build 0)  -->
<svg version="1.1" xmlns="http://www.w3.org/2000/svg" xmlns:xlink="http://www.w3.org/1999/xlink" x="0px" y="0px"
	 viewBox="0 0 500 500" style="enable-background:new 0 0 500 500;" xml:space="preserve">
<g id="Background_Simple">
	<g>
		<path style="fill:#92E3A9;" d="M332.299,54.702c0,0-76.988-27.375-152.56,16.208C104.168,114.494,66.036,201.012,33.291,270.316
			C0.545,339.621,19.394,410.115,77.083,442.259c57.689,32.143,96.916-15.24,177.845-17.548
			c80.929-2.307,102.695,9.263,169.849-36.455c67.155-45.717,79.294-153.688,26.32-233.578
			C398.122,74.788,332.299,54.702,332.299,54.702z"/>
		<path style="opacity:0.7;fill:#FFFFFF;" d="M332.299,54.702c0,0-76.988-27.375-152.56,16.208
			C104.168,114.494,66.036,201.012,33.291,270.316C0.545,339.621,19.394,410.115,77.083,442.259
			c57.689,32.143,96.916-15.24,177.845-17.548c80.929-2.307,102.695,9.263,169.849-36.455
			c67.155-45.717,79.294-153.688,26.32-233.578C398.122,74.788,332.299,54.702,332.299,54.702z"/>
	</g>
</g>
<g id="Plants">
	<g>
		<g>
			<g>
				<g>
					<g>
						<path style="fill:#92E3A9;" d="M163.617,197.681c0,0,0-5.587-7.822-13.408c-7.822-7.822-12.85-12.291-12.85-12.291
							s-3.911,12.85,3.352,20.672c7.263,7.822,17.32,15.085,17.32,15.085V197.681z"/>
						<path style="fill:#92E3A9;" d="M152.266,232.573c0,0,0-5.587-7.822-13.409c-7.822-7.822-12.85-12.291-12.85-12.291
							s-3.911,12.85,3.352,20.672c7.263,7.822,17.32,15.085,17.32,15.085V232.573z"/>
						<path style="fill:#92E3A9;" d="M163.125,207.197c0,0,0.59-5.556,9.195-12.507c8.604-6.951,14.077-10.865,14.077-10.865
							s2.531,13.191-5.518,20.202c-8.049,7.01-18.816,13.17-18.816,13.17L163.125,207.197z"/>
						<path style="fill:#92E3A9;" d="M149.412,248.403c0,0,1.171-5.463,10.458-11.472c9.287-6.009,15.14-9.326,15.14-9.326
							s1.132,13.384-7.609,19.51c-8.741,6.126-20.096,11.121-20.096,11.121L149.412,248.403z"/>
						<path style="fill:#92E3A9;" d="M151.99,293.331c0,0,0-5.587,7.822-13.409c7.822-7.822,12.85-12.291,12.85-12.291
							s3.911,12.85-3.352,20.672c-7.263,7.822-17.319,15.085-17.319,15.085V293.331z"/>
						<path style="fill:#92E3A9;" d="M151.86,304.297c0,0,0.794-5.53-5.837-14.384c-6.631-8.854-10.973-13.993-10.973-13.993
							s-5.697,12.164,0.381,20.938c6.078,8.774,15,17.393,15,17.393L151.86,304.297z"/>
						<path style="fill:#92E3A9;" d="M144.147,336.796c0,0,0-5.587,7.822-13.409c7.822-7.822,12.85-12.291,12.85-12.291
							s3.911,12.85-3.352,20.672c-7.263,7.822-17.32,15.085-17.32,15.085V336.796z"/>
						<path style="fill:#92E3A9;" d="M149.37,366.262c0,0-1.415-5.405,4.171-14.952c5.586-9.548,9.318-15.145,9.318-15.145
							s7.038,11.44,1.993,20.846c-5.045,9.406-12.934,18.98-12.934,18.98L149.37,366.262z"/>
					</g>
					<path style="fill:none;stroke:#263238;stroke-linecap:round;stroke-linejoin:round;stroke-miterlimit:10;" d="M164.326,196.249
						c-0.458,5.972-1.136,12.15-2.142,17.347c-3.092,15.975-10.822,26.281-13.913,40.71c-3.092,14.429,5.784,33.018,3.407,51.55
						c-2.377,18.533-9.591,28.839-7.53,41.207c2.061,12.368,12.883,45.863,12.883,45.863"/>
					
						<line style="fill:none;stroke:#263238;stroke-linecap:round;stroke-linejoin:round;stroke-miterlimit:10;" x1="163.048" y1="210.91" x2="171.477" y2="204.441"/>
					
						<line style="fill:none;stroke:#263238;stroke-linecap:round;stroke-linejoin:round;stroke-miterlimit:10;" x1="163.44" y1="203.461" x2="159.912" y2="197.188"/>
					<path style="fill:none;stroke:#263238;stroke-linecap:round;stroke-linejoin:round;stroke-miterlimit:10;" d="M148.738,253.644
						c0,0,7.057-5.293,14.31-10.585"/>
					<path style="fill:none;stroke:#263238;stroke-linecap:round;stroke-linejoin:round;stroke-miterlimit:10;" d="M152.266,242.629
						c0,0-5.879-11.528-12.544-19.173"/>
					<path style="fill:none;stroke:#263238;stroke-linecap:round;stroke-linejoin:round;stroke-miterlimit:10;" d="M152.267,301.279
						c0,0,5.489-10.781,15.094-20.191"/>
					<path style="fill:none;stroke:#263238;stroke-linecap:round;stroke-linejoin:round;stroke-miterlimit:10;" d="M150.895,309.12
						c0,0-3.529-8.429-7.645-14.506c-4.117-6.077-4.705-6.861-4.705-6.861"/>
					<path style="fill:none;stroke:#263238;stroke-linecap:round;stroke-linejoin:round;stroke-miterlimit:10;" d="M144.147,347.064
						c0,0,2.827-7.168,6.355-12.852c3.528-5.685,8.233-10.782,8.233-10.782"/>
					<path style="fill:none;stroke:#263238;stroke-linecap:round;stroke-linejoin:round;stroke-miterlimit:10;" d="M151.917,375.99
						c0,0-0.826-6.69,2.114-12.375c2.941-5.685,6.273-13.134,7.645-16.074"/>
				</g>
				<g>
					<g>
						<path style="fill:#92E3A9;" d="M112.398,272.319c0,0-0.607-3.503,3.449-9.257c4.056-5.754,6.724-9.103,6.724-9.103
							s3.847,7.633,0.142,13.327c-3.706,5.693-9.223,11.34-9.223,11.34L112.398,272.319z"/>
						<path style="fill:#92E3A9;" d="M123.304,292.967c0,0-0.606-3.504,3.449-9.258c4.056-5.754,6.724-9.103,6.724-9.103
							s3.847,7.634,0.142,13.327c-3.706,5.693-9.223,11.34-9.223,11.34L123.304,292.967z"/>
						<path style="fill:#92E3A9;" d="M113.739,278.233c0,0-0.973-3.42-7.123-6.845c-6.15-3.425-10.007-5.285-10.007-5.285
							s-0.155,8.547,5.653,12.069c5.808,3.522,13.229,6.216,13.229,6.216L113.739,278.233z"/>
						<path style="fill:#92E3A9;" d="M126.812,302.584c0,0-1.327-3.299-7.803-6.059c-6.476-2.76-10.506-4.205-10.506-4.205
							s0.743,8.516,6.889,11.409c6.146,2.893,13.809,4.792,13.809,4.792L126.812,302.584z"/>
						<path style="fill:#92E3A9;" d="M130.073,331.037c0,0-0.607-3.503-6.36-7.559c-5.754-4.056-9.392-6.313-9.392-6.313
							s-1.058,8.482,4.346,12.599c5.404,4.116,12.498,7.579,12.498,7.579L130.073,331.037z"/>
						<path style="fill:#92E3A9;" d="M131.345,337.899c0,0-1.098-3.382,2.099-9.654c3.197-6.272,5.362-9.966,5.362-9.966
							s4.893,7.009,2.034,13.171c-2.859,6.162-7.518,12.535-7.518,12.535L131.345,337.899z"/>
						<path style="fill:#92E3A9;" d="M141.162,366.159c0,0,0.406-3.532,5.919-7.91c5.513-4.377,9.016-6.838,9.016-6.838
							s1.54,8.408-3.62,12.826c-5.16,4.418-12.045,8.28-12.045,8.28L141.162,366.159z"/>
						<path style="fill:#92E3A9;" d="M139.709,357.442c0,0-0.607-3.503-6.361-7.559c-5.754-4.056-9.392-6.313-9.392-6.313
							s-1.057,8.483,4.346,12.599c5.403,4.116,12.498,7.579,12.498,7.579L139.709,357.442z"/>
						<path style="fill:#92E3A9;" d="M139.633,376.486c0,0,0.301-3.543-4.239-8.924c-4.539-5.381-7.487-8.486-7.487-8.486
							s-3.172,7.938,1.013,13.289c4.185,5.351,10.171,10.497,10.171,10.497L139.633,376.486z"/>
					</g>
					<path style="fill:none;stroke:#263238;stroke-linecap:round;stroke-linejoin:round;stroke-miterlimit:10;" d="M111.798,271.498
						c0.935,3.695,2.032,7.496,3.227,10.645c3.673,9.682,9.639,15.306,13.144,24.018c3.505,8.712-0.043,21.333,3.46,32.696
						c3.502,11.363,9.145,17.043,9.195,25.022c0.05,7.979-3.1,30.158-3.1,30.158"/>
					
						<line style="fill:none;stroke:#263238;stroke-linecap:round;stroke-linejoin:round;stroke-miterlimit:10;" x1="114.191" y1="280.553" x2="108.203" y2="277.411"/>
					
						<line style="fill:none;stroke:#263238;stroke-linecap:round;stroke-linejoin:round;stroke-miterlimit:10;" x1="113.136" y1="275.924" x2="114.668" y2="271.608"/>
					<path style="fill:none;stroke:#263238;stroke-linecap:round;stroke-linejoin:round;stroke-miterlimit:10;" d="M127.803,305.797
						c0,0-5-2.553-10.123-5.085"/>
					<path style="fill:none;stroke:#263238;stroke-linecap:round;stroke-linejoin:round;stroke-miterlimit:10;" d="M124.396,299.273
						c0,0,2.435-7.868,5.785-13.385"/>
					<path style="fill:none;stroke:#263238;stroke-linecap:round;stroke-linejoin:round;stroke-miterlimit:10;" d="M130.762,336.051
						c0,0-4.612-6.165-11.657-11.023"/>
					<path style="fill:none;stroke:#263238;stroke-linecap:round;stroke-linejoin:round;stroke-miterlimit:10;" d="M132.474,340.819
						c0,0,1.297-5.669,3.219-9.926c1.922-4.258,2.205-4.813,2.205-4.813"/>
					<path style="fill:none;stroke:#263238;stroke-linecap:round;stroke-linejoin:round;stroke-miterlimit:10;" d="M140.552,369.933
						c0,0,3.969-4.865,6.439-6.685c2.47-1.821,4.182-3.636,4.182-3.636"/>
					<path style="fill:none;stroke:#263238;stroke-linecap:round;stroke-linejoin:round;stroke-miterlimit:10;" d="M140.824,363.88
						c0,0-2.551-4.188-5.381-7.37c-2.83-3.182-6.333-5.867-6.333-5.867"/>
					<path style="fill:none;stroke:#263238;stroke-linecap:round;stroke-linejoin:round;stroke-miterlimit:10;" d="M139.092,382.863
						c0,0-0.208-4.285-2.669-7.53c-2.461-3.246-5.359-7.555-6.539-9.25"/>
				</g>
			</g>
		</g>
		<path style="fill:#263238;stroke:#263238;stroke-linecap:round;stroke-linejoin:round;stroke-miterlimit:10;" d="M168.347,410.971
			c0-8.098-2.47-15.414-6.447-20.666h-30.027c-3.977,5.252-6.447,12.568-6.447,20.666c0,12.337,5.73,22.864,13.796,27.025v2.286
			h15.608v-2.286h-0.278C162.617,433.835,168.347,423.307,168.347,410.971z"/>
	</g>
</g>
<g id="Window">
	<g>
		<g>
			<path style="fill:none;stroke:#263238;stroke-linecap:round;stroke-linejoin:round;stroke-miterlimit:10;" d="M482.971,333.526
				H355.285V102.054c0-34.242,27.758-62,62-62h3.686c34.242,0,62,27.758,62,62V333.526z"/>
			<path style="fill:none;stroke:#263238;stroke-linecap:round;stroke-linejoin:round;stroke-miterlimit:10;" d="M369.701,332.84
				V105.957c0-27.298,22.129-49.427,49.427-49.427h0c27.298,0,49.427,22.129,49.427,49.427V332.84"/>
			
				<line style="fill:none;stroke:#263238;stroke-linecap:round;stroke-linejoin:round;stroke-miterlimit:10;" x1="419.128" y1="40.055" x2="419.128" y2="333.183"/>
			
				<line style="fill:none;stroke:#263238;stroke-linecap:round;stroke-linejoin:round;stroke-miterlimit:10;" x1="355.971" y1="96.518" x2="482.113" y2="96.518"/>
			
				<line style="fill:none;stroke:#263238;stroke-linecap:round;stroke-linejoin:round;stroke-miterlimit:10;" x1="355.971" y1="136.334" x2="482.113" y2="136.334"/>
			
				<line style="fill:none;stroke:#263238;stroke-linecap:round;stroke-linejoin:round;stroke-miterlimit:10;" x1="355.971" y1="176.15" x2="482.113" y2="176.15"/>
			
				<line style="fill:none;stroke:#263238;stroke-linecap:round;stroke-linejoin:round;stroke-miterlimit:10;" x1="355.971" y1="215.966" x2="482.113" y2="215.966"/>
			
				<line style="fill:none;stroke:#263238;stroke-linecap:round;stroke-linejoin:round;stroke-miterlimit:10;" x1="355.971" y1="255.782" x2="482.113" y2="255.782"/>
			
				<line style="fill:none;stroke:#263238;stroke-linecap:round;stroke-linejoin:round;stroke-miterlimit:10;" x1="355.971" y1="295.598" x2="482.113" y2="295.598"/>
			
				<line style="fill:none;stroke:#263238;stroke-linecap:round;stroke-linejoin:round;stroke-miterlimit:10;" x1="372.837" y1="59.979" x2="384.277" y2="70.396"/>
			
				<line style="fill:none;stroke:#263238;stroke-linecap:round;stroke-linejoin:round;stroke-miterlimit:10;" x1="464.939" y1="59.979" x2="453.499" y2="70.396"/>
		</g>
		<g>
			
				<line style="fill:none;stroke:#263238;stroke-linecap:round;stroke-linejoin:round;stroke-miterlimit:10;" x1="16.476" y1="257.255" x2="329.336" y2="257.255"/>
			
				<line style="fill:none;stroke:#263238;stroke-linecap:round;stroke-linejoin:round;stroke-miterlimit:10;" x1="16.476" y1="263.223" x2="329.336" y2="263.223"/>
		</g>
	</g>
</g>
<g id="Picture">
	<g>
		
			<rect x="192.548" y="78.991" style="fill:none;stroke:#263238;stroke-linecap:round;stroke-linejoin:round;stroke-miterlimit:10;" width="84.174" height="113.033"/>
		
			<rect x="200.608" y="89.813" style="fill:none;stroke:#263238;stroke-linecap:round;stroke-linejoin:round;stroke-miterlimit:10;" width="68.055" height="91.389"/>
	</g>
</g>
<g id="Lamp">
	<g>
		
			<line style="fill:none;stroke:#263238;stroke-width:2;stroke-linecap:round;stroke-linejoin:round;stroke-miterlimit:10;" x1="226.29" y1="219.691" x2="232.092" y2="279.539"/>
		
			<line style="fill:none;stroke:#263238;stroke-width:2;stroke-linecap:round;stroke-linejoin:round;stroke-miterlimit:10;" x1="230.269" y1="219.691" x2="236.071" y2="279.539"/>
		
			<line style="fill:none;stroke:#263238;stroke-width:2;stroke-linecap:round;stroke-linejoin:round;stroke-miterlimit:10;" x1="280.336" y1="171.862" x2="226.787" y2="216.458"/>
		
			<line style="fill:none;stroke:#263238;stroke-width:2;stroke-linecap:round;stroke-linejoin:round;stroke-miterlimit:10;" x1="282.45" y1="173.976" x2="228.901" y2="218.572"/>
		<path style="fill:#FFFFFF;stroke:#263238;stroke-linecap:round;stroke-linejoin:round;stroke-miterlimit:10;" d="M287.598,171.404
			l-6.922,5.276l-1.432-1.879c-1.457-1.911-1.088-4.642,0.823-6.099l0,0c1.912-1.457,4.642-1.088,6.099,0.823L287.598,171.404z"/>
		<g>
			<path style="fill:#FFFFFF;stroke:#263238;stroke-linecap:round;stroke-linejoin:round;stroke-miterlimit:10;" d="
				M306.875,182.566c-0.234-1.319-1.025-2.931-2.145-4.402c-4.818-6.322-15.459-10.015-21.565-5.361
				c-6.106,4.654-5.366,15.893-0.548,22.215c1.121,1.47,2.466,2.66,3.676,3.235L306.875,182.566z"/>
			<path style="fill:#FFFFFF;stroke:#263238;stroke-linecap:round;stroke-linejoin:round;stroke-miterlimit:10;" d="
				M306.985,182.204c0.986,1.293-2.923,5.929-8.731,10.355c-5.807,4.426-11.314,6.966-12.299,5.673
				c-0.986-1.293,2.923-5.929,8.731-10.355C300.492,183.451,305.999,180.911,306.985,182.204z"/>
		</g>
		<path style="fill:#263238;stroke:#263238;stroke-width:2;stroke-linecap:round;stroke-linejoin:round;stroke-miterlimit:10;" d="
			M232.507,218.448c0,2.197-1.781,3.979-3.979,3.979c-2.197,0-3.979-1.781-3.979-3.979c0-2.197,1.781-3.979,3.979-3.979
			C230.725,214.469,232.507,216.25,232.507,218.448z"/>
		<path style="fill:#FFFFFF;stroke:#263238;stroke-linecap:round;stroke-linejoin:round;stroke-miterlimit:10;" d="M257.565,287.994
			c-1.939-6.511-10.989-11.439-21.867-11.439c-10.878,0-19.927,4.928-21.867,11.439H257.565z"/>
	</g>
</g>
<g id="Character">
	<g>
		<g>
			
				<rect x="398.47" y="342.513" transform="matrix(-1 -1.224647e-16 1.224647e-16 -1 814.6243 713.6284)" style="fill:#263238;" width="17.684" height="28.603"/>
			
				<rect x="402.891" y="365.447" transform="matrix(-1 -1.224647e-16 1.224647e-16 -1 814.624 765.2365)" style="fill:#263238;" width="8.842" height="34.342"/>
			<path style="fill:#263238;" d="M410.908,396c0,0,7.428,8.429,26.526,11.368c10.089,1.553,20.589,3.483,29.704,8.308
				c5.863,3.104,17.53,9.895,17.53,17.654c0,3.839-3.112,6.951-6.951,6.951c-3.839,0-6.951-3.112-6.951-6.951
				c0-1.835,0.725-3.493,1.887-4.735c-0.968-1.577-7.292-11.085-20.601-13.979c-14.526-3.158-25.13-1.872-45.564-15.459L410.908,396
				z"/>
			<path style="fill:#263238;" d="M404.588,396c0,0-7.428,8.429-26.526,11.368c-10.089,1.553-20.589,3.483-29.704,8.308
				c-5.863,3.104-17.53,9.895-17.53,17.654c0,3.839,3.112,6.951,6.951,6.951s6.951-3.112,6.951-6.951
				c0-1.835-0.725-3.493-1.887-4.735c0.969-1.577,7.292-11.085,20.601-13.979c14.526-3.158,25.13-1.872,45.565-15.459L404.588,396z"
				/>
			<path style="fill:#263238;" d="M404.288,427.235h6.68c0.362,0,0.655,0.293,0.655,0.655v11.735c0,0.362-0.293,0.655-0.655,0.655
				h-6.68c-0.362,0-0.655-0.294-0.655-0.655V427.89C403.632,427.528,403.926,427.235,404.288,427.235z"/>
			
				<rect x="405.733" y="397.176" transform="matrix(-1 -1.224647e-16 1.224647e-16 -1 815.2558 837.4577)" style="fill:#263238;" width="3.79" height="43.105"/>
		</g>
		<g>
			<path style="fill:#263238;" d="M420.624,344.979c-1.098,0.006-2.245,0.011-3.426,0.014
				C419.566,344.99,421.382,344.985,420.624,344.979z"/>
			<path style="fill:#263238;" d="M453.08,239.809c-1.713,0-3.167,1.238-3.457,2.926c-0.143,0.831-0.278,1.674-0.415,2.515
				c-1.949-0.212-4.61,0.128-6.072,3.053c-2.487,4.974-3.482,26.36-4.974,40.783c-1.492,14.423,2.984,25.863,2.984,30.339
				s-0.497,14.423-6.466,13.926c-5.968-0.497-73.111-1.492-77.09,0.995c-2.253,1.408-3.229,3.453-3.653,4.963h-1.41
				c-1.724,0-3.148,1.576-2.742,3.252c0.298,1.232,1.4,2.151,2.727,2.163c1.865,0.017,34.283,0.281,56.451,0.281
				c0.235,0,0.46,0,0.693,0c-0.018,0,0.17,0,0.654,0c2.398,0,4.704-0.003,6.888-0.01c-0.878,0.001-1.826,0.003-2.749,0.004
				c1.895-0.005,3.707-0.012,5.405-0.022c0.374,0.001,0.618,0.002,0.77,0.004c6.706-0.036,11.747-0.117,13.534-0.266
				c8.204-0.683,11.883-3.456,12.276-3.769c5.469-4.859,5.678-15.509,6.181-41.24c0.136-6.963,0.29-14.856,0.569-24.052
				c0.328-10.839,1.623-21.676,3.349-31.754C456.899,241.758,455.252,239.809,453.08,239.809z"/>
		</g>
	</g>
	<g>
		<g>
			<g>
				<path style="fill:#263238;stroke:#263238;stroke-linecap:round;stroke-linejoin:round;stroke-miterlimit:10;" d="
					M288.386,409.689c0,0-9.863,1.726-11.836,1.726c-1.973,0-15.288-2.959-17.507-2.219c-2.219,0.74-4.932,5.671-4.192,6.411
					c0.74,0.74,37.727,23.179,37.727,23.179s1.973,0.74,2.959,0c0.986-0.74,4.932-7.891,5.918-10.603
					c0.986-2.712,1.973-6.411,1.973-6.411L288.386,409.689z"/>
				<polygon style="fill:#FFFFFF;" points="268.943,421.921 286.723,421.032 291.761,423.699 273.98,424.588 				"/>
				<polygon style="fill:#FFFFFF;" points="275.758,425.773 293.539,424.884 298.577,427.552 280.796,428.441 				"/>
				<path style="fill:#FFFFFF;stroke:#263238;stroke-linecap:round;stroke-linejoin:round;stroke-miterlimit:10;" d="
					M254.851,415.607c0.74,0.74,37.727,23.179,37.727,23.179s1.973,0.74,2.959,0c0.189-0.142,0.486-0.52,0.85-1.054l-41.129-24.262
					C254.78,414.475,254.576,415.332,254.851,415.607z"/>
			</g>
			<path style="fill:#92E3A9;stroke:#263238;stroke-linecap:round;stroke-linejoin:round;stroke-miterlimit:10;" d="
				M316.294,330.997l-21.989,70.555c0,0-4.439,0-4.685,2.466c-0.247,2.466-3.945,7.151-3.945,7.151s17.014,14.795,17.754,13.809
				c0.74-0.986,6.165-9.863,6.165-9.863s3.945-5.425,3.945-7.397c0-1.973,0-4.932,0.74-6.411
				c0.74-1.479,39.743-69.322,39.743-69.322L316.294,330.997z"/>
		</g>
		<g>
			<polygon style="fill:#263238;stroke:#263238;stroke-linecap:round;stroke-linejoin:round;stroke-miterlimit:10;" points="
				363.536,223.718 359.034,258.917 345.527,258.917 345.527,271.196 363.536,270.378 367.22,222.49 			"/>
			<g>
				<path style="fill:#263238;stroke:#263238;stroke-linecap:round;stroke-linejoin:round;stroke-miterlimit:10;" d="
					M366.281,210.542c0,0,1.243-4.228,8.206-9.698c6.963-5.471,11.936-5.222,14.921-1.492c2.984,3.73-2.984,20.64-2.735,42.027
					c0.249,21.386,0,57.942-2.238,60.677c-2.238,2.735-14.175,2.984-16.413,2.487c-2.238-0.497-4.476-1.741-4.476-1.741
					s0.995-14.672,0.995-24.122c0-9.45-0.746-43.27-0.249-52.968C364.789,216.012,366.281,210.542,366.281,210.542z"/>
				<path style="fill:#FFFFFF;stroke:#263238;stroke-linecap:round;stroke-linejoin:round;stroke-miterlimit:10;" d="
					M368.519,207.309c0,0-1.741,8.455-1.741,17.656c0,9.201-1.243,30.836-1.243,39.291c0,8.455,0.249,35.064,0.249,35.81
					c0,0.746-1.243,2.238-2.238,2.736c-0.995,0.497-6.466,1.243-6.466,1.243s5.471-4.974,5.72-8.455
					c0.249-3.482-2.238-33.323-2.238-48.243c0-14.921,0.497-23.376,1.243-28.598S367.276,203.579,368.519,207.309z"/>
				<path style="fill:#FFFFFF;stroke:#263238;stroke-linecap:round;stroke-linejoin:round;stroke-miterlimit:10;" d="
					M367.027,201.34c0,0-1.989,2.735-1.989,5.222s0.746,6.217,0,8.455c-0.746,2.238-3.73,4.227-1.741,4.476
					c1.989,0.249,4.725-6.217,4.725-7.958c0-1.741,1.243-5.719,1.243-5.719S369.016,200.594,367.027,201.34z"/>
			</g>
		</g>
		<g>
			
				<rect x="248.738" y="223.835" style="fill:#92E3A9;stroke:#263238;stroke-linecap:round;stroke-linejoin:round;stroke-miterlimit:10;" width="101.183" height="64.16"/>
			<polygon style="fill:#263238;stroke:#263238;stroke-linecap:round;stroke-linejoin:round;stroke-miterlimit:10;" points="
				248.78,245.585 344.848,245.585 349.921,223.835 254.642,223.835 248.455,236.475 			"/>
			<polygon style="fill:#92E3A9;stroke:#263238;stroke-linecap:round;stroke-linejoin:round;stroke-miterlimit:10;" points="
				248.738,223.835 239.483,242.698 341.719,242.698 349.921,223.835 			"/>
		</g>
		<g>
			<path style="fill:#A3A3A3;stroke:#263238;stroke-linecap:round;stroke-linejoin:round;stroke-miterlimit:10;" d="
				M349.526,136.679c0,0-7.996,4.997-9.595,10.794c-1.599,5.797-0.6,11.993-2.199,14.792c-1.599,2.798-7.996,6.796-6.596,8.795
				c1.399,1.999,7.396,3.598,7.396,3.598s2.399,18.19,4.997,18.39c2.599,0.2,15.791-4.597,15.791-4.597s9.195,21.788,11.194,22.587
				c1.999,0.8,14.592-21.988,14.592-21.988s-4.597-9.395-3.798-11.594c0.8-2.199,10.194-19.589,9.595-30.183
				c-0.6-10.594-10.394-13.992-21.188-14.992C358.921,131.282,349.526,136.679,349.526,136.679z"/>
			<polygon style="fill:#263238;stroke:#263238;stroke-linecap:round;stroke-linejoin:round;stroke-miterlimit:10;" points="
				359.321,188.451 366.664,185.837 361.469,193.066 			"/>
			<path style="fill:#263238;stroke:#263238;stroke-linecap:round;stroke-linejoin:round;stroke-miterlimit:10;" d="
				M379.309,157.268c4.997,0.999,4.398,10.594,2.199,12.593c-2.199,1.999-3.998,3.798-3.198,4.997
				c0.459,0.689,1.58,1.904,2.98,2.701c0.008-0.031,0.008-0.074,0.018-0.102c0.8-2.199,10.194-19.589,9.595-30.183
				c-0.6-10.594-10.394-13.992-21.188-14.992c-10.794-0.999-20.189,4.398-20.189,4.398s-0.963,0.607-2.278,1.626
				c6.544,0.107,25.898,0.606,23.067,2.771c-3.398,2.598-8.995,6.197-6.197,7.995c2.798,1.799,8.995,5.797,6.996,7.996
				c-1.999,2.199-2.798,4.597-0.4,4.997C373.113,162.465,374.312,156.268,379.309,157.268z"/>
			<path style="fill:none;stroke:#263238;stroke-linecap:round;stroke-linejoin:round;stroke-miterlimit:10;" d="M380.309,170.86
				c0,0-4.797,3.598-6.796,2.798"/>
			<g>
				<ellipse style="fill:#263238;" cx="346.228" cy="159.567" rx="1.099" ry="2.299"/>
				<path style="fill:none;stroke:#263238;stroke-linecap:round;stroke-linejoin:round;stroke-miterlimit:10;" d="M343.929,151.071
					c0,0,3.798-1.999,6.396,1.799"/>
				<g>
					<path style="fill:#263238;stroke:#263238;stroke-linecap:round;stroke-linejoin:round;stroke-miterlimit:10;" d="
						M345.528,176.257c0,0,8.995-4.598,12.193-8.195c0,0-0.4,10.394-2.998,11.194C352.124,180.055,345.528,176.257,345.528,176.257z
						"/>
					<path style="fill:#FFFFFF;stroke:#263238;stroke-linecap:round;stroke-linejoin:round;stroke-miterlimit:10;" d="
						M345.528,176.257c0,0,0.789,0.452,1.919,1.009c2.701-1.012,6.94-3.024,10.075-6.492c0.154-1.562,0.199-2.712,0.199-2.712
						C354.523,171.66,345.528,176.257,345.528,176.257z"/>
				</g>
				
					<line style="fill:none;stroke:#263238;stroke-linecap:round;stroke-linejoin:round;stroke-miterlimit:10;" x1="344.816" y1="163.134" x2="350.363" y2="161.47"/>
			</g>
		</g>
		<g>
			<g>
				<path style="fill:#263238;stroke:#263238;stroke-linecap:round;stroke-linejoin:round;stroke-miterlimit:10;" d="
					M350.815,415.623c0,0-8.63,9.863-13.069,12.329c-4.438,2.466-17.507,7.644-17.507,8.877s0.986,3.452,2.712,3.452
					c1.726,0,50.796,0,50.796,0s2.959-1.726,2.712-4.932c-0.247-3.206-4.192-16.521-4.192-16.521L350.815,415.623z"/>
				<polygon style="fill:#FFFFFF;" points="352.604,437.331 363.585,424.922 357.891,425.38 347.315,437.331 				"/>
				<polygon style="fill:#FFFFFF;" points="360.201,437.331 371.478,424.588 365.783,425.047 354.913,437.331 				"/>
				<path style="fill:#FFFFFF;stroke:#263238;stroke-linecap:round;stroke-linejoin:round;stroke-miterlimit:10;" d="
					M320.284,437.322c0.209,1.252,1.153,2.959,2.667,2.959c1.726,0,50.796,0,50.796,0s1.748-1.026,2.443-2.959H320.284z"/>
			</g>
			<path style="fill:#92E3A9;stroke:#263238;stroke-linecap:round;stroke-linejoin:round;stroke-miterlimit:10;" d="
				M361.142,305.122c0,0-36.141,3.979-49.404,7.626c-13.263,3.647-14.257,7.626-12.268,14.258
				c1.99,6.631,48.931,76.747,49.594,78.405c0.663,1.658-3.647,1.326-3.647,4.31s3.647,7.958,3.647,7.958s4.201,1.419,11.955,2.032
				c6.494,0.513,11.44-0.512,11.44-0.512s-1.179-3.509-2.174-7.156c-0.995-3.647-2.984-8.952-3.647-9.947
				c-0.663-0.995-25.058-67.795-25.058-67.795h78.914c0,0,8.952-1.658,13.594-8.621c4.642-6.963-2.653-19.231-2.653-19.231
				L361.142,305.122z"/>
			<g>
				<g>
					<path style="fill:#FFFFFF;stroke:#263238;stroke-linecap:round;stroke-linejoin:round;stroke-miterlimit:10;" d="
						M371.752,207.06l1.989,8.704c0,0-3.481,59.931-3.481,69.132c0,9.201-0.249,11.937-1.243,13.429s-5.222,3.233-7.46,4.476
						s-5.796,2.776-5.796,2.776s17.981,3.441,29.421,8.912c11.439,5.471,30.836,9.947,38.794,6.714s12.931-9.201,12.931-9.201
						s-2.238-25.365-3.979-44.016c-1.741-18.651-11.439-47.249-20.889-60.926c-9.45-13.677-22.381-18.154-22.381-18.154
						l-10.693,12.682L371.752,207.06z"/>
					
						<line style="fill:none;stroke:#263238;stroke-linecap:round;stroke-linejoin:round;stroke-miterlimit:10;" x1="404.577" y1="246.351" x2="407.81" y2="225.96"/>
					
						<line style="fill:none;stroke:#263238;stroke-linecap:round;stroke-linejoin:round;stroke-miterlimit:10;" x1="404.577" y1="250.081" x2="409.551" y2="233.171"/>
					<path style="fill:none;stroke:#263238;stroke-linecap:round;stroke-linejoin:round;stroke-miterlimit:10;" d="M399.888,308.693
						c1.175,0.354,2.42,0.679,3.759,0.977"/>
					<path style="fill:none;stroke:#263238;stroke-linecap:round;stroke-linejoin:round;stroke-miterlimit:10;" d="M373.359,298.619
						c0,0,6.958-0.409,12.688,3.274c2.899,1.863,5.483,3.413,8.283,4.701"/>
					<path style="fill:none;stroke:#263238;stroke-linecap:round;stroke-linejoin:round;stroke-miterlimit:10;" d="M378.271,296.163
						c0,0,9.004,0.818,15.553,4.911"/>
				</g>
				<polygon style="fill:#FFFFFF;stroke:#263238;stroke-linecap:round;stroke-linejoin:round;stroke-miterlimit:10;" points="
					386.921,184.182 371.752,207.06 375.979,214.023 390.9,188.409 				"/>
			</g>
		</g>
		<g>
			<path style="fill:#A3A3A3;stroke:#263238;stroke-linecap:round;stroke-linejoin:round;stroke-miterlimit:10;" d="
				M354.096,262.515c0,0-23.873,1.99-26.857,1.243c-2.984-0.746-11.19-5.968-12.931-6.714c-1.741-0.746-7.709-0.249-10.196-0.746
				c-2.487-0.497-3.73-0.746-2.735,0.995c0.995,1.741,2.984,2.487,4.725,2.487c1.741,0,4.974,2.487,4.974,2.487l-20.964,3.335
				c-0.51,0.081-0.861,0.557-0.788,1.068l0.006,0.042c0.064,0.451,0.441,0.792,0.896,0.811l10.655,0.463v2.238l-11.729,1.15
				c-0.525,0.052-0.906,0.522-0.848,1.046l0.049,0.444c0.053,0.479,0.458,0.842,0.94,0.842h11.338v1.741l-8.823,1.291
				c-0.66,0.097-1.015,0.827-0.684,1.406l0,0c0.186,0.326,0.547,0.511,0.921,0.471l8.836-0.93l0.497,1.741l-4.776,2.492
				c-0.515,0.269-0.704,0.912-0.416,1.416l0,0c0.264,0.462,0.838,0.645,1.32,0.421l9.342-4.329l18.153-3.73l30.836,4.228
				L354.096,262.515z"/>
			<g>
				<path style="fill:#FFFFFF;stroke:#263238;stroke-linecap:round;stroke-linejoin:round;stroke-miterlimit:10;" d="
					M392.392,204.325c0,0-12.434,2.487-14.423,13.926c-1.99,11.439-0.995,39.042-0.995,39.042s-2.735,0.497-2.735,1.741
					c0,1.243,0,1.989,0,1.989l-15.169,1.989l1.741,16.91c0,0,22.132-0.746,32.328-1.243c10.196-0.497,11.688-5.222,11.688-9.45
					c0-4.228-1.243-42.275-1.243-42.275"/>
				
					<line style="fill:none;stroke:#263238;stroke-linecap:round;stroke-linejoin:round;stroke-miterlimit:10;" x1="374.239" y1="261.023" x2="387.17" y2="268.483"/>
				
					<line style="fill:none;stroke:#263238;stroke-linecap:round;stroke-linejoin:round;stroke-miterlimit:10;" x1="377.969" y1="258.536" x2="388.413" y2="261.023"/>
			</g>
			<path style="fill:#FFFFFF;stroke:#263238;stroke-linecap:round;stroke-linejoin:round;stroke-miterlimit:10;" d="
				M363.794,261.023c0,0,5.968,20.64,5.222,21.386c-0.746,0.746-12.931,4.228-14.672,0.746c-1.741-3.482-5.471-20.64-4.725-22.132
				C350.365,259.531,363.794,261.023,363.794,261.023z"/>
		</g>
	</g>
</g>
<g id="Device_1_">
	<g>
		<g>
			<path style="fill:#FFFFFF;stroke:#263238;stroke-linecap:round;stroke-linejoin:round;stroke-miterlimit:10;" d="M65.353,186.198
				c0,0,3.693-1.007,6.715,0c3.022,1.007,3.805,2.014,3.805,2.014l-9.4-0.112L65.353,186.198z"/>
			<path style="fill:#FFFFFF;stroke:#263238;stroke-linecap:round;stroke-linejoin:round;stroke-miterlimit:10;" d="M63.227,188.101
				l2.126-1.902c0,0,2.686-0.336,4.476,1.791L63.227,188.101z"/>
		</g>
		<path style="fill:#263238;" d="M61.375,226.339c-0.256-1.349-1.556-2.235-2.906-1.981l-13.189,2.497
			c-1.012-1.029-2.501-1.552-4.026-1.262l-17.039,3.227c-2.429,0.46-4.025,2.802-3.565,5.231c0.406,2.148,2.284,3.644,4.393,3.644
			c0.276,0,0.557-0.026,0.838-0.079l17.039-3.227c1.524-0.289,2.719-1.319,3.285-2.646l13.19-2.497
			C60.743,228.99,61.63,227.689,61.375,226.339z"/>
		
			<rect x="62.967" y="230.775" style="fill:#263238;stroke:#263238;stroke-linecap:round;stroke-linejoin:round;stroke-miterlimit:10;" width="9.332" height="6.073"/>
		<g>
			<path style="fill:#666666;stroke:#263238;stroke-linecap:round;stroke-linejoin:round;stroke-miterlimit:10;" d="M77.327,224.923
				h-2.574v8.841h2.574c1.112,0,2.014-1.979,2.014-4.42S78.439,224.923,77.327,224.923z"/>
			<path style="fill:#263238;stroke:#263238;stroke-linecap:round;stroke-linejoin:round;stroke-miterlimit:10;" d="M76.768,229.344
				c0,2.441-0.902,4.42-2.014,4.42c-1.112,0-2.014-1.979-2.014-4.42s0.902-4.42,2.014-4.42
				C75.866,224.923,76.768,226.902,76.768,229.344z"/>
		</g>
		<path style="fill:#666666;stroke:#263238;stroke-linecap:round;stroke-linejoin:round;stroke-miterlimit:10;" d="M73.578,230.961
			H64.57v-3.469h9.009c0.958,0,1.735,0.777,1.735,1.735v0C75.313,230.185,74.536,230.961,73.578,230.961z"/>
		<path style="fill:#666666;stroke:#263238;stroke-linecap:round;stroke-linejoin:round;stroke-miterlimit:10;" d="M56.848,216.973
			l0.041,0.224h-1.495l4.031,17.01h3.245h0c1.504,0,2.808-1.041,3.141-2.507l3.347-14.727H56.848z"/>
		<path style="fill:#263238;stroke:#263238;stroke-linecap:round;stroke-linejoin:round;stroke-miterlimit:10;" d="M53.603,216.973
			l2.653,14.589c0.278,1.532,1.612,2.645,3.169,2.645l0,0c1.504,0,2.808-1.041,3.141-2.507l3.347-14.727H53.603z"/>
		
			<rect x="49.91" y="213.056" style="fill:#263238;stroke:#263238;stroke-linecap:round;stroke-linejoin:round;stroke-miterlimit:10;" width="29.096" height="4.476"/>
		
			<rect x="64.01" y="213.056" style="fill:#666666;stroke:#263238;stroke-linecap:round;stroke-linejoin:round;stroke-miterlimit:10;" width="14.996" height="4.476"/>
		<path style="fill:#263238;stroke:#263238;stroke-linecap:round;stroke-linejoin:round;stroke-miterlimit:10;" d="M77.656,213.172
			H47.032c-2.393,0-4.333-1.94-4.333-4.333v-16.614c0-2.393,1.94-4.333,4.333-4.333h30.624c2.945,0,5.333,2.388,5.333,5.333v14.614
			C82.989,210.785,80.601,213.172,77.656,213.172z"/>
		<path style="fill:#92E3A9;stroke:#263238;stroke-linecap:round;stroke-linejoin:round;stroke-miterlimit:10;" d="M45.072,195.063
			c0,2.963-1.427,5.365-3.187,5.365c-1.76,0-3.187-2.402-3.187-5.365c0-2.963,1.427-5.365,3.187-5.365
			C43.645,189.698,45.072,192.1,45.072,195.063z"/>
		<path style="fill:#666666;stroke:#263238;stroke-linecap:round;stroke-linejoin:round;stroke-miterlimit:10;" d="M56.325,213.172
			h-2.381c-2.393,0-4.333-1.94-4.333-4.333v-16.614c0-2.393,1.94-4.333,4.333-4.333h2.381c2.946,0,5.333,2.388,5.333,5.333v14.614
			C61.659,210.785,59.271,213.172,56.325,213.172z"/>
		<path style="fill:#263238;stroke:#263238;stroke-linecap:round;stroke-linejoin:round;stroke-miterlimit:10;" d="M72.818,189.077
			c-4.527,0-8.196,5.173-8.196,11.554c0,6.381,3.67,11.554,8.196,11.554h17.775v-23.108H72.818z"/>
		
			<ellipse style="fill:#666666;stroke:#263238;stroke-linecap:round;stroke-linejoin:round;stroke-miterlimit:10;" cx="90.593" cy="200.631" rx="8.196" ry="11.554"/>
		<path style="fill:#FFFFFF;stroke:#263238;stroke-linecap:round;stroke-linejoin:round;stroke-miterlimit:10;" d="M96.636,200.631
			c0,4.704-2.705,8.518-6.043,8.518c-3.337,0-6.043-3.814-6.043-8.518s2.705-8.518,6.043-8.518
			C93.93,192.113,96.636,195.926,96.636,200.631z"/>
		
			<rect x="65.041" y="236.774" style="fill:#FFFFFF;stroke:#263238;stroke-linecap:round;stroke-linejoin:round;stroke-miterlimit:10;" width="5.629" height="72.578"/>
		<g>
			<g>
				<path style="fill:#FFFFFF;stroke:#263238;stroke-linecap:round;stroke-linejoin:round;stroke-miterlimit:10;" d="
					M108.614,433.469h5.662l-35.654-119.67c-0.495-1.387-2.021-2.111-3.407-1.615c-1.387,0.495-2.11,2.021-1.615,3.408
					L108.614,433.469z"/>
			</g>
			<path style="fill:#263238;stroke:#263238;stroke-linecap:round;stroke-linejoin:round;stroke-miterlimit:10;" d="M78.184,313.771
				c-0.495-1.387-2.021-2.111-3.407-1.615c-1.387,0.495-2.11,2.02-1.615,3.408l2.904,8.138h5.662L78.184,313.771z"/>
			<polygon style="fill:#263238;stroke:#263238;stroke-linecap:round;stroke-linejoin:round;stroke-miterlimit:10;" points="
				108.614,433.369 112.239,440.281 114.609,440.281 114.276,433.369 			"/>
			<path style="fill:#263238;stroke:#263238;stroke-linecap:round;stroke-linejoin:round;stroke-miterlimit:10;" d="
				M115.465,429.255c-0.127-0.941-0.852-1.638-1.706-1.638h-1.199l-0.978-3.334c0.903-0.175,1.551-1.122,1.41-2.172
				c-0.127-0.942-0.852-1.638-1.706-1.638h-0.821l-1.01-3.444c0.715-0.322,1.186-1.152,1.064-2.062
				c-0.127-0.941-0.852-1.638-1.706-1.638h-0.443l-0.581-1.982h-5.662l6.487,22.122h5.662l-0.588-2.005h0.071
				C114.814,431.464,115.622,430.418,115.465,429.255z"/>
		</g>
		<g>
			<g>
				<path style="fill:#FFFFFF;stroke:#263238;stroke-linecap:round;stroke-linejoin:round;stroke-miterlimit:10;" d="
					M28.312,433.469h-5.662l35.406-119.908c0.495-1.387,2.021-2.111,3.407-1.615c1.387,0.495,2.11,2.02,1.615,3.408L28.312,433.469z
					"/>
			</g>
			<path style="fill:#263238;stroke:#263238;stroke-linecap:round;stroke-linejoin:round;stroke-miterlimit:10;" d="M58.741,313.771
				c0.495-1.387,2.021-2.111,3.407-1.615c1.387,0.495,2.11,2.02,1.615,3.408l-2.904,8.138h-5.662L58.741,313.771z"/>
			<polygon style="fill:#263238;stroke:#263238;stroke-linecap:round;stroke-linejoin:round;stroke-miterlimit:10;" points="
				28.312,433.369 24.686,440.281 22.316,440.281 22.649,433.369 			"/>
			<path style="fill:#263238;stroke:#263238;stroke-linecap:round;stroke-linejoin:round;stroke-miterlimit:10;" d="M29.136,411.347
				l-0.581,1.982h-0.443c-0.854,0-1.579,0.697-1.706,1.638c-0.122,0.91,0.349,1.741,1.064,2.062l-1.01,3.444h-0.821
				c-0.854,0-1.579,0.697-1.706,1.638c-0.141,1.05,0.507,1.997,1.41,2.172l-0.977,3.334h-1.199c-0.854,0-1.579,0.697-1.706,1.638
				c-0.156,1.163,0.651,2.209,1.706,2.209h0.071l-0.588,2.005h5.662l6.486-22.122H29.136z"/>
		</g>
		<path style="fill:#263238;stroke:#263238;stroke-linecap:round;stroke-linejoin:round;stroke-miterlimit:10;" d="M77.113,317.499
			H59.782c-2.291,0-4.148-1.857-4.148-4.148l0,0c0-2.291,1.857-4.148,4.148-4.148h17.331c2.291,0,4.148,1.857,4.148,4.148l0,0
			C81.261,315.642,79.404,317.499,77.113,317.499z"/>
		<g>
			<g>
				<path style="fill:#FFFFFF;stroke:#263238;stroke-linecap:round;stroke-linejoin:round;stroke-miterlimit:10;" d="M59.4,433.369
					l8.37-116.903c0.139-1.63-1.07-3.064-2.701-3.203c-1.63-0.133-3.064,1.07-3.203,2.701l-8.413,117.405H59.4z"/>
			</g>
			<polygon style="fill:#263238;stroke:#263238;stroke-linecap:round;stroke-linejoin:round;stroke-miterlimit:10;" points="
				53.454,433.369 54.746,440.281 57.116,440.281 59.4,433.369 			"/>
			<path style="fill:#263238;stroke:#263238;stroke-linecap:round;stroke-linejoin:round;stroke-miterlimit:10;" d="M63.041,413.421
				h-1.942l0.151-1.778h-5.946l-1.85,21.725H59.4l0.101-1.185h1.96c0.545,0,0.987-0.442,0.987-0.987v-1.777
				c0-0.545-0.442-0.988-0.987-0.988h-1.641l0.286-3.358h2.54c0.545,0,0.988-0.442,0.988-0.987v-1.777
				c0-0.545-0.442-0.987-0.988-0.987h-2.22l0.353-4.148h2.262c0.545,0,0.988-0.442,0.988-0.987v-1.778
				C64.029,413.863,63.587,413.421,63.041,413.421z"/>
			<path style="fill:#263238;stroke:#263238;stroke-linecap:round;stroke-linejoin:round;stroke-miterlimit:10;" d="M65.07,313.263
				c-1.63-0.133-3.064,1.07-3.203,2.701l-0.66,7.756h5.946l0.618-7.254C67.909,314.836,66.7,313.401,65.07,313.263z"/>
		</g>
		<path style="fill:#666666;stroke:#263238;stroke-linecap:round;stroke-linejoin:round;stroke-miterlimit:10;" d="M81.217,313.229
			c0,2.155-1.747,3.901-3.901,3.901c-2.155,0-3.901-1.747-3.901-3.901c0-2.155,1.747-3.901,3.901-3.901
			C79.47,309.328,81.217,311.075,81.217,313.229z"/>
		
			<rect x="38.48" y="196.927" style="fill:#92E3A9;stroke:#263238;stroke-linecap:round;stroke-linejoin:round;stroke-miterlimit:10;" width="4.411" height="20.251"/>
		
			<rect x="37.878" y="216.777" style="fill:#92E3A9;stroke:#263238;stroke-linecap:round;stroke-linejoin:round;stroke-miterlimit:10;" width="5.414" height="5.614"/>
		<path style="fill:#92E3A9;stroke:#263238;stroke-linecap:round;stroke-linejoin:round;stroke-miterlimit:10;" d="M45.698,231.213
			c-1.604-5.815-2.406-8.822-2.406-8.822h-5.414c0,0,5.213,17.644,2.607,28.271c-2.607,10.627-4.812,16.04-4.612,20.05
			c0.201,4.01,6.015,4.612,6.015,4.612s3.007-1.003,4.612-11.429C48.104,253.469,47.302,237.028,45.698,231.213z M45.203,262.762
			c-0.728,7.283-4.127,11.289-4.127,11.289s-1.092-0.607-1.821-3.156c-0.728-2.549,0.85-8.375,3.884-16.63
			c1.393-3.79,1.916-6.272,2.074-7.851c-0.073-1.338-0.132-2.243-0.132-2.466c0,0,0.319,0.606,0.132,2.466
			C45.419,250.175,45.74,257.391,45.203,262.762z"/>
		<g>
			<path style="fill:#FFFFFF;stroke:#263238;stroke-width:0.5;stroke-miterlimit:10;" d="M42.947,197.325
				c-0.164,0-0.296-0.133-0.296-0.296c0-1.301-0.892-2.36-1.988-2.36c-1.096,0-1.988,1.059-1.988,2.36
				c0,0.164-0.132,0.296-0.296,0.296c-0.164,0-0.296-0.133-0.296-0.296c0-1.628,1.158-2.952,2.58-2.952
				c1.423,0,2.581,1.324,2.581,2.952C43.244,197.192,43.111,197.325,42.947,197.325z"/>
		</g>
	</g>
</g>
<g id="Table">
	<g>
		<g>
			<polygon style="fill:#263238;stroke:#263238;stroke-linecap:round;stroke-linejoin:round;stroke-miterlimit:10;" points="
				198.607,440.176 194.297,440.176 192.142,300.314 200.762,300.314 			"/>
		</g>
		<g>
			<polygon style="fill:#263238;stroke:#263238;stroke-linecap:round;stroke-linejoin:round;stroke-miterlimit:10;" points="
				340.383,440.176 336.073,440.176 333.918,300.314 342.538,300.314 			"/>
		</g>
		
			<rect x="186.456" y="295.336" style="fill:#FFFFFF;stroke:#263238;stroke-linecap:round;stroke-linejoin:round;stroke-miterlimit:10;" width="163.401" height="11.648"/>
		
			<rect x="186.456" y="295.336" style="fill:#263238;stroke:#263238;stroke-linecap:round;stroke-linejoin:round;stroke-miterlimit:10;" width="163.401" height="4.539"/>
		
			<rect x="179.441" y="288.042" style="fill:#FFFFFF;stroke:#263238;stroke-linecap:round;stroke-linejoin:round;stroke-miterlimit:10;" width="178.766" height="9.078"/>
	</g>
</g>
<g id="Floor">
	
		<line style="fill:none;stroke:#263238;stroke-linecap:round;stroke-linejoin:round;stroke-miterlimit:10;" x1="16.476" y1="440.281" x2="493" y2="440.281"/>
</g>
</svg>
